<svg version="1.1" id="Layer_1" xmlns="http://www.w3.org/2000/svg" xmlns:xlink="http://www.w3.org/1999/xlink" x="0px" y="0px"
	 width="100%" viewBox="0 0 500 500" enable-background="new 0 0 500 500" xml:space="preserve">
<path fill="#FEFEFE" opacity="1.000000" stroke="none" 
	d="
M328.000000,501.000000 
	C218.666687,501.000000 109.833382,501.000000 1.000058,501.000000 
	C1.000039,334.333405 1.000039,167.666794 1.000019,1.000148 
	C167.666565,1.000099 334.333130,1.000099 500.999756,1.000049 
	C500.999847,167.666519 500.999847,334.333038 500.999939,500.999786 
	C443.500000,501.000000 386.000000,501.000000 328.000000,501.000000 
M183.006454,324.991791 
	C183.006454,324.991791 182.993256,324.981689 182.643768,324.548676 
	C181.946152,324.007202 181.248550,323.465698 180.212570,322.387207 
	C179.585114,321.846222 178.957672,321.305237 178.064072,320.137878 
	C174.203949,315.582581 170.343826,311.027283 166.483704,306.471985 
	C165.873260,306.997955 165.262802,307.523926 164.652359,308.049896 
	C168.760605,313.042725 172.868851,318.035553 177.233521,323.605255 
	C178.087555,324.495056 178.941589,325.384857 180.184555,326.812378 
	C181.042847,327.595673 181.904724,328.375031 182.758896,329.162811 
	C195.209534,340.645508 209.585251,348.584290 226.689163,352.874573 
	C227.134232,352.880585 227.579300,352.886597 228.600327,353.361877 
	C229.705124,353.726257 230.784943,354.225739 231.918365,354.435242 
	C257.793304,359.217743 282.281433,355.289124 304.950287,341.918549 
	C310.814545,338.459686 315.732422,333.396240 321.005402,329.000458 
	C321.005402,329.000458 321.066864,329.086060 321.739594,328.981567 
	C324.179077,326.335510 326.618561,323.689453 329.000885,321.000458 
	C329.000885,321.000458 329.043488,321.057770 329.706146,320.927063 
	C337.497711,312.874268 343.137146,303.539551 347.343567,292.068878 
	C340.052612,292.068878 333.631683,292.169647 327.216400,292.023651 
	C324.290039,291.957062 323.105011,293.306213 321.619446,295.762024 
	C317.510101,302.555115 313.478973,309.633026 308.120636,315.392303 
	C283.962555,341.357849 254.046173,349.650360 219.615067,342.640289 
	C206.473206,339.964691 195.228821,333.143005 183.955872,325.419769 
	C183.644836,325.278198 183.333801,325.136627 183.006454,324.991791 
M301.123627,146.933624 
	C301.123627,146.933624 301.256439,146.884155 301.638245,147.409302 
	C304.516815,148.845169 307.395386,150.281036 310.674988,152.236801 
	C316.388062,155.899719 322.101135,159.562653 327.814209,163.225571 
	C328.002686,162.971558 328.191132,162.717529 328.379608,162.463501 
	C323.155609,158.077744 317.931610,153.691971 312.317078,148.797867 
	C310.533417,147.622986 308.749756,146.448090 306.390778,144.880020 
	C224.460983,92.821632 134.895920,146.865494 118.374153,208.876999 
	C126.098984,208.876999 133.749039,209.051254 141.377426,208.722656 
	C142.817444,208.660645 144.585007,206.858978 145.496002,205.414993 
	C150.450684,197.561539 154.396652,188.941498 160.134125,181.735275 
	C181.848816,154.461823 210.120224,139.062912 245.205811,136.791245 
	C263.115875,135.631638 280.355133,138.543289 297.522003,145.433548 
	C298.705658,145.889435 299.889343,146.345322 301.123627,146.933624 
M305.603088,279.944855 
	C305.999329,279.633942 306.395538,279.322998 306.982574,278.121246 
	C306.941895,274.897644 306.901184,271.674011 306.860504,268.450409 
	C305.975739,268.492065 305.090942,268.533691 304.206177,268.575348 
	C304.494171,272.272278 304.782166,275.969238 305.603088,279.944855 
M185.198914,269.920349 
	C185.198914,273.171295 185.198914,276.422211 185.198914,279.585083 
	C188.139008,279.585083 190.531311,279.585083 192.923630,279.585083 
	C192.946106,279.257843 192.968597,278.930573 192.991074,278.603333 
	C191.392365,278.253326 189.793655,277.903320 187.934784,277.496368 
	C187.934784,275.296021 187.877609,273.178467 187.950027,271.065369 
	C188.030670,268.712860 187.114471,268.044464 184.080292,269.461273 
	C181.022873,269.039581 177.965454,268.617920 174.908051,268.196228 
	C174.523239,268.684479 174.138443,269.172729 173.753647,269.660980 
	C180.983566,271.123657 176.083389,276.883453 179.269562,281.296295 
	C179.722336,278.992554 180.274689,277.751923 180.138107,276.592468 
	C179.666077,272.585602 180.906219,269.836945 185.198914,269.920349 
M263.748108,276.931824 
	C263.175018,277.072266 262.601898,277.212738 261.076904,277.499176 
	C259.041412,275.495361 257.005951,273.491516 254.747055,271.267761 
	C256.184692,271.010101 257.836365,270.714050 259.488037,270.418030 
	C259.471802,269.946869 259.455597,269.475739 259.439362,269.004578 
	C257.371185,269.004578 255.238922,268.720123 253.270599,269.163483 
	C252.608398,269.312622 252.001526,271.312897 252.005051,272.465179 
	C252.011597,274.614380 252.483780,276.762177 252.879074,279.812897 
	C254.218353,279.812897 256.348938,280.150574 258.296844,279.699432 
	C259.698853,279.374695 260.857239,277.998169 262.074860,277.975433 
	C264.193817,281.215149 267.694550,281.283325 269.433746,278.870880 
	C273.028473,273.884644 266.980896,273.674469 263.991821,271.257141 
	C266.447113,270.965668 268.089996,270.770630 270.369873,270.499969 
	C266.651917,267.999207 263.625061,267.847076 262.532379,269.885071 
	C260.831818,273.056793 263.237946,274.274811 264.904541,276.222443 
	C264.724609,276.500732 264.544647,276.778992 263.748108,276.931824 
M174.209213,192.393143 
	C179.215530,187.969528 184.221848,183.545914 189.730591,178.882095 
	C190.138718,178.503494 190.546844,178.124893 191.670593,177.723907 
	C200.533066,174.096359 209.147629,169.581573 218.308456,167.021774 
	C238.823166,161.289322 259.214050,162.904678 278.479034,172.079163 
	C287.066162,176.168594 294.808136,182.032776 302.991028,187.007141 
	C302.991028,187.007141 302.908661,187.067245 303.042480,187.675049 
	C303.700470,188.114517 304.358459,188.553986 305.189270,189.444183 
	C305.348663,189.748535 305.594666,189.943802 306.060730,190.699539 
	C310.082581,196.046326 314.022400,201.458603 318.195831,206.684326 
	C319.024536,207.721970 320.748535,208.044571 322.975037,208.839005 
	C327.986115,208.809372 332.997223,208.779739 338.813934,208.965210 
	C340.394684,208.965210 341.975464,208.965210 344.296173,208.965210 
	C343.396118,206.830109 343.070526,205.338623 342.244873,204.214478 
	C336.398224,196.254547 331.147736,187.690170 324.317535,180.670609 
	C318.575134,174.769028 310.955719,170.693817 303.983246,165.936508 
	C303.983246,165.936508 304.172211,165.823685 303.918365,165.210098 
	C303.390900,164.817230 302.905151,164.344864 302.329956,164.042862 
	C272.613800,148.439789 242.158524,146.975372 211.219650,159.865540 
	C201.760941,163.806366 192.706924,168.768021 185.826187,176.652740 
	C185.826187,176.652740 185.733276,176.685822 185.059677,176.802399 
	C180.166626,182.169678 175.273560,187.536957 169.889359,193.256790 
	C166.194000,197.873795 162.795044,202.648041 160.947540,208.245392 
	C161.397537,208.533432 161.847534,208.821472 162.297546,209.109512 
	C166.137146,203.728027 169.976761,198.346542 174.209213,192.393143 
M114.564766,258.897003 
	C114.656334,258.601807 114.747902,258.306610 114.988998,257.083160 
	C114.988998,247.969757 114.988998,238.856339 114.988998,229.735840 
	C112.492104,229.735840 110.479218,229.735840 107.990814,229.735840 
	C107.990814,235.378113 107.990814,240.570847 107.990814,245.763596 
	C104.474670,241.859879 101.592010,237.857727 99.236046,233.566406 
	C97.062340,229.607040 94.301979,228.140457 89.835754,229.927582 
	C89.835754,239.449371 89.835754,249.045914 89.835754,258.673828 
	C92.080177,258.673828 94.136467,258.673828 96.684692,258.673828 
	C96.684692,253.153748 96.684692,247.972260 96.684692,242.790771 
	C100.214447,246.493729 102.999611,250.353714 105.204735,254.520645 
	C107.213104,258.315765 109.870651,259.846375 114.564766,258.897003 
M146.616547,257.073425 
	C143.061722,248.693344 139.585297,240.278152 135.863068,231.973099 
	C135.337021,230.799332 133.686508,229.595886 132.423019,229.431427 
	C131.070007,229.255310 128.666214,229.906769 128.255814,230.858704 
	C124.308426,240.015030 120.685318,249.311172 116.919281,258.692078 
	C121.363625,259.438507 124.976974,259.737762 125.642105,254.497177 
	C129.739960,254.444244 133.837830,254.391327 137.935684,254.338379 
	C139.012039,260.964874 143.989655,258.796753 148.851196,259.009735 
	C150.451950,259.009735 152.052704,259.009735 153.746933,259.009735 
	C154.256485,253.803864 154.711624,249.153885 155.166763,244.503906 
	C157.572571,247.746368 158.629852,251.336655 160.115417,254.739960 
	C160.794739,256.296173 162.317566,257.484222 163.457809,258.839233 
	C164.617844,257.480011 166.159897,256.291870 166.860641,254.727005 
	C168.458923,251.157715 169.644928,247.403824 170.998444,243.724930 
	C171.286194,243.847046 171.573944,243.969147 171.861679,244.091263 
	C172.323990,248.984344 172.786301,253.877441 173.249176,258.776520 
	C175.578766,258.776520 177.505692,258.776520 179.866348,258.776520 
	C178.988388,248.840088 178.135498,239.187469 177.308304,229.825516 
	C172.054596,228.328064 169.152771,229.519348 167.929367,234.550385 
	C167.044022,238.191284 165.318237,241.627808 163.539734,246.271790 
	C161.678116,241.534164 159.870834,237.992691 158.909973,234.234787 
	C157.560699,228.957748 154.419174,228.443878 149.592865,229.923508 
	C148.866394,238.989273 148.138443,248.073456 146.616547,257.073425 
M123.748970,292.176544 
	C121.810829,292.176544 119.872688,292.176544 116.986206,292.176544 
	C130.361938,328.750793 154.339188,354.238220 189.347366,368.547852 
	C221.273224,381.597504 253.620285,381.127838 285.486572,367.502716 
	C283.898895,367.120728 282.317780,367.223450 280.804382,367.599091 
	C266.593506,371.126526 252.200027,372.268860 237.711777,370.125305 
	C197.008453,364.103210 166.987411,342.805573 147.690567,306.457855 
	C145.224838,301.813354 144.152481,295.170319 140.355957,292.840790 
	C136.462326,290.451660 130.016464,292.221954 123.748970,292.176544 
M306.535339,230.275986 
	C306.535339,239.706146 306.535339,249.136292 306.535339,258.735107 
	C308.811157,258.735107 310.845490,258.735107 313.262573,258.735107 
	C313.262573,253.440002 313.262573,248.427170 313.262573,243.414352 
	C317.062805,246.950043 320.189819,250.755997 322.318481,255.056152 
	C324.557709,259.579498 327.698669,259.488129 331.533020,258.670197 
	C331.533020,248.766907 331.533020,239.207535 331.533020,229.498779 
	C329.282104,229.498779 327.382263,229.498779 324.791779,229.498779 
	C324.791779,235.164337 324.791779,240.596207 324.791779,247.490692 
	C321.240295,241.904053 318.305725,237.852905 315.988495,233.474991 
	C313.905518,229.539536 311.102997,228.405609 306.535339,230.275986 
M275.960693,253.433258 
	C280.775238,259.031189 287.038239,260.950470 293.202271,258.716888 
	C299.091492,256.582886 302.967957,250.669647 302.888611,243.941177 
	C302.809265,237.212097 298.849335,231.616791 292.714203,229.565018 
	C287.169312,227.710648 280.653229,229.464813 276.852203,233.835129 
	C272.261078,239.113876 271.811218,245.710144 275.960693,253.433258 
M51.006248,256.569305 
	C52.325020,257.275146 53.584946,258.137543 54.972916,258.659302 
	C60.469307,260.725525 67.185509,259.193665 71.029350,254.924927 
	C75.620590,249.826111 76.313438,243.947052 73.829147,237.717041 
	C71.623932,232.186890 66.116806,228.791199 60.001419,228.896164 
	C53.671364,229.004822 49.116299,232.145355 46.741619,237.793930 
	C43.906216,244.538437 45.006542,250.836853 51.006248,256.569305 
M369.338226,259.287079 
	C379.208374,259.728607 383.474823,257.413910 383.894165,250.577179 
	C384.319336,243.645218 383.987976,236.666855 383.987976,229.635651 
	C381.727142,229.635651 379.684845,229.635651 377.302490,229.635651 
	C377.302490,235.479980 377.279144,240.944824 377.310974,246.409348 
	C377.331177,249.873596 376.805023,252.943954 372.339142,252.751083 
	C368.189850,252.571884 367.879425,249.562134 367.901184,246.347595 
	C367.939117,240.750259 367.911743,235.152481 367.911743,229.556473 
	C365.189331,229.556473 363.277130,229.556473 361.090546,229.556473 
	C361.090546,236.654572 360.847961,243.455109 361.175812,250.228073 
	C361.394318,254.742508 363.846954,258.017914 369.338226,259.287079 
M199.125702,242.563995 
	C203.806885,235.634857 201.321487,230.032715 193.158493,229.398148 
	C189.913849,229.145920 186.633209,229.356689 183.431412,229.356689 
	C183.431412,239.569443 183.431412,249.136475 183.431412,258.914337 
	C187.766510,258.914337 191.746628,259.061707 195.710754,258.872925 
	C199.679810,258.683899 202.898392,256.930511 203.837540,252.805618 
	C204.790024,248.622162 203.364838,245.268448 199.125702,242.563995 
M216.078293,230.364944 
	C212.293167,239.707077 208.508057,249.049225 204.605362,258.681549 
	C208.587494,259.066650 212.217194,260.466400 213.357407,254.874634 
	C213.881058,252.306534 224.970551,252.009613 225.566681,254.559662 
	C226.863541,260.107056 230.439941,259.193237 234.517273,258.747498 
	C231.159760,250.295975 227.780045,242.186676 224.733765,233.953995 
	C223.191620,229.786285 220.844742,228.111954 216.078293,230.364944 
M260.774170,235.702423 
	C263.368347,235.954254 265.962555,236.206070 268.772400,236.478821 
	C269.487213,234.844376 270.192719,233.231293 270.849945,231.728592 
	C265.033752,226.754776 253.387711,228.583740 248.663773,235.012100 
	C243.914627,241.474747 244.314163,249.316772 249.987305,254.913208 
	C255.555649,260.406281 265.007629,261.072113 270.917908,256.267487 
	C270.090240,254.739105 269.248291,253.184296 268.457825,251.724609 
	C259.301758,253.714020 254.674210,252.092133 253.125259,246.559601 
	C251.733688,241.589157 254.221146,237.684555 260.774170,235.702423 
M355.787659,233.642456 
	C355.337128,232.508270 355.149139,230.652634 354.386810,230.375244 
	C352.101532,229.543655 349.589325,228.941467 347.170349,228.957413 
	C342.768341,228.986435 339.558075,231.281769 338.283417,235.569626 
	C336.993317,239.909454 339.102966,242.942902 342.763031,245.054810 
	C344.484985,246.048416 346.433624,246.695953 348.024933,247.851059 
	C348.934692,248.511444 350.098755,250.329727 349.802521,250.830551 
	C349.178467,251.885452 347.561432,253.162949 346.542633,253.017044 
	C343.869202,252.634171 341.298004,251.537140 338.686401,250.723480 
	C334.608215,255.840302 334.842682,256.697144 340.867096,258.692444 
	C347.669342,260.945374 354.992859,258.733063 356.903473,253.848145 
	C359.071991,248.303848 356.783691,244.922546 348.715790,240.863892 
	C347.158417,240.080414 346.230560,238.045517 345.012329,236.587906 
	C346.946838,236.228210 348.913452,235.469254 350.806854,235.621307 
	C352.694092,235.772888 354.628296,237.285828 355.787659,233.642456 
M413.712952,229.280289 
	C411.786316,229.280289 409.859680,229.280289 407.481110,229.280289 
	C407.612671,231.634125 407.707916,233.338516 407.803009,235.040451 
	C410.234344,235.239761 412.165161,235.398041 414.480957,235.587875 
	C414.480957,243.419220 414.480957,250.993164 414.480957,258.711914 
	C416.944031,258.711914 418.990173,258.711914 421.475616,258.711914 
	C421.475616,250.843445 421.475616,243.279739 421.475616,235.604462 
	C423.977844,235.364685 426.052887,235.165833 428.408417,234.940109 
	C428.308167,232.934341 428.221954,231.209061 428.125580,229.280304 
	C423.266022,229.280304 418.961945,229.280304 413.712952,229.280289 
M388.680267,232.146057 
	C388.680267,241.025558 388.680267,249.905075 388.680267,258.742981 
	C394.702606,258.742981 399.958649,258.742981 405.293152,258.742981 
	C405.293152,256.755585 405.293152,255.052612 405.293152,252.869385 
	C401.854797,252.869385 398.779358,252.869385 395.272888,252.869385 
	C395.272888,244.806244 395.272888,237.223236 395.272888,228.175949 
	C392.483704,229.487411 390.578491,230.383240 388.680267,232.146057 
M160.147888,273.206329 
	C159.961639,272.567932 159.940887,271.795898 159.555313,271.318512 
	C158.708649,270.270325 157.677368,269.371277 156.721466,268.411346 
	C156.213928,269.669373 155.372925,270.901367 155.272110,272.191193 
	C155.092560,274.488403 155.323334,276.823273 155.486969,279.135010 
	C155.508423,279.437836 156.145752,279.697052 156.838196,280.246643 
	C157.439819,278.985809 157.940155,277.937225 158.498154,276.767822 
	C159.440170,278.014557 160.265305,279.106598 161.679520,280.978302 
	C162.907150,278.328217 163.810516,276.378052 165.264496,273.239319 
	C166.266434,275.210724 166.781311,276.223755 167.296173,277.236786 
	C166.988785,277.350952 166.681412,277.465088 166.374023,277.579224 
	C166.374023,274.511505 166.374023,271.443756 166.374023,268.376007 
	C165.848312,268.348236 165.322601,268.320435 164.796890,268.292664 
	C164.602158,269.713898 164.407440,271.135101 164.129303,273.165100 
	C163.616669,273.273041 162.009949,273.611359 160.147888,273.206329 
M287.134796,277.061768 
	C284.528168,267.719910 284.528168,267.719910 278.310486,269.100006 
	C278.310486,272.615814 278.310486,276.164459 278.310486,281.109192 
	C281.672638,279.835297 284.323700,278.830811 287.134796,277.061768 
M320.425659,279.480896 
	C320.558990,279.579132 320.692352,279.677338 320.825684,279.775574 
	C320.738647,279.463898 320.577698,279.152649 320.575958,278.840515 
	C320.557587,275.542542 320.564575,272.244446 320.564575,269.126434 
	C317.188934,268.877716 313.104431,268.576752 308.630524,268.247101 
	C310.107361,270.737122 311.383636,272.177307 311.839844,273.842194 
	C312.383484,275.826141 312.223877,278.002777 312.444824,281.190796 
	C316.326141,277.203003 311.502991,270.066528 319.460602,269.657135 
	C319.639557,272.797668 319.820007,275.964111 320.425659,279.480896 
M334.725433,278.487000 
	C337.199554,278.628998 341.090851,279.828857 341.908112,278.734039 
	C345.934296,273.340546 338.465240,274.075165 336.734985,270.937531 
	C338.890656,270.836060 340.497070,270.760437 342.103455,270.684814 
	C342.080231,270.043762 342.057037,269.402679 342.033844,268.761597 
	C339.846924,268.972504 336.605286,268.344025 335.654572,269.538696 
	C331.399109,274.886292 339.578613,274.090088 340.271271,277.479492 
	C338.193115,277.633820 336.403412,277.766724 334.725433,278.487000 
M219.808685,268.404572 
	C218.126846,269.102997 216.445007,269.801392 214.763168,270.499817 
	C216.401764,272.826996 218.040375,275.154144 219.938065,277.849274 
	C218.255020,277.607239 216.526840,277.358704 214.798676,277.110199 
	C214.624634,277.620697 214.450592,278.131195 214.276550,278.641724 
	C215.956573,279.153351 217.686646,280.173737 219.300705,280.014954 
	C220.581253,279.888947 221.719711,278.318817 222.921265,277.389893 
	C221.178940,275.282440 219.436600,273.175018 217.646271,271.009521 
	C218.772568,270.940948 220.395142,270.842194 222.981003,270.684814 
	C221.702484,269.607391 221.077972,269.081116 219.808685,268.404572 
M211.373611,274.024658 
	C209.616028,273.399200 207.858459,272.773712 204.736420,271.662659 
	C207.898193,271.233337 209.678802,270.991547 211.459396,270.749756 
	C211.460434,270.195221 211.461472,269.640686 211.462509,269.086151 
	C209.415833,269.086151 207.290192,268.775055 205.367416,269.263153 
	C204.736053,269.423431 204.313797,271.667084 204.360092,272.937500 
	C204.426895,274.771515 205.008057,276.586823 205.575409,279.446747 
	C206.851959,279.446747 209.229309,279.809875 211.338730,279.218018 
	C211.945145,279.047943 211.778595,276.122772 211.373611,274.024658 
M246.181534,280.032837 
	C247.437653,278.644287 249.641922,277.311523 249.727631,275.854156 
	C249.856171,273.668732 249.014267,270.934265 247.581039,269.330719 
	C246.700623,268.345703 243.161240,268.229187 242.215408,269.154022 
	C240.687607,270.647919 239.652313,273.307037 239.604385,275.500122 
	C239.529877,278.910767 242.017792,280.348938 246.181534,280.032837 
M236.832199,274.595490 
	C237.987869,268.964447 236.219955,267.621399 229.478165,269.059540 
	C229.478165,272.654083 229.478165,276.250946 229.478165,279.644989 
	C231.904999,278.012024 234.076492,276.550873 236.832199,274.595490 
M84.244614,235.030029 
	C84.370178,233.718262 84.829681,232.317017 84.510132,231.124542 
	C84.276489,230.252670 83.014153,229.071991 82.217628,229.077499 
	C81.124672,229.085083 79.085693,230.114151 79.102318,230.654694 
	C79.221123,234.515488 79.759514,238.363373 80.164490,242.215363 
	C80.891975,242.212708 81.619461,242.210068 82.346947,242.207413 
	C82.925804,240.076706 83.504654,237.945999 84.244614,235.030029 
M194.939301,275.477478 
	C195.019196,276.920135 195.099075,278.362793 195.199188,280.170471 
	C197.888596,279.972198 200.223419,279.800079 202.558228,279.627960 
	C202.541901,279.236664 202.525558,278.845337 202.509232,278.454041 
	C200.834122,278.189209 199.159012,277.924408 197.441040,277.652802 
	C197.441040,275.367676 197.441040,273.288727 197.441040,271.119598 
	C199.247986,270.714752 200.882034,270.348663 202.516068,269.982544 
	C202.486618,269.655609 202.457169,269.328644 202.427719,269.001709 
	C200.011398,269.001709 197.595062,269.001709 194.945435,269.001709 
	C194.945435,270.921234 194.945435,272.731476 194.939301,275.477478 
M325.053986,277.330627 
	C326.007721,280.525330 328.046204,280.961609 332.406769,278.536346 
	C330.488525,278.175293 328.961121,277.887817 327.433746,277.600342 
	C327.287262,277.195129 327.140778,276.789917 326.994293,276.384705 
	C328.638458,275.679626 330.282593,274.974579 332.625153,273.970032 
	C330.363281,273.288696 328.625702,272.765259 326.016937,271.979401 
	C328.786102,271.079773 330.561432,270.502991 332.336792,269.926239 
	C332.252014,269.639679 332.167236,269.353149 332.082458,269.066589 
	C329.751770,269.066589 327.421112,269.066589 325.057739,269.066589 
	C325.057739,271.769318 325.057739,274.085327 325.053986,277.330627 
M140.326172,272.820953 
	C140.326172,275.106049 140.326172,277.391174 140.326172,280.205811 
	C143.219238,280.010742 145.561905,279.852783 147.904572,279.694824 
	C147.901978,279.300476 147.899384,278.906128 147.896790,278.511780 
	C146.252563,278.156891 144.608353,277.802032 143.078751,277.471893 
	C142.923370,274.222229 142.783859,271.304382 142.644348,268.386566 
	C142.039902,268.387085 141.435455,268.387634 140.831024,268.388153 
	C140.664154,269.581512 140.497284,270.774872 140.326172,272.820953 
M291.983734,276.326721 
	C291.860687,273.692902 291.737640,271.059052 291.614594,268.425232 
	C291.063019,268.451416 290.511475,268.477631 289.959900,268.503815 
	C289.959900,272.259399 289.959900,276.014954 289.959900,279.770538 
	C290.178894,279.907043 290.397888,280.043579 290.616882,280.180084 
	C291.075043,279.195679 291.533173,278.211273 291.983734,276.326721 
M294.961121,278.254272 
	C297.269226,278.986298 299.577362,279.718292 301.885468,280.450317 
	C302.038757,279.857941 302.192047,279.265594 302.345337,278.673218 
	C300.723785,278.334381 299.102234,277.995514 297.482971,277.645325 
	C297.214325,274.625031 296.945679,271.604767 296.677032,268.584473 
	C296.102966,268.609558 295.528900,268.634644 294.954834,268.659698 
	C294.954834,271.554779 294.954834,274.449860 294.961121,278.254272 
M172.975372,278.086914 
	C172.805237,274.864105 172.635117,271.641296 172.464996,268.418457 
	C171.724396,268.474182 170.983810,268.529907 170.243210,268.585602 
	C170.243210,271.916565 170.204224,275.249298 170.355499,278.573395 
	C170.363251,278.744019 172.002289,278.840424 172.975372,278.086914 
z"/>
<path fill="#0B98B1" opacity="1.000000" stroke="none" 
	d="
M297.043671,145.008713 
	C280.355133,138.543289 263.115875,135.631638 245.205811,136.791245 
	C210.120224,139.062912 181.848816,154.461823 160.134125,181.735275 
	C154.396652,188.941498 150.450684,197.561539 145.496002,205.414993 
	C144.585007,206.858978 142.817444,208.660645 141.377426,208.722656 
	C133.749039,209.051254 126.098984,208.876999 118.374153,208.876999 
	C134.895920,146.865494 224.460983,92.821632 306.687805,145.408859 
	C306.984802,146.679199 306.984802,147.420700 306.984802,148.166702 
	C304.838654,147.686188 303.047546,147.285172 301.256439,146.884155 
	C301.256439,146.884155 301.123627,146.933624 301.002136,146.531738 
	C299.601654,145.756149 298.322662,145.382431 297.043671,145.008713 
z"/>
<path fill="#0D98B0" opacity="1.000000" stroke="none" 
	d="
M124.218292,292.174194 
	C130.016464,292.221954 136.462326,290.451660 140.355957,292.840790 
	C144.152481,295.170319 145.224838,301.813354 147.690567,306.457855 
	C166.987411,342.805573 197.008453,364.103210 237.711777,370.125305 
	C252.200027,372.268860 266.593506,371.126526 280.804382,367.599091 
	C282.317780,367.223450 283.898895,367.120728 285.486572,367.502716 
	C253.620285,381.127838 221.273224,381.597504 189.347366,368.547852 
	C154.339188,354.238220 130.361938,328.750793 116.986206,292.176544 
	C119.872688,292.176544 121.810829,292.176544 124.218292,292.174194 
z"/>
<path fill="#FD7F51" opacity="1.000000" stroke="none" 
	d="
M305.927277,190.029953 
	C305.594666,189.943802 305.348663,189.748535 305.068726,188.888306 
	C304.268341,187.910690 303.588501,187.488968 302.908661,187.067245 
	C302.908661,187.067245 302.991028,187.007141 302.957153,186.695129 
	C302.162903,185.324677 301.580902,184.055222 300.615540,183.239273 
	C284.332611,169.476303 265.314972,162.334808 244.186493,162.280731 
	C233.411865,162.253128 222.398880,163.916260 211.929947,166.549667 
	C204.373093,168.450562 196.380600,171.113815 190.954971,177.746292 
	C190.546844,178.124893 190.138718,178.503494 189.131866,179.003281 
	C187.540253,179.313797 186.547348,179.503113 185.283249,179.744156 
	C185.473419,178.451797 185.603348,177.568802 185.733276,176.685822 
	C185.733276,176.685822 185.826187,176.652740 186.138718,176.744904 
	C194.068222,172.261932 201.503601,167.339661 209.363068,163.228043 
	C215.038605,160.258926 221.107605,157.098831 227.302368,156.266739 
	C239.234695,154.664001 251.429184,153.687424 263.421478,154.295273 
	C272.286560,154.744644 280.973602,158.257172 289.797943,160.132095 
	C294.953339,161.227478 298.172760,167.017151 304.172211,165.823685 
	C304.172211,165.823685 303.983246,165.936508 304.054199,166.238068 
	C304.684204,167.306152 305.116364,168.223984 305.821991,168.815735 
	C312.748108,174.624176 320.148407,179.946716 326.536285,186.291031 
	C331.242767,190.965363 334.824371,196.834930 338.518585,202.428589 
	C339.667725,204.168579 341.447693,206.931717 338.008301,208.750122 
	C332.997223,208.779739 327.986115,208.809372 322.452393,208.444794 
	C319.789612,204.798645 318.116760,201.062607 315.383881,198.424698 
	C312.376251,195.521561 311.427338,190.111298 305.927277,190.029953 
z"/>
<path fill="#FD7F51" opacity="1.000000" stroke="none" 
	d="
M228.024368,352.892639 
	C227.579300,352.886597 227.134232,352.880585 226.283676,352.453186 
	C223.072586,350.695831 220.264328,349.365356 217.461899,348.022736 
	C210.775925,344.819550 204.092697,341.610626 197.408340,338.404053 
	C197.639099,337.887360 197.869843,337.370697 198.100586,336.854004 
	C199.321442,337.193512 200.703552,337.272339 201.738480,337.912445 
	C213.480377,345.174988 226.742722,346.786346 239.941406,346.754211 
	C254.886261,346.717834 269.620178,344.831726 283.275085,337.212158 
	C298.823364,328.536072 311.501434,317.272552 320.673126,301.997620 
	C322.352081,299.201416 324.371063,295.114166 326.850525,294.599915 
	C332.290039,293.471771 338.125000,294.250275 344.996429,294.250275 
	C340.803375,301.185333 337.306702,306.924713 333.857483,312.692474 
	C332.206512,315.453186 330.645325,318.267639 329.043457,321.057770 
	C329.043488,321.057770 329.000885,321.000458 328.658997,321.004547 
	C324.074219,322.062012 321.952667,325.019440 321.066864,329.086060 
	C321.066864,329.086060 321.005402,329.000458 320.673645,329.012634 
	C318.952820,329.806946 317.374359,330.373901 316.204071,331.404449 
	C304.535187,341.680023 290.611084,347.961151 275.924530,351.732483 
	C261.994659,355.309570 247.511780,355.560181 233.205475,352.314026 
	C231.604614,351.950775 229.757355,352.673523 228.024368,352.892639 
z"/>
<path fill="#0F0F0F" opacity="1.000000" stroke="none" 
	d="
M147.410507,257.157623 
	C148.138443,248.073456 148.866394,238.989273 149.592865,229.923508 
	C154.419174,228.443878 157.560699,228.957748 158.909973,234.234787 
	C159.870834,237.992691 161.678116,241.534164 163.539734,246.271790 
	C165.318237,241.627808 167.044022,238.191284 167.929367,234.550385 
	C169.152771,229.519348 172.054596,228.328064 177.308304,229.825516 
	C178.135498,239.187469 178.988388,248.840088 179.866348,258.776520 
	C177.505692,258.776520 175.578766,258.776520 173.249176,258.776520 
	C172.786301,253.877441 172.323990,248.984344 171.861679,244.091263 
	C171.573944,243.969147 171.286194,243.847046 170.998444,243.724930 
	C169.644928,247.403824 168.458923,251.157715 166.860641,254.727005 
	C166.159897,256.291870 164.617844,257.480011 163.457825,258.839233 
	C162.317566,257.484222 160.794739,256.296173 160.115417,254.739960 
	C158.629852,251.336655 157.572571,247.746368 155.166763,244.503906 
	C154.711624,249.153885 154.256485,253.803864 153.746933,259.009735 
	C152.052704,259.009735 150.451950,259.009735 148.420715,258.676758 
	C147.796997,257.948364 147.603745,257.553009 147.410507,257.157623 
z"/>
<path fill="#EE9373" opacity="1.000000" stroke="none" 
	d="
M329.374817,320.992432 
	C330.645325,318.267639 332.206512,315.453186 333.857483,312.692474 
	C337.306702,306.924713 340.803375,301.185333 344.996429,294.250275 
	C338.125000,294.250275 332.290039,293.471771 326.850525,294.599915 
	C324.371063,295.114166 322.352081,299.201416 320.673126,301.997620 
	C311.501434,317.272552 298.823364,328.536072 283.275085,337.212158 
	C269.620178,344.831726 254.886261,346.717834 239.941406,346.754211 
	C226.742722,346.786346 213.480377,345.174988 201.738480,337.912445 
	C200.703552,337.272339 199.321442,337.193512 198.100586,336.854004 
	C197.869843,337.370697 197.639099,337.887360 197.408340,338.404053 
	C204.092697,341.610626 210.775925,344.819550 217.461899,348.022736 
	C220.264328,349.365356 223.072586,350.695831 225.962997,352.357208 
	C209.585251,348.584290 195.209534,340.645508 182.758896,329.162811 
	C181.904724,328.375031 181.042847,327.595673 180.197937,326.236389 
	C181.138626,325.434174 182.065933,325.207916 182.993256,324.981689 
	C182.993256,324.981689 183.006454,324.991791 183.143951,325.224670 
	C183.597504,325.595703 183.913559,325.733887 184.229614,325.872101 
	C195.228821,333.143005 206.473206,339.964691 219.615067,342.640289 
	C254.046173,349.650360 283.962555,341.357849 308.120636,315.392303 
	C313.478973,309.633026 317.510101,302.555115 321.619446,295.762024 
	C323.105011,293.306213 324.290039,291.957062 327.216400,292.023651 
	C333.631683,292.169647 340.052612,292.068878 347.343567,292.068878 
	C343.137146,303.539551 337.497711,312.874268 329.374817,320.992432 
z"/>
<path fill="#0C0C0C" opacity="1.000000" stroke="none" 
	d="
M114.011856,258.779999 
	C109.870651,259.846375 107.213104,258.315765 105.204735,254.520645 
	C102.999611,250.353714 100.214447,246.493729 96.684692,242.790771 
	C96.684692,247.972260 96.684692,253.153748 96.684692,258.673828 
	C94.136467,258.673828 92.080177,258.673828 89.835754,258.673828 
	C89.835754,249.045914 89.835754,239.449371 89.835754,229.927582 
	C94.301979,228.140457 97.062340,229.607040 99.236046,233.566406 
	C101.592010,237.857727 104.474670,241.859879 107.990814,245.763596 
	C107.990814,240.570847 107.990814,235.378113 107.990814,229.735840 
	C110.479218,229.735840 112.492104,229.735840 114.988998,229.735840 
	C114.988998,238.856339 114.988998,247.969757 114.738113,257.629822 
	C114.265465,258.327759 114.107010,258.528961 114.011856,258.779999 
z"/>
<path fill="#131313" opacity="1.000000" stroke="none" 
	d="
M306.789246,229.936707 
	C311.102997,228.405609 313.905518,229.539536 315.988495,233.474991 
	C318.305725,237.852905 321.240295,241.904053 324.791779,247.490692 
	C324.791779,240.596207 324.791779,235.164337 324.791779,229.498779 
	C327.382263,229.498779 329.282104,229.498779 331.533020,229.498779 
	C331.533020,239.207535 331.533020,248.766907 331.533020,258.670197 
	C327.698669,259.488129 324.557709,259.579498 322.318481,255.056152 
	C320.189819,250.755997 317.062805,246.950043 313.262573,243.414352 
	C313.262573,248.427170 313.262573,253.440002 313.262573,258.735107 
	C310.845490,258.735107 308.811157,258.735107 306.535339,258.735107 
	C306.535339,249.136292 306.535339,239.706146 306.789246,229.936707 
z"/>
<path fill="#111111" opacity="1.000000" stroke="none" 
	d="
M275.759521,253.119812 
	C271.811218,245.710144 272.261078,239.113876 276.852203,233.835129 
	C280.653229,229.464813 287.169312,227.710648 292.714203,229.565018 
	C298.849335,231.616791 302.809265,237.212097 302.888611,243.941177 
	C302.967957,250.669647 299.091492,256.582886 293.202271,258.716888 
	C287.038239,260.950470 280.775238,259.031189 275.759521,253.119812 
M282.678223,250.829803 
	C287.899841,254.184753 292.856842,253.435120 294.709198,248.687958 
	C296.292419,244.630478 296.531464,240.071320 292.707764,237.331558 
	C290.723480,235.909760 286.863281,235.484070 284.601868,236.421295 
	C280.380676,238.170792 279.906677,242.428925 280.779724,246.623001 
	C281.039307,247.870010 281.703674,249.032745 282.678223,250.829803 
z"/>
<path fill="#0F0F0F" opacity="1.000000" stroke="none" 
	d="
M50.750900,256.310211 
	C45.006542,250.836853 43.906216,244.538437 46.741619,237.793930 
	C49.116299,232.145355 53.671364,229.004822 60.001419,228.896164 
	C66.116806,228.791199 71.623932,232.186890 73.829147,237.717041 
	C76.313438,243.947052 75.620590,249.826111 71.029350,254.924927 
	C67.185509,259.193665 60.469307,260.725525 54.972916,258.659302 
	C53.584946,258.137543 52.325020,257.275146 50.750900,256.310211 
M52.867912,241.980011 
	C52.673454,248.980270 54.394173,252.131210 58.793072,252.830002 
	C63.026375,253.502487 66.324913,251.402206 67.433388,247.328445 
	C68.781494,242.373993 66.846481,237.263168 63.092415,235.862808 
	C58.766068,234.248978 55.611809,235.904266 52.867912,241.980011 
z"/>
<path fill="#111111" opacity="1.000000" stroke="none" 
	d="
M368.953003,259.187897 
	C363.846954,258.017914 361.394318,254.742508 361.175812,250.228073 
	C360.847961,243.455109 361.090546,236.654572 361.090546,229.556473 
	C363.277130,229.556473 365.189331,229.556473 367.911743,229.556473 
	C367.911743,235.152481 367.939117,240.750259 367.901184,246.347595 
	C367.879425,249.562134 368.189850,252.571884 372.339142,252.751083 
	C376.805023,252.943954 377.331177,249.873596 377.310974,246.409348 
	C377.279144,240.944824 377.302490,235.479980 377.302490,229.635651 
	C379.684845,229.635651 381.727142,229.635651 383.987976,229.635651 
	C383.987976,236.666855 384.319336,243.645218 383.894165,250.577179 
	C383.474823,257.413910 379.208374,259.728607 368.953003,259.187897 
z"/>
<path fill="#0F0F0F" opacity="1.000000" stroke="none" 
	d="
M199.171936,242.995026 
	C203.364838,245.268448 204.790024,248.622162 203.837540,252.805618 
	C202.898392,256.930511 199.679810,258.683899 195.710754,258.872925 
	C191.746628,259.061707 187.766510,258.914337 183.431412,258.914337 
	C183.431412,249.136475 183.431412,239.569443 183.431412,229.356689 
	C186.633209,229.356689 189.913849,229.145920 193.158493,229.398148 
	C201.321487,230.032715 203.806885,235.634857 199.171936,242.995026 
M195.576279,247.505096 
	C193.860580,247.217468 192.144897,246.929840 190.196198,246.603149 
	C190.196198,249.255493 190.196198,251.447937 190.196198,253.635635 
	C196.614120,253.673065 197.381760,252.920578 195.576279,247.505096 
M189.870239,236.888580 
	C189.989044,238.247910 190.107834,239.607224 190.362823,242.525223 
	C192.504013,240.472244 194.006409,239.541473 194.650055,238.198975 
	C194.970688,237.530212 193.968704,235.626068 193.100250,235.174423 
	C192.375961,234.797760 190.974060,235.724045 189.870239,236.888580 
z"/>
<path fill="#111111" opacity="1.000000" stroke="none" 
	d="
M147.013519,257.115540 
	C147.603745,257.553009 147.796997,257.948364 147.996277,258.573853 
	C143.989655,258.796753 139.012039,260.964874 137.935684,254.338379 
	C133.837830,254.391327 129.739960,254.444244 125.642105,254.497162 
	C124.976974,259.737762 121.363625,259.438507 116.919281,258.692078 
	C120.685318,249.311172 124.308426,240.015030 128.255814,230.858704 
	C128.666214,229.906769 131.070007,229.255310 132.423019,229.431427 
	C133.686508,229.595886 135.337021,230.799332 135.863068,231.973099 
	C139.585297,240.278152 143.061722,248.693344 147.013519,257.115540 
M130.607498,247.174896 
	C131.980621,247.084625 133.353745,246.994354 135.228256,246.871124 
	C134.071442,243.989990 133.147614,241.689148 132.223801,239.388306 
	C131.754959,239.450195 131.286133,239.512070 130.817307,239.573944 
	C130.467606,242.086304 130.117889,244.598663 130.607498,247.174896 
z"/>
<path fill="#101010" opacity="1.000000" stroke="none" 
	d="
M216.315582,230.066101 
	C220.844742,228.111954 223.191620,229.786285 224.733765,233.953995 
	C227.780045,242.186676 231.159760,250.295975 234.517273,258.747498 
	C230.439941,259.193237 226.863541,260.107056 225.566681,254.559662 
	C224.970551,252.009613 213.881058,252.306534 213.357407,254.874634 
	C212.217194,260.466400 208.587494,259.066650 204.605362,258.681549 
	C208.508057,249.049225 212.293167,239.707077 216.315582,230.066101 
M218.100494,242.056564 
	C217.606384,243.566132 217.112289,245.075684 216.497681,246.953384 
	C218.754135,246.953384 220.488068,246.953384 222.873337,246.953384 
	C221.747116,244.140915 220.790787,241.752731 219.644089,238.889114 
	C218.945633,240.176132 218.632645,240.752899 218.100494,242.056564 
z"/>
<path fill="#131313" opacity="1.000000" stroke="none" 
	d="
M260.363220,235.772797 
	C254.221146,237.684555 251.733688,241.589157 253.125259,246.559601 
	C254.674210,252.092133 259.301758,253.714020 268.457825,251.724609 
	C269.248291,253.184296 270.090240,254.739105 270.917908,256.267487 
	C265.007629,261.072113 255.555649,260.406281 249.987305,254.913208 
	C244.314163,249.316772 243.914627,241.474747 248.663773,235.012100 
	C253.387711,228.583740 265.033752,226.754776 270.849945,231.728592 
	C270.192719,233.231293 269.487213,234.844376 268.772400,236.478821 
	C265.962555,236.206070 263.368347,235.954254 260.363220,235.772797 
z"/>
<path fill="#131313" opacity="1.000000" stroke="none" 
	d="
M355.634460,233.948761 
	C354.628296,237.285828 352.694092,235.772888 350.806854,235.621307 
	C348.913452,235.469254 346.946838,236.228210 345.012329,236.587921 
	C346.230560,238.045517 347.158417,240.080414 348.715790,240.863892 
	C356.783691,244.922546 359.071991,248.303848 356.903473,253.848145 
	C354.992859,258.733063 347.669342,260.945374 340.867096,258.692444 
	C334.842682,256.697144 334.608215,255.840302 338.686218,250.724091 
	C341.298004,251.537140 343.869202,252.634171 346.542633,253.017044 
	C347.561432,253.162949 349.178467,251.885452 349.802521,250.830551 
	C350.098755,250.329727 348.934692,248.511444 348.024933,247.851059 
	C346.433624,246.695953 344.484985,246.048416 342.763031,245.054810 
	C339.102966,242.942902 336.993317,239.909454 338.283417,235.569626 
	C339.558075,231.281769 342.768341,228.986435 347.170349,228.957413 
	C349.589325,228.941467 352.101532,229.543655 354.386810,230.375244 
	C355.149139,230.652634 355.337128,232.508270 355.634460,233.948761 
z"/>
<path fill="#0E0E0E" opacity="1.000000" stroke="none" 
	d="
M414.185394,229.280304 
	C418.961945,229.280304 423.266022,229.280304 428.125580,229.280304 
	C428.221954,231.209061 428.308167,232.934341 428.408417,234.940109 
	C426.052887,235.165833 423.977844,235.364685 421.475616,235.604462 
	C421.475616,243.279739 421.475616,250.843445 421.475616,258.711914 
	C418.990173,258.711914 416.944031,258.711914 414.480957,258.711914 
	C414.480957,250.993164 414.480957,243.419220 414.480957,235.587875 
	C412.165161,235.398041 410.234344,235.239761 407.803009,235.040451 
	C407.707916,233.338516 407.612671,231.634125 407.481110,229.280289 
	C409.859680,229.280289 411.786316,229.280289 414.185394,229.280304 
z"/>
<path fill="#0C0C0C" opacity="1.000000" stroke="none" 
	d="
M388.676758,231.712570 
	C390.578491,230.383240 392.483704,229.487411 395.272888,228.175949 
	C395.272888,237.223236 395.272888,244.806244 395.272888,252.869385 
	C398.779358,252.869385 401.854797,252.869385 405.293152,252.869385 
	C405.293152,255.052612 405.293152,256.755585 405.293152,258.742981 
	C399.958649,258.742981 394.702606,258.742981 388.680267,258.742981 
	C388.680267,249.905075 388.680267,241.025558 388.676758,231.712570 
z"/>
<path fill="#EE9372" opacity="1.000000" stroke="none" 
	d="
M304.045288,165.516891 
	C298.172760,167.017151 294.953339,161.227478 289.797943,160.132095 
	C280.973602,158.257172 272.286560,154.744644 263.421478,154.295273 
	C251.429184,153.687424 239.234695,154.664001 227.302368,156.266739 
	C221.107605,157.098831 215.038605,160.258926 209.363068,163.228043 
	C201.503601,167.339661 194.068222,172.261932 186.086853,176.749176 
	C192.706924,168.768021 201.760941,163.806366 211.219650,159.865540 
	C242.158524,146.975372 272.613800,148.439789 302.329956,164.042862 
	C302.905151,164.344864 303.390900,164.817230 304.045288,165.516891 
z"/>
<path fill="#EC9373" opacity="1.000000" stroke="none" 
	d="
M191.312775,177.735107 
	C196.380600,171.113815 204.373093,168.450562 211.929947,166.549667 
	C222.398880,163.916260 233.411865,162.253128 244.186493,162.280731 
	C265.314972,162.334808 284.332611,169.476303 300.615540,183.239273 
	C301.580902,184.055222 302.162903,185.324677 302.928497,186.737274 
	C294.808136,182.032776 287.066162,176.168594 278.479034,172.079163 
	C259.214050,162.904678 238.823166,161.289322 218.308456,167.021774 
	C209.147629,169.581573 200.533066,174.096359 191.312775,177.735107 
z"/>
<path fill="#EE9373" opacity="1.000000" stroke="none" 
	d="
M228.312347,353.127258 
	C229.757355,352.673523 231.604614,351.950775 233.205475,352.314026 
	C247.511780,355.560181 261.994659,355.309570 275.924530,351.732483 
	C290.611084,347.961151 304.535187,341.680023 316.204071,331.404449 
	C317.374359,330.373901 318.952820,329.806946 320.713440,329.047333 
	C315.732422,333.396240 310.814545,338.459686 304.950287,341.918549 
	C282.281433,355.289124 257.793304,359.217743 231.918365,354.435242 
	C230.784943,354.225739 229.705124,353.726257 228.312347,353.127258 
z"/>
<path fill="#EE9372" opacity="1.000000" stroke="none" 
	d="
M338.411133,208.857666 
	C341.447693,206.931717 339.667725,204.168579 338.518585,202.428589 
	C334.824371,196.834930 331.242767,190.965363 326.536285,186.291031 
	C320.148407,179.946716 312.748108,174.624176 305.821991,168.815735 
	C305.116364,168.223984 304.684204,167.306152 304.146210,166.174835 
	C310.955719,170.693817 318.575134,174.769028 324.317535,180.670609 
	C331.147736,187.690170 336.398224,196.254547 342.244873,204.214478 
	C343.070526,205.338623 343.396118,206.830109 344.296173,208.965210 
	C341.975464,208.965210 340.394684,208.965210 338.411133,208.857666 
z"/>
<path fill="#404040" opacity="1.000000" stroke="none" 
	d="
M160.275558,273.578003 
	C162.009949,273.611359 163.616669,273.273041 164.129303,273.165100 
	C164.407440,271.135101 164.602158,269.713898 164.796890,268.292664 
	C165.322601,268.320435 165.848312,268.348236 166.374023,268.376007 
	C166.374023,271.443756 166.374023,274.511505 166.374023,277.579224 
	C166.681412,277.465088 166.988785,277.350952 167.296173,277.236786 
	C166.781311,276.223755 166.266434,275.210724 165.264496,273.239319 
	C163.810516,276.378052 162.907150,278.328217 161.679520,280.978302 
	C160.265305,279.106598 159.440170,278.014557 158.498154,276.767822 
	C157.940155,277.937225 157.439819,278.985809 156.838196,280.246643 
	C156.145752,279.697052 155.508423,279.437836 155.486969,279.135010 
	C155.323334,276.823273 155.092560,274.488403 155.272110,272.191193 
	C155.372925,270.901367 156.213928,269.669373 156.721466,268.411346 
	C157.677368,269.371277 158.708649,270.270325 159.555313,271.318512 
	C159.940887,271.795898 159.961639,272.567932 160.275558,273.578003 
z"/>
<path fill="#2F2F2F" opacity="1.000000" stroke="none" 
	d="
M287.054779,277.444031 
	C284.323700,278.830811 281.672638,279.835297 278.310486,281.109192 
	C278.310486,276.164459 278.310486,272.615814 278.310486,269.100006 
	C284.528168,267.719910 284.528168,267.719910 287.054779,277.444031 
z"/>
<path fill="#EE9372" opacity="1.000000" stroke="none" 
	d="
M185.396484,176.744110 
	C185.603348,177.568802 185.473419,178.451797 185.283249,179.744156 
	C186.547348,179.503113 187.540253,179.313797 188.880661,179.123383 
	C184.221848,183.545914 179.215530,187.969528 173.587219,192.694687 
	C172.103638,192.965561 171.242081,192.934906 170.380508,192.904236 
	C175.273560,187.536957 180.166626,182.169678 185.396484,176.744110 
z"/>
<path fill="#2F2F2F" opacity="1.000000" stroke="none" 
	d="
M262.124298,277.090790 
	C260.857239,277.998169 259.698853,279.374695 258.296844,279.699432 
	C256.348938,280.150574 254.218353,279.812897 252.879074,279.812897 
	C252.483780,276.762177 252.011597,274.614380 252.005051,272.465179 
	C252.001526,271.312897 252.608398,269.312622 253.270599,269.163483 
	C255.238922,268.720123 257.371185,269.004578 259.439362,269.004578 
	C259.455597,269.475739 259.471802,269.946869 259.488037,270.418030 
	C257.836365,270.714050 256.184692,271.010101 254.747055,271.267761 
	C257.005951,273.491516 259.041412,275.495361 261.566223,277.383972 
	C262.055511,277.268738 262.124298,277.090790 262.124298,277.090790 
M255.176224,275.407623 
	C255.090714,276.140411 255.005203,276.873169 254.919678,277.605957 
	C255.644333,277.537750 256.368988,277.469574 257.093658,277.401367 
	C256.819153,276.816437 256.544647,276.231476 255.176224,275.407623 
z"/>
<path fill="#404040" opacity="1.000000" stroke="none" 
	d="
M320.213043,279.305725 
	C319.820007,275.964111 319.639557,272.797668 319.460602,269.657135 
	C311.502991,270.066528 316.326141,277.203003 312.444824,281.190796 
	C312.223877,278.002777 312.383484,275.826141 311.839844,273.842194 
	C311.383636,272.177307 310.107361,270.737122 308.630524,268.247101 
	C313.104431,268.576752 317.188934,268.877716 320.564575,269.126434 
	C320.564575,272.244446 320.557587,275.542542 320.575958,278.840515 
	C320.577698,279.152649 320.738647,279.463898 320.825684,279.775574 
	C320.692352,279.677338 320.558990,279.579132 320.213043,279.305725 
z"/>
<path fill="#333333" opacity="1.000000" stroke="none" 
	d="
M334.669556,278.193298 
	C336.403412,277.766724 338.193115,277.633820 340.271271,277.479492 
	C339.578613,274.090088 331.399109,274.886292 335.654572,269.538696 
	C336.605286,268.344025 339.846924,268.972504 342.033844,268.761597 
	C342.057037,269.402679 342.080231,270.043762 342.103455,270.684814 
	C340.497070,270.760437 338.890656,270.836060 336.734985,270.937531 
	C338.465240,274.075165 345.934296,273.340546 341.908112,278.734039 
	C341.090851,279.828857 337.199554,278.628998 334.669556,278.193298 
z"/>
<path fill="#353535" opacity="1.000000" stroke="none" 
	d="
M220.131073,268.479706 
	C221.077972,269.081116 221.702484,269.607391 222.981003,270.684814 
	C220.395142,270.842194 218.772568,270.940948 217.646271,271.009521 
	C219.436600,273.175018 221.178940,275.282440 222.921265,277.389893 
	C221.719711,278.318817 220.581253,279.888947 219.300705,280.014954 
	C217.686646,280.173737 215.956573,279.153351 214.276550,278.641724 
	C214.450592,278.131195 214.624634,277.620697 214.798676,277.110199 
	C216.526840,277.358704 218.255020,277.607239 219.938065,277.849274 
	C218.040375,275.154144 216.401764,272.826996 214.763168,270.499817 
	C216.445007,269.801392 218.126846,269.102997 220.131073,268.479706 
z"/>
<path fill="#292929" opacity="1.000000" stroke="none" 
	d="
M211.670013,274.242737 
	C211.778595,276.122772 211.945145,279.047943 211.338730,279.218018 
	C209.229309,279.809875 206.851959,279.446747 205.575409,279.446747 
	C205.008057,276.586823 204.426895,274.771515 204.360092,272.937500 
	C204.313797,271.667084 204.736053,269.423431 205.367416,269.263153 
	C207.290192,268.775055 209.415833,269.086151 211.462509,269.086151 
	C211.461472,269.640686 211.460434,270.195221 211.459396,270.749756 
	C209.678802,270.991547 207.898193,271.233337 204.736420,271.662659 
	C207.858459,272.773712 209.616028,273.399200 211.670013,274.242737 
M206.477203,277.052643 
	C207.576004,277.266968 208.674820,277.481293 209.773636,277.695618 
	C209.836273,277.138153 209.898926,276.580719 209.961578,276.023285 
	C208.747131,276.023285 207.532669,276.023285 206.477203,277.052643 
z"/>
<path fill="#333333" opacity="1.000000" stroke="none" 
	d="
M262.099579,277.533112 
	C262.124298,277.090790 262.055511,277.268738 262.042175,277.310974 
	C262.601898,277.212738 263.175018,277.072266 264.242035,277.255096 
	C265.728821,277.445557 266.721649,277.312775 267.714508,277.179932 
	C266.983459,276.600861 266.252411,276.021790 265.521362,275.442749 
	C263.237946,274.274811 260.831818,273.056793 262.532379,269.885071 
	C263.625061,267.847076 266.651917,267.999207 270.369873,270.499969 
	C268.089996,270.770630 266.447113,270.965668 263.991821,271.257141 
	C266.980896,273.674469 273.028473,273.884644 269.433746,278.870880 
	C267.694550,281.283325 264.193817,281.215149 262.099579,277.533112 
z"/>
<path fill="#292929" opacity="1.000000" stroke="none" 
	d="
M245.776718,280.079803 
	C242.017792,280.348938 239.529877,278.910767 239.604385,275.500122 
	C239.652313,273.307037 240.687607,270.647919 242.215408,269.154022 
	C243.161240,268.229187 246.700623,268.345703 247.581039,269.330719 
	C249.014267,270.934265 249.856171,273.668732 249.727631,275.854156 
	C249.641922,277.311523 247.437653,278.644287 245.776718,280.079803 
M242.299042,271.843506 
	C242.645554,273.781891 242.878967,275.756653 243.475967,277.614563 
	C243.554138,277.857849 246.170197,277.864166 246.445663,277.352692 
	C247.160172,276.026031 247.976105,273.816711 247.359344,272.946747 
	C246.582977,271.851746 244.423340,271.737457 242.299042,271.843506 
z"/>
<path fill="#2F2F2F" opacity="1.000000" stroke="none" 
	d="
M236.540085,274.842590 
	C234.076492,276.550873 231.904999,278.012024 229.478165,279.644989 
	C229.478165,276.250946 229.478165,272.654083 229.478165,269.059540 
	C236.219955,267.621399 237.987869,268.964447 236.540085,274.842590 
z"/>
<path fill="#1B1B1B" opacity="1.000000" stroke="none" 
	d="
M84.164062,235.422668 
	C83.504654,237.945999 82.925804,240.076706 82.346947,242.207413 
	C81.619461,242.210068 80.891975,242.212708 80.164490,242.215363 
	C79.759514,238.363373 79.221123,234.515488 79.102318,230.654694 
	C79.085693,230.114151 81.124672,229.085083 82.217628,229.077499 
	C83.014153,229.071991 84.276489,230.252670 84.510132,231.124542 
	C84.829681,232.317017 84.370178,233.718262 84.164062,235.422668 
z"/>
<path fill="#499FAF" opacity="1.000000" stroke="none" 
	d="
M312.707611,149.306198 
	C317.931610,153.691971 323.155609,158.077744 328.379608,162.463501 
	C328.191132,162.717529 328.002686,162.971558 327.814209,163.225571 
	C322.101135,159.562653 316.388062,155.899719 310.522583,151.927094 
	C310.370209,151.617386 310.465363,151.516724 310.758575,151.626648 
	C311.541626,150.989960 312.031494,150.243362 312.568176,149.449371 
	C312.614990,149.401993 312.707611,149.306198 312.707611,149.306198 
z"/>
<path fill="#333333" opacity="1.000000" stroke="none" 
	d="
M185.063950,268.858063 
	C180.906219,269.836945 179.666077,272.585602 180.138107,276.592468 
	C180.274689,277.751923 179.722336,278.992554 179.269562,281.296295 
	C176.083389,276.883453 180.983566,271.123657 173.753647,269.660980 
	C174.138443,269.172729 174.523239,268.684479 174.908051,268.196228 
	C177.965454,268.617920 181.022873,269.039581 184.555344,269.249512 
	C185.030396,269.037781 185.063950,268.858063 185.063950,268.858063 
z"/>
<path fill="#1B1B1B" opacity="1.000000" stroke="none" 
	d="
M194.942368,275.009583 
	C194.945435,272.731476 194.945435,270.921234 194.945435,269.001709 
	C197.595062,269.001709 200.011398,269.001709 202.427719,269.001709 
	C202.457169,269.328644 202.486618,269.655609 202.516068,269.982544 
	C200.882034,270.348663 199.247986,270.714752 197.441040,271.119598 
	C197.441040,273.288727 197.441040,275.367676 197.441040,277.652802 
	C199.159012,277.924408 200.834122,278.189209 202.509232,278.454041 
	C202.525558,278.845337 202.541901,279.236664 202.558228,279.627960 
	C200.223419,279.800079 197.888596,279.972198 195.199188,280.170471 
	C195.099075,278.362793 195.019196,276.920135 194.942368,275.009583 
z"/>
<path fill="#EE9372" opacity="1.000000" stroke="none" 
	d="
M305.994019,190.364746 
	C311.427338,190.111298 312.376251,195.521561 315.383881,198.424698 
	C318.116760,201.062607 319.789612,204.798645 321.994720,208.373749 
	C320.748535,208.044571 319.024536,207.721970 318.195831,206.684326 
	C314.022400,201.458603 310.082581,196.046326 305.994019,190.364746 
z"/>
<path fill="#E8A189" opacity="1.000000" stroke="none" 
	d="
M170.134933,193.080521 
	C171.242081,192.934906 172.103638,192.965561 173.390778,192.980652 
	C169.976761,198.346542 166.137146,203.728027 162.297546,209.109512 
	C161.847534,208.821472 161.397537,208.533432 160.947540,208.245392 
	C162.795044,202.648041 166.194000,197.873795 170.134933,193.080521 
z"/>
<path fill="#0F0F0F" opacity="1.000000" stroke="none" 
	d="
M325.055847,276.865967 
	C325.057739,274.085327 325.057739,271.769318 325.057739,269.066589 
	C327.421112,269.066589 329.751770,269.066589 332.082458,269.066589 
	C332.167236,269.353149 332.252014,269.639679 332.336792,269.926239 
	C330.561432,270.502991 328.786102,271.079773 326.016937,271.979401 
	C328.625702,272.765259 330.363281,273.288696 332.625153,273.970032 
	C330.282593,274.974579 328.638458,275.679626 326.994293,276.384705 
	C327.140778,276.789917 327.287262,277.195129 327.433746,277.600342 
	C328.961121,277.887817 330.488525,278.175293 332.406769,278.536346 
	C328.046204,280.961609 326.007721,280.525330 325.055847,276.865967 
z"/>
<path fill="#E8A189" opacity="1.000000" stroke="none" 
	d="
M176.977097,323.028381 
	C172.868851,318.035553 168.760605,313.042725 164.652359,308.049896 
	C165.262802,307.523926 165.873260,306.997955 166.483704,306.471985 
	C170.343826,311.027283 174.203949,315.582581 177.913483,320.621277 
	C177.559799,321.686768 177.356689,322.268921 177.109131,322.895020 
	C177.064682,322.939026 176.977097,323.028381 176.977097,323.028381 
z"/>
<path fill="#353535" opacity="1.000000" stroke="none" 
	d="
M185.131439,269.389221 
	C185.063950,268.858063 185.030396,269.037781 185.011810,269.075378 
	C187.114471,268.044464 188.030670,268.712860 187.950027,271.065369 
	C187.877609,273.178467 187.934784,275.296021 187.934784,277.496368 
	C189.793655,277.903320 191.392365,278.253326 192.991074,278.603333 
	C192.968597,278.930573 192.946106,279.257843 192.923630,279.585083 
	C190.531311,279.585083 188.139008,279.585083 185.198914,279.585083 
	C185.198914,276.422211 185.198914,273.171295 185.131439,269.389221 
z"/>
<path fill="#404040" opacity="1.000000" stroke="none" 
	d="
M140.328293,272.394592 
	C140.497284,270.774872 140.664154,269.581512 140.831024,268.388153 
	C141.435455,268.387634 142.039902,268.387085 142.644348,268.386566 
	C142.783859,271.304382 142.923370,274.222229 143.078751,277.471893 
	C144.608353,277.802032 146.252563,278.156891 147.896790,278.511780 
	C147.899384,278.906128 147.901978,279.300476 147.904572,279.694824 
	C145.561905,279.852783 143.219238,280.010742 140.326172,280.205811 
	C140.326172,277.391174 140.326172,275.106049 140.328293,272.394592 
z"/>
<path fill="#404040" opacity="1.000000" stroke="none" 
	d="
M291.987549,276.776794 
	C291.533173,278.211273 291.075043,279.195679 290.616882,280.180084 
	C290.397888,280.043579 290.178894,279.907043 289.959900,279.770538 
	C289.959900,276.014954 289.959900,272.259399 289.959900,268.503815 
	C290.511475,268.477631 291.063019,268.451416 291.614594,268.425232 
	C291.737640,271.059052 291.860687,273.692902 291.987549,276.776794 
z"/>
<path fill="#0E0E0E" opacity="1.000000" stroke="none" 
	d="
M294.957977,277.799622 
	C294.954834,274.449860 294.954834,271.554779 294.954834,268.659698 
	C295.528900,268.634644 296.102966,268.609558 296.677032,268.584473 
	C296.945679,271.604767 297.214325,274.625031 297.481812,277.651001 
	C299.102234,277.995514 300.723785,278.334381 302.345337,278.673218 
	C302.192047,279.265594 302.038757,279.857941 301.885468,280.450317 
	C299.577362,279.718292 297.269226,278.986298 294.957977,277.799622 
z"/>
<path fill="#404040" opacity="1.000000" stroke="none" 
	d="
M172.928604,278.529144 
	C172.002289,278.840424 170.363251,278.744019 170.355499,278.573395 
	C170.204224,275.249298 170.243210,271.916565 170.243210,268.585602 
	C170.983810,268.529907 171.724396,268.474182 172.464996,268.418457 
	C172.635117,271.641296 172.805237,274.864105 172.928604,278.529144 
z"/>
<path fill="#404040" opacity="1.000000" stroke="none" 
	d="
M305.070160,279.666199 
	C304.782166,275.969238 304.494171,272.272278 304.206177,268.575348 
	C305.090942,268.533691 305.975739,268.492065 306.860504,268.450409 
	C306.901184,271.674011 306.941895,274.897644 306.644684,278.572388 
	C305.894592,279.237762 305.482391,279.451965 305.070160,279.666199 
z"/>
<path fill="#499FAF" opacity="1.000000" stroke="none" 
	d="
M301.447327,147.146729 
	C303.047546,147.285172 304.838654,147.686188 306.984802,148.166702 
	C306.984802,147.420700 306.984802,146.679199 306.975464,145.605438 
	C308.749756,146.448090 310.533417,147.622986 312.512329,149.052032 
	C312.707611,149.306198 312.614990,149.401993 312.273865,149.340637 
	C311.443634,150.025085 310.954498,150.770905 310.465363,151.516724 
	C310.465363,151.516724 310.370209,151.617386 310.322083,151.667145 
	C307.395386,150.281036 304.516815,148.845169 301.447327,147.146729 
z"/>
<path fill="#EE9373" opacity="1.000000" stroke="none" 
	d="
M321.403229,329.033813 
	C321.952667,325.019440 324.074219,322.062012 328.687561,321.026001 
	C326.618561,323.689453 324.179077,326.335510 321.403229,329.033813 
z"/>
<path fill="#E8A189" opacity="1.000000" stroke="none" 
	d="
M182.818512,324.765167 
	C182.065933,325.207916 181.138626,325.434174 180.003464,325.967529 
	C178.941589,325.384857 178.087555,324.495056 177.105316,323.316833 
	C176.977097,323.028381 177.064682,322.939026 177.527328,322.954193 
	C178.843628,322.954315 179.697281,322.939270 180.550934,322.924225 
	C181.248550,323.465698 181.946152,324.007202 182.818512,324.765167 
z"/>
<path fill="#499FAF" opacity="1.000000" stroke="none" 
	d="
M297.282837,145.221130 
	C298.322662,145.382431 299.601654,145.756149 300.976807,146.465530 
	C299.889343,146.345322 298.705658,145.889435 297.282837,145.221130 
z"/>
<path fill="#EE9373" opacity="1.000000" stroke="none" 
	d="
M180.381744,322.655701 
	C179.697281,322.939270 178.843628,322.954315 177.571777,322.910217 
	C177.356689,322.268921 177.559799,321.686768 178.046570,320.934448 
	C178.957672,321.305237 179.585114,321.846222 180.381744,322.655701 
z"/>
<path fill="#EC9373" opacity="1.000000" stroke="none" 
	d="
M302.975586,187.371155 
	C303.588501,187.488968 304.268341,187.910690 304.982300,188.662933 
	C304.358459,188.553986 303.700470,188.114517 302.975586,187.371155 
z"/>
<path fill="#353535" opacity="1.000000" stroke="none" 
	d="
M305.336609,279.805542 
	C305.482391,279.451965 305.894592,279.237762 306.549286,279.017822 
	C306.395538,279.322998 305.999329,279.633942 305.336609,279.805542 
z"/>
<path fill="#111111" opacity="1.000000" stroke="none" 
	d="
M114.288315,258.838501 
	C114.107010,258.528961 114.265465,258.327759 114.663361,258.093933 
	C114.747902,258.306610 114.656334,258.601807 114.288315,258.838501 
z"/>
<path fill="#E8A189" opacity="1.000000" stroke="none" 
	d="
M184.092743,325.645935 
	C183.913559,325.733887 183.597504,325.595703 183.152100,325.226288 
	C183.333801,325.136627 183.644836,325.278198 184.092743,325.645935 
z"/>
<path fill="#F1F1F1" opacity="1.000000" stroke="none" 
	d="
M282.430420,250.531952 
	C281.703674,249.032745 281.039307,247.870010 280.779724,246.623001 
	C279.906677,242.428925 280.380676,238.170792 284.601868,236.421295 
	C286.863281,235.484070 290.723480,235.909760 292.707764,237.331558 
	C296.531464,240.071320 296.292419,244.630478 294.709198,248.687958 
	C292.856842,253.435120 287.899841,254.184753 282.430420,250.531952 
z"/>
<path fill="#F2F2F2" opacity="1.000000" stroke="none" 
	d="
M52.936340,241.568329 
	C55.611809,235.904266 58.766068,234.248978 63.092415,235.862808 
	C66.846481,237.263168 68.781494,242.373993 67.433388,247.328445 
	C66.324913,251.402206 63.026375,253.502487 58.793072,252.830002 
	C54.394173,252.131210 52.673454,248.980270 52.936340,241.568329 
z"/>
<path fill="#EAEAEA" opacity="1.000000" stroke="none" 
	d="
M195.875000,247.801605 
	C197.381760,252.920578 196.614120,253.673065 190.196198,253.635635 
	C190.196198,251.447937 190.196198,249.255493 190.196198,246.603149 
	C192.144897,246.929840 193.860580,247.217468 195.875000,247.801605 
z"/>
<path fill="#E3E3E3" opacity="1.000000" stroke="none" 
	d="
M189.871246,236.480927 
	C190.974060,235.724045 192.375961,234.797760 193.100250,235.174423 
	C193.968704,235.626068 194.970688,237.530212 194.650055,238.198975 
	C194.006409,239.541473 192.504013,240.472244 190.362823,242.525223 
	C190.107834,239.607224 189.989044,238.247910 189.871246,236.480927 
z"/>
<path fill="#E3E3E3" opacity="1.000000" stroke="none" 
	d="
M130.187836,247.142960 
	C130.117889,244.598663 130.467606,242.086304 130.817307,239.573944 
	C131.286133,239.512070 131.754959,239.450195 132.223801,239.388306 
	C133.147614,241.689148 134.071442,243.989990 135.228256,246.871124 
	C133.353745,246.994354 131.980621,247.084625 130.187836,247.142960 
z"/>
<path fill="#E3E3E3" opacity="1.000000" stroke="none" 
	d="
M218.210068,241.693115 
	C218.632645,240.752899 218.945633,240.176132 219.644089,238.889114 
	C220.790787,241.752731 221.747116,244.140915 222.873337,246.953384 
	C220.488068,246.953384 218.754135,246.953384 216.497681,246.953384 
	C217.112289,245.075684 217.606384,243.566132 218.210068,241.693115 
z"/>
<path fill="#FEFEFE" opacity="1.000000" stroke="none" 
	d="
M255.723175,275.527100 
	C256.544647,276.231476 256.819153,276.816437 257.093658,277.401367 
	C256.368988,277.469574 255.644333,277.537750 254.919678,277.605957 
	C255.005203,276.873169 255.090714,276.140411 255.723175,275.527100 
z"/>
<path fill="#FEFEFE" opacity="1.000000" stroke="none" 
	d="
M206.397705,276.537964 
	C207.532669,276.023285 208.747131,276.023285 209.961578,276.023285 
	C209.898926,276.580719 209.836273,277.138153 209.773636,277.695618 
	C208.674820,277.481293 207.576004,277.266968 206.397705,276.537964 
z"/>
<path fill="#FEFEFE" opacity="1.000000" stroke="none" 
	d="
M265.212952,275.832581 
	C266.252411,276.021790 266.983459,276.600861 267.714508,277.179932 
	C266.721649,277.312775 265.728821,277.445557 264.550293,277.317810 
	C264.544647,276.778992 264.724609,276.500732 265.212952,275.832581 
z"/>
<path fill="#E3E3E3" opacity="1.000000" stroke="none" 
	d="
M242.579803,271.521759 
	C244.423340,271.737457 246.582977,271.851746 247.359344,272.946747 
	C247.976105,273.816711 247.160172,276.026031 246.445663,277.352692 
	C246.170197,277.864166 243.554138,277.857849 243.475967,277.614563 
	C242.878967,275.756653 242.645554,273.781891 242.579803,271.521759 
z"/>
<path fill="#0B98B1" opacity="1.000000" stroke="none" 
	d="
M310.758575,151.626648 
	C310.954498,150.770905 311.443634,150.025085 312.227051,149.388016 
	C312.031494,150.243362 311.541626,150.989960 310.758575,151.626648 
z"/>
</svg>