<?xml version="1.0" standalone="no"?>
<!DOCTYPE svg PUBLIC "-//W3C//DTD SVG 20010904//EN"
 "http://www.w3.org/TR/2001/REC-SVG-20010904/DTD/svg10.dtd">
<svg version="1.0" xmlns="http://www.w3.org/2000/svg"
 width="300.000000pt" height="300.000000pt" viewBox="0 0 300.000000 300.000000"
 preserveAspectRatio="xMidYMid meet">
<metadata>
Created by potrace 1.10, written by Peter Selinger 2001-2011
</metadata>
<g transform="translate(0.000000,300.000000) scale(0.100000,-0.100000)"
fill="#fff" stroke="none">
<path d="M1281 2250 c-239 -51 -442 -204 -548 -415 -44 -87 -45 -85 45 -85 79
0 80 0 92 31 40 95 139 213 235 279 133 91 239 124 405 123 108 0 136 -3 205
-26 85 -28 175 -77 222 -121 46 -44 72 -53 33 -11 -79 85 -235 176 -355 210
-70 19 -271 28 -334 15z m94 -40 c-16 -4 -43 -8 -58 -9 -16 0 -35 -8 -44 -16
-8 -8 -19 -13 -24 -10 -5 4 -9 2 -9 -3 0 -6 -20 -16 -45 -23 -24 -7 -42 -15
-40 -17 3 -3 -14 -14 -37 -25 -45 -23 -210 -176 -202 -188 2 -4 -4 -14 -14
-21 -10 -7 -28 -34 -41 -60 -21 -45 -25 -48 -60 -48 -21 0 -40 3 -44 6 -9 9
49 110 87 152 66 76 113 120 157 149 69 48 168 94 229 108 60 14 199 19 145 5z"/>
<path d="M1346 2075 c-73 -20 -164 -68 -231 -122 -62 -50 -160 -174 -153 -194
2 -6 23 15 47 47 72 98 166 164 280 198 81 24 231 21 317 -5 117 -36 235 -125
289 -217 19 -31 21 -32 92 -32 40 0 73 2 73 6 0 12 -81 122 -116 158 -59 59
-163 122 -247 151 -64 21 -93 25 -189 24 -62 0 -135 -7 -162 -14z m282 -20 c9
-2 17 -4 17 -5 0 -1 11 -3 25 -6 65 -11 221 -105 258 -156 7 -9 18 -23 25 -30
7 -7 20 -25 29 -40 15 -23 16 -27 2 -32 -9 -3 -22 -6 -30 -6 -16 0 -84 68 -84
85 -1 12 -108 94 -163 124 -43 24 -168 61 -207 61 -19 0 -22 2 -10 10 13 8 83
5 138 -5z"/>
<path d="M295 1605 c-54 -53 -18 -155 55 -155 44 0 70 16 86 56 37 89 -73 167
-141 99z m99 -31 c17 -45 -1 -84 -39 -84 -28 0 -45 19 -45 50 0 14 5 31 12 38
17 17 65 15 72 -4z"/>
<path d="M469 1623 c-2 -16 3 -58 9 -67 7 -12 20 21 21 52 1 20 -27 34 -30 15z"/>
<path d="M530 1540 c0 -83 2 -90 20 -90 16 0 19 8 22 58 l3 57 33 -57 c23 -39
40 -58 53 -58 17 0 19 8 19 74 0 41 3 81 6 90 5 12 0 16 -21 16 -28 0 -28 0
-21 -55 3 -30 3 -55 -1 -55 -5 0 -21 25 -38 55 -22 42 -35 55 -52 55 -22 0
-23 -3 -23 -90z"/>
<path d="M733 1547 c-18 -45 -33 -86 -33 -90 0 -16 39 -5 45 13 5 15 15 20 40
20 25 0 35 -5 40 -20 5 -16 15 -20 50 -20 l44 0 3 58 3 57 19 -57 c11 -32 25
-58 32 -58 6 0 17 21 24 48 19 70 30 74 30 9 0 -52 2 -57 21 -57 21 0 22 3 15
61 -3 34 -6 75 -6 90 0 24 -4 29 -25 29 -20 0 -27 -7 -38 -46 -7 -25 -17 -46
-21 -47 -5 -1 -15 19 -24 46 -12 37 -19 47 -37 47 -20 0 -23 -7 -31 -87 l-9
-88 -35 87 c-47 118 -63 119 -107 5z m70 -7 c4 -15 0 -20 -14 -20 -12 0 -19 7
-19 18 0 37 23 38 33 2z"/>
<path d="M1090 1540 l0 -90 45 0 c71 0 110 51 64 83 -13 9 -16 17 -10 22 15 8
14 48 -1 63 -7 7 -31 12 -55 12 l-43 0 0 -90z m75 40 c0 -8 -8 -16 -17 -18
-13 -2 -18 3 -18 18 0 15 5 20 18 18 9 -2 17 -10 17 -18z m4 -59 c19 -12 6
-41 -19 -41 -15 0 -20 7 -20 25 0 26 14 31 39 16z"/>
<path d="M1265 1558 c-15 -40 -32 -81 -37 -90 -7 -15 -4 -18 17 -18 18 0 25 5
25 20 0 17 7 20 39 20 30 0 40 -4 44 -20 3 -12 14 -20 26 -20 12 0 21 1 21 3
0 2 -15 41 -34 88 -46 114 -64 117 -101 17z m59 -4 c10 -26 7 -34 -15 -34 -15
0 -19 4 -15 16 3 9 6 20 6 25 0 15 17 10 24 -7z"/>
<path d="M1520 1623 c-28 -10 -50 -48 -50 -85 0 -28 7 -42 31 -62 45 -38 129
-33 114 7 -5 11 -15 14 -39 10 -23 -3 -38 0 -49 12 -37 37 -12 82 48 87 28 2
40 8 40 18 0 16 -65 25 -95 13z"/>
<path d="M1659 1604 c-53 -57 -15 -154 61 -154 82 0 120 100 60 160 -30 30
-90 27 -121 -6z m103 -39 c22 -49 -15 -88 -66 -69 -16 6 -21 48 -10 78 10 27
62 20 76 -9z"/>
<path d="M1830 1540 c0 -83 2 -90 20 -90 16 0 19 8 22 57 l3 58 35 -58 c24
-39 40 -57 55 -57 19 0 20 6 20 90 0 88 -1 90 -24 90 -23 0 -23 -2 -16 -56 8
-67 -2 -65 -42 6 -21 37 -34 50 -50 50 -22 0 -23 -3 -23 -90z"/>
<path d="M2037 1612 c-31 -34 -21 -54 49 -99 27 -17 0 -35 -34 -22 -26 10 -42
5 -42 -15 0 -30 89 -35 115 -6 26 28 13 64 -30 85 -44 20 -41 41 4 37 27 -3
32 0 29 15 -5 26 -68 30 -91 5z"/>
<path d="M2160 1562 c0 -87 16 -112 70 -112 54 0 70 25 70 112 0 61 -2 68 -20
68 -17 0 -19 -8 -22 -67 -3 -65 -4 -68 -28 -68 -24 0 -25 3 -28 68 -3 59 -5
67 -22 67 -18 0 -20 -7 -20 -68z"/>
<path d="M2328 1540 l3 -90 50 0 c42 0 49 3 49 20 0 16 -7 20 -32 20 l-33 0 3
70 c4 68 3 70 -20 70 -23 0 -23 -1 -20 -90z"/>
<path d="M2440 1609 c0 -16 5 -20 20 -16 19 5 20 0 20 -69 0 -67 2 -74 20 -74
18 0 20 7 20 69 0 64 2 70 22 73 13 2 24 11 26 21 3 15 -5 17 -62 17 -61 0
-66 -2 -66 -21z"/>
<path d="M836 1388 c-14 -29 -3 -63 22 -66 12 -2 22 1 22 7 0 6 -6 11 -14 11
-9 0 -16 13 -18 33 -3 24 -6 28 -12 15z"/>
<path d="M890 1360 c0 -22 5 -40 10 -40 6 0 10 18 10 40 0 22 -4 40 -10 40 -5
0 -10 -18 -10 -40z"/>
<path d="M931 1358 c1 -24 4 -34 6 -24 4 15 7 16 13 5 5 -7 11 -11 14 -8 6 6
-22 69 -30 69 -2 0 -3 -19 -3 -42z"/>
<path d="M975 1381 c-6 -21 3 -51 16 -51 5 0 9 16 9 35 0 37 -15 47 -25 16z"/>
<path d="M1040 1390 c0 -5 5 -10 10 -10 6 0 10 -14 10 -32 0 -39 15 -26 23 20
6 29 4 32 -18 32 -14 0 -25 -4 -25 -10z"/>
<path d="M1111 1400 c-2 -3 -3 -21 -4 -40 -2 -29 2 -36 21 -38 12 -2 22 1 22
7 0 6 -6 11 -14 11 -9 0 -16 13 -19 33 -2 17 -5 30 -6 27z"/>
<path d="M1162 1363 c2 -31 7 -39 26 -41 12 -2 22 1 22 7 0 6 -7 11 -15 11 -8
0 -15 5 -15 11 0 5 4 8 9 4 5 -3 12 -1 15 4 4 5 -2 12 -11 14 -17 4 -17 5 0 6
27 2 20 21 -9 21 -23 0 -25 -3 -22 -37z"/>
<path d="M1223 1385 c-3 -9 3 -23 13 -31 18 -15 18 -15 1 -10 -12 4 -17 2 -15
-6 7 -20 37 -21 45 -2 4 11 -1 22 -12 30 -17 13 -17 14 -1 14 9 0 14 5 11 10
-9 15 -35 12 -42 -5z"/>
<path d="M1287 1393 c-13 -13 -7 -30 16 -41 l22 -11 -23 0 c-25 -1 -21 -21 4
-21 24 0 30 31 9 46 -17 13 -17 14 -1 14 9 0 14 5 11 10 -7 11 -28 13 -38 3z"/>
<path d="M1370 1360 c0 -25 4 -39 10 -35 6 4 8 10 5 15 -3 4 5 10 16 13 28 7
21 41 -9 45 -20 3 -22 -1 -22 -38z"/>
<path d="M1441 1386 c-16 -19 -11 -46 12 -60 14 -9 21 -7 32 7 27 37 -16 88
-44 53z m37 -23 c-5 -25 -28 -28 -28 -4 0 12 6 21 16 21 9 0 14 -7 12 -17z"/>
<path d="M1511 1386 c-10 -12 -8 -17 11 -27 l23 -13 -25 -7 c-22 -5 -23 -7 -7
-14 10 -4 24 -2 33 6 14 12 14 15 -6 31 -17 14 -19 18 -6 18 9 0 16 5 16 10 0
15 -26 12 -39 -4z"/>
<path d="M1573 1385 c-3 -9 3 -23 13 -31 17 -14 17 -15 2 -10 -19 6 -25 -9 -8
-19 11 -7 40 11 40 25 0 4 -10 12 -22 18 -18 8 -19 11 -5 11 21 1 23 21 2 21
-9 0 -18 -7 -22 -15z"/>
<path d="M1630 1361 c0 -23 4 -40 9 -37 10 7 9 61 -2 72 -4 4 -7 -12 -7 -35z"/>
<path d="M1660 1365 c0 -39 20 -55 44 -36 21 17 5 65 -22 69 -19 3 -22 -1 -22
-33z"/>
<path d="M1730 1360 c0 -25 4 -39 10 -35 6 3 10 19 10 35 0 16 -4 32 -10 35
-6 4 -10 -10 -10 -35z"/>
<path d="M1760 1360 c0 -36 3 -40 25 -40 14 0 25 5 25 10 0 6 -7 10 -15 10
-10 0 -15 10 -15 30 0 17 -4 30 -10 30 -5 0 -10 -18 -10 -40z"/>
<path d="M1820 1360 c0 -25 4 -39 10 -35 6 3 10 19 10 35 0 16 -4 32 -10 35
-6 4 -10 -10 -10 -35z"/>
<path d="M1850 1390 c0 -5 5 -10 10 -10 6 0 8 -10 4 -24 -3 -13 -1 -27 5 -30
7 -5 11 4 11 23 0 17 5 31 10 31 6 0 10 5 10 10 0 6 -11 10 -25 10 -14 0 -25
-4 -25 -10z"/>
<path d="M1910 1360 c0 -22 5 -40 10 -40 6 0 10 18 10 40 0 22 -4 40 -10 40
-5 0 -10 -18 -10 -40z"/>
<path d="M1947 1393 c-3 -5 -4 -21 -3 -38 1 -23 6 -31 24 -33 12 -2 22 1 22 7
0 6 -8 11 -17 11 -17 1 -17 2 0 14 18 14 18 14 0 19 -16 4 -16 5 0 6 9 0 17 6
17 11 0 12 -37 14 -43 3z"/>
<path d="M2007 1393 c-13 -13 -7 -30 16 -42 l22 -12 -23 5 c-15 3 -22 0 -19
-7 6 -19 36 -20 44 -1 4 11 -1 22 -12 30 -17 13 -17 14 -1 14 9 0 14 5 11 10
-7 11 -28 13 -38 3z"/>
<path d="M706 1228 c23 -75 101 -193 177 -267 93 -91 195 -151 327 -192 62
-20 97 -24 205 -24 136 0 215 16 329 65 72 31 51 33 -35 4 -278 -96 -616 23
-784 275 -25 38 -53 90 -62 115 l-17 46 -74 0 c-71 0 -73 -1 -66 -22z m101
-14 c13 -4 20 -10 17 -15 -3 -5 -1 -9 5 -9 5 0 15 -16 21 -35 6 -19 16 -35 21
-35 5 0 9 -6 9 -13 0 -20 85 -126 133 -167 23 -19 48 -40 54 -47 7 -6 25 -21
39 -32 15 -12 24 -25 19 -29 -4 -4 -10 -1 -12 6 -3 6 -11 12 -19 12 -8 0 -14
5 -14 11 0 5 -4 8 -9 5 -5 -4 -30 10 -55 29 -26 19 -50 35 -55 35 -12 0 -131
132 -151 168 -8 15 -17 29 -20 32 -3 3 -13 22 -22 42 -13 27 -14 38 -5 42 17
6 19 6 44 0z"/>
<path d="M941 1245 c-2 -27 70 -128 138 -195 185 -182 455 -230 688 -121 62
30 163 101 193 138 33 40 68 90 94 136 l27 47 -74 0 -73 0 -17 -38 c-24 -54
-108 -144 -178 -191 -211 -141 -509 -109 -682 73 -33 35 -50 58 -104 142 -6
11 -12 15 -12 9z m1079 -29 c0 -11 -27 -64 -40 -80 -24 -28 -96 -99 -125 -123
-60 -51 -242 -114 -325 -113 -27 1 11 17 55 23 75 12 181 73 261 152 41 40 74
78 74 84 0 24 44 61 72 61 15 0 28 -2 28 -4z"/>
</g>
</svg>
