<?xml version="1.0" standalone="no"?>
<!DOCTYPE svg PUBLIC "-//W3C//DTD SVG 20010904//EN"
 "http://www.w3.org/TR/2001/REC-SVG-20010904/DTD/svg10.dtd">
<svg version="1.0" xmlns="http://www.w3.org/2000/svg"
 width="500.000000pt" height="500.000000pt" viewBox="0 0 500.000000 500.000000"
 preserveAspectRatio="xMidYMid meet">
<metadata>
Created by potrace 1.16, written by Peter Selinger 2001-2019
</metadata>
<g transform="translate(0.000000,500.000000) scale(0.100000,-0.100000)"
fill="#000000" stroke="none">
<path d="M2175 3750 c-143 -25 -217 -47 -327 -99 -36 -17 -68 -31 -72 -31 -4
0 -22 -11 -40 -25 -18 -14 -36 -25 -40 -25 -3 0 -39 -25 -80 -55 -98 -72 -236
-212 -291 -295 -50 -75 -145 -255 -145 -275 0 -9 29 -12 121 -12 115 0 121 1
136 23 8 13 11 29 7 35 -4 7 -3 9 2 6 6 -3 16 9 24 26 59 137 270 365 409 443
19 10 42 25 51 32 9 8 43 25 76 39 32 14 68 29 79 34 222 95 547 104 797 22
46 -15 91 -26 101 -25 10 1 16 -2 13 -6 -3 -5 22 -22 54 -37 33 -16 60 -32 60
-37 0 -4 6 -8 13 -8 6 0 23 -9 37 -21 53 -42 83 -62 76 -51 -8 13 -183 146
-231 175 -42 26 -205 103 -235 111 -14 4 -34 11 -45 15 -11 5 -54 16 -95 26
-85 20 -373 29 -455 15z"/>
<path d="M535 2711 c-64 -26 -104 -111 -85 -180 21 -81 75 -117 160 -109 138
14 179 197 61 275 -35 24 -96 30 -136 14z m113 -79 c45 -60 10 -152 -58 -152
-43 0 -70 31 -70 81 0 22 5 49 11 60 21 40 90 47 117 11z"/>
<path d="M890 2570 l0 -150 30 0 29 0 3 92 3 92 59 -92 c55 -86 60 -92 92 -92
l34 0 0 151 0 150 -32 -3 -33 -3 -3 -90 -3 -90 -59 93 c-53 83 -62 92 -90 92
l-30 0 0 -150z"/>
<path d="M1271 2698 c-5 -13 -32 -79 -60 -147 -28 -69 -51 -126 -51 -128 0 -2
15 -3 34 -3 29 0 36 5 45 30 10 29 12 30 68 30 56 0 59 -1 70 -30 11 -29 13
-30 81 -30 l70 0 9 88 9 87 29 -88 c25 -75 32 -87 50 -85 15 2 26 20 43 68 12
36 25 72 29 80 8 19 22 -48 22 -107 1 -42 1 -43 37 -43 l35 0 -5 43 c-3 23 -8
74 -11 112 -11 136 -14 145 -43 145 -39 0 -45 -8 -73 -85 -14 -38 -30 -69 -34
-68 -5 1 -20 30 -33 65 -29 78 -37 88 -72 88 -32 0 -35 -10 -45 -150 -3 -47
-8 -96 -11 -110 l-6 -25 -16 30 c-8 17 -33 75 -54 130 -22 54 -44 105 -50 112
-17 21 -57 16 -67 -9z"/>
<path d="M1828 2714 c-5 -4 -8 -72 -8 -152 l0 -144 86 3 c77 4 87 6 104 29 27
35 25 76 -6 107 -18 18 -22 29 -15 36 19 19 13 82 -9 102 -20 18 -139 34 -152
19z"/>
<path d="M2151 2702 c-11 -21 -111 -270 -111 -277 0 -3 15 -5 34 -5 29 0 36 5
45 30 9 29 13 30 66 30 53 0 57 -1 66 -30 9 -25 16 -30 45 -30 19 0 34 4 34 8
0 10 -88 229 -106 265 -17 32 -58 37 -73 9z"/>
<path d="M2526 2698 c-141 -82 -83 -278 81 -278 30 0 63 5 73 10 17 9 18 14 8
35 -10 23 -15 25 -58 19 -40 -5 -50 -3 -78 21 -39 32 -43 78 -11 119 19 25 27
27 77 25 48 -2 57 0 70 20 21 31 4 44 -65 48 -47 3 -66 -1 -97 -19z"/>
<path d="M2800 2702 c-41 -20 -80 -83 -80 -130 0 -47 22 -94 59 -125 46 -38
129 -39 178 -1 66 50 80 117 41 194 -26 51 -73 80 -128 80 -19 0 -51 -8 -70
-18z m113 -62 c33 -26 42 -69 23 -114 -26 -62 -106 -63 -132 -1 -18 44 -9 90
24 115 31 25 53 25 85 0z"/>
<path d="M3057 2714 c-4 -4 -7 -72 -7 -151 l0 -143 35 0 35 0 0 93 0 92 60
-92 c57 -88 62 -93 95 -93 l36 0 -3 148 -3 147 -32 3 -32 3 -3 -93 -3 -93 -56
90 c-48 77 -60 90 -85 93 -16 2 -33 0 -37 -4z"/>
<path d="M3399 2691 c-54 -54 -35 -101 60 -153 62 -34 17 -75 -51 -47 -27 11
-32 10 -44 -6 -8 -10 -14 -24 -14 -29 0 -32 146 -50 183 -22 10 8 22 28 27 46
14 48 -9 84 -70 112 -33 15 -50 29 -50 41 0 24 27 33 62 19 26 -10 30 -8 41
15 9 21 8 27 -8 39 -10 8 -39 14 -63 14 -35 0 -49 -6 -73 -29z"/>
<path d="M3602 2595 c3 -125 3 -127 31 -151 31 -27 106 -33 150 -13 38 17 47
51 47 175 l0 115 -32 -3 -33 -3 -5 -109 c-6 -122 -16 -140 -64 -118 -25 11
-25 14 -28 119 l-3 108 -33 3 -34 3 4 -126z"/>
<path d="M3880 2570 l0 -151 83 3 c80 3 82 4 82 28 0 23 -5 25 -50 30 l-50 5
-3 118 -3 117 -29 0 -30 0 0 -150z"/>
<path d="M4070 2691 c0 -26 4 -30 33 -33 l32 -3 3 -117 3 -118 29 0 29 0 3
118 3 117 33 3 c28 3 32 7 32 33 l0 29 -100 0 -100 0 0 -29z"/>
<path d="M1177 2068 c4 -7 9 -21 10 -30 8 -48 143 -276 205 -343 16 -18 35
-41 42 -50 7 -10 18 -15 24 -11 7 4 10 2 6 -7 -3 -8 18 -33 52 -63 32 -27 66
-57 76 -66 10 -10 20 -18 22 -18 2 0 28 -16 57 -36 60 -40 214 -116 269 -132
19 -6 67 -20 105 -31 99 -30 151 -36 315 -36 175 0 233 8 365 50 22 7 60 18
83 24 79 22 37 22 -49 0 -127 -32 -330 -34 -474 -4 -114 24 -273 81 -337 122
-21 12 -40 23 -43 23 -3 0 -41 25 -83 56 -162 118 -305 296 -389 481 l-37 83
-114 0 c-88 0 -111 -3 -105 -12z"/>
</g>
</svg>
