<svg xmlns="http://www.w3.org/2000/svg" version="1.1" width="600px" height="600px" viewBox="0 0 200 200" style="overflow:hidden!important;"><g id="svga-group-wrapper"><g id="svga-group-backs-single"><path id="SvgjsPath7609" d="M0 0h200v200H0V0z" fill="#ecf0f1" stroke-width="none" opacity="1"></path></g><g id="svga-group-humanwrap-move" transform="matrix(1,0,0,1,0,0)"><g id="svga-group-humanwrap"><g id="svga-group-hair-back-move" transform="matrix(1,0,0,1,0,0)"><g id="svga-group-hair-back"><path id="SvgjsPath8115" d="M58.3 149s3.3-12.2 2.6-19.6c-.7-7.4-3.6-40-3.6-40l84.9 3.6s-3.2 22.5-3.2 30.2 0 11.2.6 15.1 1.7 9.6 2.6 13.1c.9 3.5 1 7.7 1 7.7l-84.6-2.6-.3-7.5z" fill="#2a232b" stroke-width="none" opacity="1" stroke="none"></path><path id="SvgjsPath8116" d="M59.1 104.5c.1 10.9 1.2 22.5 1.5 32.7 0 .2.4-1.4.4-1.6.4-8.2-.3-20.2-1.1-31.1-.1-.5-.8-.5-.8 0zm9.3 7.3c.1 6 .9 12 1 18.1.1 6.1-.6 12.1-.8 18.1 0 .4.6.5.7.1 2-11.4 2.1-25-.6-36.3 0-.2-.3-.2-.3 0zm63.4 3.4c0-.2-.2-.3-.3-.1-3.4 8.7-4.1 20.7-.8 29.5.1.2.5.2.4-.1-.5-4.6-1.4-9.2-1.4-13.9 0-5.2 1.1-10.2 2.1-15.4zm8.4-6.9c0-.4-.6 0-.6.4-2.2 8.4-2.2 17.7-.5 26.2 0 .2.1-1 .1-1.2-.6-9 0-16.5 1-25.4zm-2.9 29.6c-.3-.2-.6-.6-.7-1-.1-.2-.5-.3-.6 0-.1.6.1 1.2.5 1.6.3.3 1.1.8 1.5.3.1-.1.1-.2 0-.3 0-.3-.4-.4-.7-.6zm0-5.2c-.2-.3-.6-.5-.9-.8-.3-.3-.6-.7-.8-1.2-.1-.3-.6-.2-.5.1.2.9.9 2.3 1.9 2.3.2.1.4-.2.3-.4zm-5.1 3.3c-.4.6-.5 1.3-.6 1.9-.1.3.4.5.5.2.3-.6.6-1.3.7-2-.1-.2-.4-.3-.6-.1zm-1-5.6c-.4.7-.5 1.4-1 2.1-.2.3.3.6.5.4.5-.6 1-1.5.9-2.3 0-.4-.3-.5-.4-.2zm-4 14c-.3-.3-.6-.7-.6-1.1-.1-.5-.8-.5-.8 0 0 .6.3 1.3.7 1.7.4.4 1.1.9 1.7.7.3-.1.4-.5.1-.7-.3-.3-.7-.3-1.1-.6zm-.1-4.8c.2.1.6-.1.5-.4-.2-.5-.6-.9-.9-1.4-.3-.5-.5-1.1-.7-1.7-.1-.4-.8-.2-.7.2.3 1 .8 2.7 1.8 3.3zm-5.3-2.5c-.4.3-.6.8-.8 1.3-.3.5-.5 1-.8 1.5-.2.4.3.7.6.3.3-.5.6-.9.9-1.4.3-.4.6-.9.7-1.4 0-.3-.3-.5-.6-.3zm-44.5 7.4c-.3-.3-.5-.6-.6-1-.1-.4-.7-.3-.7.1.1.5.2 1 .6 1.4.3.4.8.8 1.3.8.3 0 .4-.4.2-.6-.2-.3-.6-.4-.8-.7zm-.3-4.3c-.5-.5-.9-1.1-1.2-1.8-.2-.4-.8-.1-.6.4.5 1.2 1.5 2.8 2.8 3.3.2.1.5-.2.3-.4-.3-.6-.8-1.1-1.3-1.5zm-4.8-3.5c-.3.6-.5 1.2-.6 1.9-.1.4.5.6.7.2.2-.7.4-1.2.4-1.9 0-.4-.4-.5-.5-.2zm-5.5-1c-.3-.4-.4-.9-.5-1.4-.1-.4-.6-.3-.6.1 0 1.1.5 2.6 1.7 2.9.2.1.4-.2.3-.4-.2-.5-.6-.8-.9-1.2zm.3-5.2c-.3-.5-.5-.9-.7-1.5-.1-.5-.8-.3-.7.2.2 1.1.8 2.6 1.9 3 .3.1.4-.2.3-.4-.2-.5-.6-.9-.8-1.3zm-4.2-3.2c-.2.7-.6 1.3-1.3 1.5-.3.1-.3.6.1.6.5 0 1-.2 1.4-.6.4-.4.5-.9.4-1.4-.1-.4-.5-.4-.6-.1zm-.7-2.5c.3-.5.6-1 .7-1.6 0-.3-.4-.4-.6-.2-.4.3-.6.9-.9 1.3-.2.6.5 1.1.8.5zm2.6-21.2c-.1-.4-.8-.3-.8.1.3 5.4.8 10.7.7 16.1 0 5.4-.7 10.7-.7 16.1 0 .2.3.2.3 0 2.2-10.1 2-22 .5-32.3z" fill="#0c080c" stroke-width="none" opacity="1" stroke="none"></path></g></g><g id="svga-group-humanbody-back"><path id="SvgjsPath7677" d="M77.8 105.9s4.8 37.7 10 55.8c0 0-6.4 8.8-14.5 11.9-28.7 11.2-35 11.2-39.6 15.2-2.4 2.1.2 11.1 1.8 17.2 1.3 5 1.7 13.2 1.7 13.2h132.2s1.6-33-.6-39.8-7.1-2.9-21.9-4.5c-14.8-1.6-28.7-10.3-31-13.2l.3-60-38.4 4.2z" fill="#b2713b" stroke-width="none" opacity="1" stroke="none"></path></g><g id="svga-group-chinshadow-single"><path id="SvgjsPath7673" d="M85.6 152.8c6.6 3.5 10.7 3.5 10.7 3.5s8 0 19.6-9.5l.2-45.2-38.4 4.2c.1.1 3.6 27.7 7.9 47z" fill="#934d13" stroke-width="none" opacity="1" stroke="none"></path></g><g id="svga-group-humanbody-front"><path id="SvgjsPath7678" d="M72.1 183.1s14.6-.2 20.4 2.6c5.8 2.9 12.7 2.4 16.1-1s21.6-7 21.6-7-19.7 1.9-25 4.6c-5.3 2.7-22.3-2.8-33.1.8z" fill="#934d13" stroke-width="none" opacity="1" stroke="none"></path><path id="SvgjsPath7679" d="M74.2 173.2c6.7-1.3 14.7-6.4 14.7-6.4l6.2 5.5c-4.3-7.9-12.7-41.1-12.7-41.1l-.7.7c1.7 10.5 3.9 21.9 6.1 29.7 0 0-6 8.2-13.6 11.6z" fill="#934d13" stroke-width="none" opacity="1" stroke="none"></path><path id="SvgjsPath7680" d="M170.7 188.5c-.1-2.1-.2-4.1-.4-6.2-.1-1-.3-2.1-.6-3.2-.2-.5-.4-1-.6-1.6-.2-.5-.6-1-1-1.5s-.9-.9-1.5-1.1c-.6-.3-1.1-.4-1.7-.6-1.1-.2-2.2-.2-3.2-.2-2.1 0-4.1.1-6.1.1s-4-.1-6-.2-4-.4-6-.7c-1-.2-2-.4-2.9-.6l-1.5-.4c-.5-.1-1-.3-1.4-.4-3.8-1.1-7.6-2.6-11.2-4.4l-1.3-.7-1.3-.7c-.4-.2-.9-.5-1.3-.8s-.9-.5-1.3-.8-.8-.5-1.3-.8l-1.2-.9-.6-.5-.3-.2-.3-.2c-.2-.2-.4-.3-.5-.5l-.2-.3v-44.6l-.1-15v-.6l-.6.1c-6.4.8-12.9 1.5-19.3 2.3l-19.1 2.3v.5l.1.4.1.9.2 1.8c.1 1.2.3 2.3.4 3.5l.9 7c.6 4.7 1.3 9.4 2.1 14 .8 4.7 1.5 9.3 2.5 14 .9 4.5 1.8 9 3 13.5-1.1 1.4-2.3 2.7-3.6 4-1.3 1.3-2.8 2.6-4.3 3.8-1.5 1.1-3.1 2.2-4.8 3l-1.3.6c-.4.2-.9.3-1.3.5l-2.7 1c-7.2 2.7-14.5 5.3-21.8 7.7l-5.5 1.8c-1.8.6-3.7 1.3-5.5 2.2-.4.2-.9.5-1.3.7-.4.3-.9.5-1.3.9l-.6.5c-.2.2-.5.5-.6.8-.3.5-.4 1.1-.5 1.6-.2 1.1-.1 2.1 0 3.1s.3 2 .4 2.9c.4 1.9.8 3.8 1.3 5.7l.8 2.8c.3.9.5 1.8.7 2.8.4 1.9.7 3.8.9 5.7s.4 3.8.5 5.7v.8h133.4v-.8c.2-4.1.4-8.2.5-12.3s.2-8.2.2-12.3c0-1.8-.1-3.8-.1-5.9zm-67.4 30.3H70.2l-16.5-.1-16-.1c-.1-1.8-.2-3.5-.4-5.3-.2-1.9-.4-3.9-.8-5.8-.2-1-.4-1.9-.7-2.9l-.7-2.8c-.5-1.9-.9-3.7-1.2-5.6-.2-.9-.3-1.9-.4-2.8-.1-.9-.1-1.9 0-2.7.1-.4.2-.8.4-1.1.1-.2.2-.3.3-.4l.5-.4c.3-.3.7-.5 1.1-.8.4-.2.8-.5 1.2-.7 1.7-.8 3.5-1.4 5.3-2l5.5-1.8c7.3-2.4 14.6-5 21.8-7.8l2.7-1c.5-.2.9-.3 1.4-.5l1.4-.6c1.8-.9 3.4-2 5-3.2s3-2.5 4.4-3.9 2.7-2.9 3.8-4.5l.2-.3-.1-.3c-1.3-4.5-2.3-9.1-3.3-13.7s-1.9-9.3-2.7-13.9c-.8-4.6-1.6-9.3-2.4-14l-2.2-13.9 19.3-1.8c6.2-.6 12.3-1.2 18.5-1.8l-.2 14.4-.2 15-.3 30v.4l.2.2.6.7.6.6.3.3.3.2.6.5c.4.3.9.6 1.3.9.4.3.9.6 1.3.9.4.3.9.5 1.3.8s.9.5 1.3.8l1.4.8 1.4.7c.5.2.9.5 1.4.7l1.4.7c1 .4 1.9.8 2.9 1.2s1.9.8 2.9 1.1l1.5.5c.5.2 1 .3 1.5.4.5.1 1 .3 1.5.4l1.5.4c1 .3 2 .4 3 .6 2 .4 4.1.6 6.2.8 2.1.2 4.1.2 6.2.2 2.1 0 4.1-.1 6.1-.1s4 .1 5 1.3c.5.6.9 1.4 1.2 2.3.3.9.4 1.9.6 2.8.3 2 .4 4 .5 6s.1 4.1.2 6.1c.1 7.9-.1 15.8-.4 23.7-10.8.1-21.5.1-32.3.2h-33.1z" fill="#843e04" stroke-width="none" opacity="1" stroke="none"></path><path id="SvgjsPath7681" d="M150.7 219.2 147 198l-.4 21.2z" fill="#934d13" stroke-width="none" opacity="1" stroke="none"></path><path id="SvgjsPath7682" d="M47.3 203.5s2.2 11.5 2.9 15.7h3.5l-6.4-15.7z" fill="#934d13" stroke-width="none" opacity="1" stroke="none"></path></g><g id="svga-group-clothes-single"><path id="SvgjsPath7808" d="M72.29 172.58s2.02 7.56 17.38 13.74 41.96-.02 44.23-15.23c0 0 6.36 1.86 14.04 2.24 7.68.37 15.92-.37 18.16.56 2.25.94 5.62 3.18 4.87 13.3-.75 10.11.19 23.22.19 23.22l-23.03 1.5.52 7.9H52.63l-1.87-5.47-15.73-1.12s-.19-7.12-1.31-9.92c-1.12-2.81-3.18-10.3-2.06-14.04s11.24-6.74 17.98-8.99c6.73-2.26 22.65-7.69 22.65-7.69z" fill="#09aac5" stroke-width="none" opacity="1"></path><path id="SvgjsPath7809" d="M171.11 192.7c.04-1.47.1-2.94.22-4.41.11-1.45.23-2.97.22-4.46-.03-1.5-.14-3.02-.5-4.51-.37-1.48-.95-2.99-2.06-4.18-.54-.6-1.2-1.1-1.9-1.47-.66-.39-1.56-.65-2.31-.73-1.54-.2-3.02-.22-4.51-.24-2.97-.03-5.91.01-8.85-.07-5.85-.05-11.69-.84-17.28-2.38l-.98-.27-.15.99c-.45 2.88-1.86 5.58-3.91 7.73-2.04 2.17-4.6 3.87-7.33 5.2-5.49 2.64-11.64 3.88-17.75 4.09-3.06.09-6.14-.12-9.15-.71-1.5-.3-2.98-.7-4.42-1.21-.72-.25-1.43-.58-2.14-.86-.72-.29-1.43-.59-2.12-.94-2.8-1.29-5.51-2.82-7.94-4.71-1.22-.94-2.37-1.98-3.38-3.14a15.6 15.6 0 0 1-1.42-1.82 12.408 12.408 0 0 1-.86-1.5c-.04-.09-.08-.17-.12-.26-.05-.1-.04-.15-.15-.33l-16.4 5.19-8.28 2.65c-2.74.86-5.49 1.72-8.19 2.76-1.35.52-2.7 1.09-4.01 1.77-1.3.69-2.62 1.44-3.7 2.68-.27.31-.5.68-.69 1.08-.2.45-.24.81-.35 1.2-.12.77-.19 1.54-.18 2.29.01 1.5.19 2.97.44 4.42.26 1.44.59 2.87.99 4.28.2.7.42 1.4.66 2.1.28.75.47 1.27.62 1.95.56 2.67.72 5.57.81 8.37l.03.87.87.07c5.01.41 10.03.75 15.05 1.13l1.65 4.83.24.7h.74c8 0 16 .06 24.01.01l24.01-.11 24.01-.16 24.01-.27.54-.01-.04-.53-.57-7.48c3.7-.29 7.39-.53 11.09-.79l11.51-.79.3-.02-.02-.3c-.36-5.9-.51-11.81-.36-17.7zm-11.49 18.1c-3.84.23-7.68.48-11.52.68l-.41.02.02.42.41 7.37-23.48-.26-24.01-.16-24.01-.11c-7.76-.05-15.51 0-23.27.01L51.72 214l-.22-.64-.67-.05c-4.96-.34-9.92-.71-14.88-1.02-.14-2.62-.35-5.2-.94-7.84-.16-.72-.47-1.55-.71-2.14-.24-.65-.46-1.32-.66-1.99-.41-1.35-.75-2.72-1.01-4.09-.26-1.38-.45-2.77-.48-4.13-.03-.69.03-1.35.12-2 .07-.3.13-.65.23-.87.11-.24.25-.49.46-.73.79-.95 1.99-1.72 3.19-2.39 1.22-.67 2.51-1.26 3.82-1.8 2.62-1.09 5.33-2.02 8.05-2.95 2.73-.94 5.35-1.88 8.03-2.84l16.22-5.86c-.06.01.03.14.04.23.03.1.07.18.11.28.07.19.16.36.24.54.17.36.36.7.56 1.04.41.67.86 1.32 1.36 1.93a23.82 23.82 0 0 0 3.33 3.33c2.41 2.02 5.1 3.68 7.91 5.1.7.37 1.41.69 2.13 1 .72.31 1.42.65 2.17.94 1.48.57 3 1.02 4.55 1.37 3.09.69 6.26.98 9.42.96 6.32-.05 12.65-1.32 18.44-4.01 2.87-1.37 5.62-3.14 7.87-5.49 2.03-2.1 3.61-4.77 4.24-7.7a68.752 68.752 0 0 0 16.8 2.06c2.97.01 5.93-.1 8.87-.14 1.46-.01 2.94-.03 4.34.12.72.08 1.26.21 1.9.55.61.3 1.15.7 1.61 1.18.95.96 1.51 2.28 1.89 3.64.36 1.37.51 2.82.58 4.26.04 1.46-.03 2.9-.11 4.39-.07 1.48-.11 2.96-.15 4.44-.09 5.82.12 11.63.5 17.44l-11.25.68z" fill="#008fa6" stroke-width="none" opacity="1"></path></g><g id="svga-group-head" transform="matrix(1,0,0,1,0,0)"><g id="svga-group-ears-left-move" transform="matrix(1,0,0,1,0,0)"><g id="svga-group-ears-left"><path id="SvgjsPath7625" d="M62.22 91.07s-9.85-8.65-11.43-8.8c-1.36-.13-4.73 7.07-6.22 11.62-.39 1.2-.3 2.54.22 3.7 1.43 3.16 4.6 9.75 7.44 13.05 0 0 2.4.52 3.16.29s6.69-5 7.3-6.86.74-9.97-.47-13z" fill="#b2713b" stroke-width="none" opacity="1" stroke="none"></path><path id="SvgjsPath7626" d="M63.07 94.44c.16 1.16.25 2.33.29 3.5.05 1.17.05 2.34-.01 3.51-.03.59-.08 1.17-.15 1.76-.05.3-.09.59-.17.9-.09.31-.25.62-.41.85-.64.98-1.41 1.72-2.18 2.48-.78.74-1.58 1.44-2.39 2.12-.41.33-.82.67-1.25.98-.21.16-.43.31-.65.46l-.35.22c-.14.07-.31.15-.47.17-.59.07-1.09-.01-1.61-.08-.51-.07-1.02-.17-1.53-.28l-.12-.03-.07-.09c-1.28-1.53-2.32-3.25-3.3-4.99-.97-1.75-1.85-3.56-2.7-5.38l-1.25-2.75c-.44-.92-.63-2.02-.48-3.05.06-.52.23-1.01.39-1.48s.33-.94.5-1.41c.35-.93.7-1.86 1.07-2.78.76-1.83 1.55-3.65 2.59-5.32.26-.42.54-.82.88-1.2.17-.19.35-.37.6-.52.12-.07.27-.14.46-.14.17.01.28.06.42.1.94.41 1.65 1 2.43 1.56 1.52 1.14 2.98 2.35 4.41 3.61 1.44 1.25 2.85 2.53 4.24 3.87.43 1.1.64 2.26.81 3.41zm-9.79-10.31c-.75-.52-1.54-1.11-2.29-1.42-.08-.02-.18-.07-.23-.07-.03 0-.1.01-.18.06-.15.08-.31.22-.45.39-.3.32-.57.7-.83 1.09-1.02 1.59-1.92 3.33-2.74 5.1-.41.89-.81 1.78-1.16 2.71-.18.46-.35.92-.52 1.39-.17.47-.34.92-.4 1.41-.13.98.06 2 .49 2.88.42.91.86 1.81 1.32 2.7.9 1.78 1.87 3.52 2.88 5.22 1.02 1.69 2.09 3.35 3.32 4.79l-.19-.11c.97.18 2.03.38 2.91.29.1-.01.16-.06.25-.1l.31-.2.62-.45c.41-.3.82-.63 1.23-.95.81-.66 1.6-1.34 2.37-2.06.75-.72 1.52-1.47 2.11-2.3.15-.22.25-.4.33-.63.07-.24.12-.51.17-.78.08-.55.15-1.12.19-1.69.08-1.14.12-2.29.13-3.45.01-1.15-.04-2.31-.13-3.46-.09-1.14-.23-2.32-.59-3.39-2.96-2.34-5.91-4.75-8.92-6.97z" fill="#a35e26" stroke-width="none" opacity="1" stroke="none"></path><path id="SvgjsPath7627" d="M62.45 98.39S52.96 86.4 51.18 87.4s-4.58 6.65-4.57 8.53c.02 2.77 2.95 7.4 4.42 8.8s3.25 2.25 5.6 1.71 5.82-8.05 5.82-8.05z" fill="#a35e26" stroke-width="none" opacity="1" stroke="none"></path><path id="SvgjsPath7628" d="M56.36 101.74c-.34-1.14-.73-2.26-1.13-3.37a93.8 93.8 0 0 0-1.28-3.3c-.45-1.09-.93-2.16-1.46-3.21-.54-1.04-1.08-2.08-1.74-3.05l-.07-.11-.07.11c-.66 1.04-1.28 2.1-1.88 3.2-.3.55-.58 1.1-.85 1.67-.28.56-.51 1.16-.74 1.75l-.04.09.04.11c.41 1.24.84 2.46 1.29 3.69.22.61.48 1.21.73 1.81.26.6.52 1.19.87 1.78l.17.27.22-.2c.3-.28.53-.58.77-.9.23-.32.43-.67.61-1.03.35-.73.56-1.57.53-2.42v-.05l-.02-.04c-.44-.87-.91-1.73-1.36-2.6l-.05.03c.37.91.74 1.83 1.13 2.73l-.02-.09c-.03.77-.26 1.51-.61 2.16-.35.65-.82 1.24-1.32 1.7l.39.07c-.3-.51-.56-1.11-.81-1.69l-.72-1.79c-.48-1.2-.93-2.41-1.38-3.62v.2c.4-1.18.85-2.35 1.38-3.47.52-1.13 1.12-2.22 1.8-3.22h-.14c.63.95 1.08 2.04 1.55 3.11l1.36 3.24 1.38 3.24c.46 1.08.92 2.16 1.41 3.23l.06-.03z" fill="#843e04" stroke-width="none" opacity="1" stroke="none"></path></g></g><g id="svga-group-ears-right-move" transform="matrix(1,0,0,1,0,0)"><g id="svga-group-ears-right"><path id="SvgjsPath7629" d="M137.78 91.07s9.85-8.65 11.43-8.8c1.36-.13 4.73 7.07 6.22 11.62.39 1.2.3 2.54-.22 3.7-1.43 3.16-4.6 9.75-7.44 13.05 0 0-2.4.52-3.16.29s-6.69-5-7.3-6.86c-.61-1.86-.74-9.97.47-13z" fill="#b2713b" stroke-width="none" opacity="1" stroke="none"></path><path id="SvgjsPath7630" d="M137.75 91.04c1.4-1.34 2.8-2.62 4.24-3.87 1.43-1.26 2.9-2.47 4.41-3.61.78-.55 1.49-1.14 2.43-1.56.14-.04.25-.1.42-.1.19 0 .34.07.46.14.24.15.43.33.6.52.34.38.61.78.88 1.2 1.04 1.67 1.83 3.49 2.59 5.32.38.92.72 1.85 1.07 2.78.17.47.34.94.5 1.41.16.47.33.96.39 1.48.15 1.03-.04 2.13-.48 3.05l-1.25 2.75c-.85 1.82-1.73 3.63-2.7 5.38-.98 1.75-2.02 3.46-3.3 4.99l-.07.09-.11.02c-.51.11-1.02.2-1.53.28-.52.07-1.02.14-1.61.08-.16-.02-.32-.09-.47-.17l-.35-.22c-.22-.15-.44-.3-.65-.46-.43-.32-.84-.65-1.25-.98-.82-.67-1.62-1.38-2.39-2.12-.77-.76-1.54-1.49-2.18-2.48a3.05 3.05 0 0 1-.41-.85c-.09-.31-.13-.61-.17-.9-.07-.59-.12-1.18-.15-1.76-.06-1.17-.06-2.34-.01-3.51.05-1.17.13-2.34.29-3.5.15-1.15.36-2.31.8-3.4zm.06.05c-.35 1.07-.49 2.24-.59 3.39-.09 1.15-.14 2.31-.13 3.46.01 1.15.05 2.3.13 3.45.04.57.11 1.14.19 1.69.05.27.1.54.17.78.08.23.18.42.33.63.59.83 1.36 1.58 2.11 2.3.76.72 1.56 1.41 2.37 2.06.41.33.81.65 1.23.95l.62.45.31.2c.09.04.15.09.25.1.88.09 1.94-.11 2.91-.29l-.19.11c1.23-1.44 2.3-3.1 3.32-4.79a93.9 93.9 0 0 0 2.88-5.22c.45-.89.9-1.79 1.32-2.7.43-.88.62-1.9.49-2.88-.06-.49-.23-.94-.4-1.41-.16-.47-.34-.93-.52-1.39-.35-.92-.76-1.82-1.16-2.71-.82-1.77-1.72-3.51-2.74-5.1-.26-.39-.53-.77-.83-1.09-.15-.16-.31-.3-.45-.39a.314.314 0 0 0-.18-.06c-.05 0-.15.06-.23.07-.75.31-1.54.9-2.29 1.42-3.02 2.23-5.97 4.64-8.92 6.97z" fill="#a35e26" stroke-width="none" opacity="1" stroke="none"></path><path id="SvgjsPath7631" d="M137.55 98.39s9.49-11.99 11.27-10.99 4.58 6.65 4.57 8.53c-.02 2.77-2.95 7.4-4.42 8.8-1.47 1.39-3.25 2.25-5.6 1.71-2.35-.54-5.82-8.05-5.82-8.05z" fill="#a35e26" stroke-width="none" opacity="1" stroke="none"></path><path id="SvgjsPath7632" d="M143.64 101.74c.34-1.14.73-2.26 1.13-3.37.4-1.11.84-2.21 1.28-3.3.45-1.09.93-2.16 1.46-3.21.54-1.04 1.08-2.08 1.74-3.05l.07-.11.07.11c.66 1.04 1.28 2.1 1.88 3.2.3.55.58 1.1.85 1.67.28.56.51 1.16.74 1.75l.04.09-.04.11c-.41 1.24-.84 2.46-1.29 3.69-.22.61-.48 1.21-.73 1.81-.26.6-.52 1.19-.87 1.78l-.17.27-.22-.2c-.3-.28-.53-.58-.77-.9-.23-.32-.43-.67-.61-1.03-.35-.73-.56-1.57-.53-2.42v-.05l.02-.04c.44-.87.91-1.73 1.36-2.6l.05.03c-.37.91-.74 1.83-1.13 2.73l.02-.09c.03.77.26 1.51.61 2.16.35.65.82 1.24 1.32 1.7l-.39.07c.3-.51.56-1.11.81-1.69l.72-1.79c.48-1.2.93-2.41 1.38-3.62v.2c-.4-1.18-.85-2.35-1.38-3.47-.52-1.13-1.12-2.22-1.8-3.22h.14c-.63.95-1.08 2.04-1.55 3.11l-1.36 3.24-1.38 3.24c-.46 1.08-.92 2.16-1.41 3.23l-.06-.03z" fill="#843e04" stroke-width="none" opacity="1" stroke="none"></path></g></g><g id="svga-group-faceshape-wrap"><g id="svga-group-faceshape-single"><path id="SvgjsPath7659" d="M135.9 49.8c-6.7-7.4-11.3-13.2-28.8-17.3-1.8-.4-12.3-.4-14.1 0-17.5 4.1-22.1 9.9-28.8 17.3-7.1 7.8-9.5 29-9.5 29 0 9.6 1.3 32.3 13.3 47.2 17.8 22.2 32.1 22.3 32.1 22.3s14.2 0 32.1-22.3c12-14.9 13.3-37.6 13.3-47.2-.1 0-2.5-21.2-9.6-29z" fill="#b2713b" stroke-width="none" opacity="1" stroke="none"></path><path id="SvgjsPath7660" d="M107.1 32.5c-1.8-.4-12.3-.4-14.1 0-17.5 4.1-22.1 9.9-28.8 17.3-7.1 7.8-9.5 29-9.5 29 0 9.6 1.3 32.3 13.3 47.2 17.8 22.2 32.1 22.3 32.1 22.3s14.2 0 32.1-22.3c12-14.9 13.3-37.6 13.3-47.2 0 0-2.4-21.2-9.5-29-6.9-7.4-11.5-13.2-28.9-17.3zM142 63.8c.7 2.5 1.1 5 1.6 7.5.4 2.5.7 5 1 7.5-.2 7.4-1.3 14.8-3 22-.9 3.6-1.9 7.1-3.3 10.5-.7 1.7-1.4 3.4-2.2 5s-1.7 3.2-2.7 4.7l-1.5 2.2c-.3.4-3.4 4.2-3.4 4.2l-3.7 4.1-6.1 5.7c-2.8 2.3-5.8 4.5-9 6.2l-1.2.6-1.2.6c-.8.4-1.6.7-2.5 1l-1.3.4c-.4.1-.8.2-1.3.3-.4.1-1.71.43-2.9.4 0 0-1.4-.2-1.9-.3-.4-.1-.9-.2-1.3-.3l-1.3-.4c-.8-.3-1.7-.6-2.5-1l-1.2-.5-1.2-.6c-3.2-1.6-6.3-3.7-9.1-6l-4.1-3.6-3.9-3.9-1-1-.9-1-1.8-2.1c-1.2-1.4-2.3-2.8-3.3-4.4-1-1.5-2-3.1-2.8-4.8-.8-1.6-1.6-3.3-2.3-5.1-.7-1.7-1.3-3.5-1.8-5.3s-1-3.6-1.4-5.4-.8-3.6-1-5.5c-.3-1.8-.5-3.7-.7-5.5-.4-3.7-.5-7.4-.5-11.1.3-2.3.8-4.6 1.2-6.9.5-2.3 1.1-4.6 1.7-6.8.7-2.2 1.4-4.5 2.3-6.6.4-1.1.9-2.1 1.4-3.1s2.59-4.47 6.3-8.1c1.6-1.7 3.3-3.3 5-4.7 3.5-2.8 7.7-4.9 12-6.5l1.6-.6c6.69-2.31 10.6-2.2 11.8-2.3 2.3-.1 4.71-.26 7-.1 3.16.22 6.8 1.4 6.8 1.4 2.3.6 4.5 1.3 6.7 2.3.3.1 1.6.7 1.6.7.5.3 2.6 1.3 3.1 1.7.5.3 5.3 3.7 6.9 5.4 1.7 1.7 3.3 3.4 4.9 5.2 1.7 1.9 2.9 4.2 3.9 6.6 1.1 2.4 1.9 4.8 2.5 7.3z" fill="#843e04" stroke-width="none" opacity="1" stroke="none"></path></g></g><g id="svga-group-mouth-single-move" transform="matrix(1,0,0,1,0,0)"><g id="svga-group-mouth-single"><path id="SvgjsPath7614" d="M90.88 126.51s-.27 1.69.86 2.88c1.14 1.19 11.47 2.31 17.34.11 5.87-2.2 6.74-5.28 6.74-5.28s-5.39.45-7.07.11c-1.69-.34-7.66-1.1-8.9-1s-3.37.96-4.36 1.36-4.61 1.82-4.61 1.82z" fill="#904539" stroke-width="none" opacity="1" stroke="none"></path><path id="SvgjsPath7615" d="M87.57 126.62s1.87 1.37 4.84.17c2.96-1.19 6.58-2.22 8.13-2.32s7.17 1.35 10.39 1.07c3.22-.29 6.81-1.1 8.21-3.3s.26-3.18-.22-2.66c-.48.51-.69 4.46-3.65 4.22-2.96-.24-6.51-2.62-9.97-3.46-3.46-.83-4.82.93-5.53 1.53s-1.58.42-3.12.41c-1.54-.02-4.73.33-5.43 2.15-.71 1.82-2.27 2.85-3.65 2.19z" fill="#883b2f" stroke-width="none" opacity="1" stroke="none"></path></g></g><g id="svga-group-eyes-left-move" transform="matrix(1,0,0,1,0,0)"><g id="svga-group-eyes-left"><g id="svga-group-eyesback-left"><path id="SvgjsPath7735" d="M80.2 77.2c7.5 0 13.5 5.8 13.5 13s-6 13-13.5 13-13.5-5.8-13.5-13 6-13 13.5-13z" fill="#ffffff" stroke-width="none" opacity="1"></path></g><g id="svga-group-eyesiriswrapper-left" transform="matrix(1,0,0,1,0,0)"><g id="svga-group-eyesiriscontrol-left" transform="matrix(1,0,0,1,0,0)"><g id="svga-group-eyesiris-left"><path id="SvgjsPath7697" d="M80.2 84.6c3.1 0 5.6 2.5 5.6 5.6s-2.5 5.6-5.6 5.6-5.6-2.5-5.6-5.6 2.5-5.6 5.6-5.6z" fill="#4e60a3" stroke-width="none" opacity="1"></path><path id="SvgjsPath7698" d="M80.2 87.2c1.7 0 3 1.3 3 3s-1.3 3-3 3-3-1.3-3-3 1.3-3 3-3z" fill="#000000" stroke-width="none" opacity="1"></path><path id="SvgjsPath7699" d="m79.5 87.8-.6-.6c-.2-.2-.5-.3-.8-.3s-.6.1-.8.3c-.2.2-.3.5-.3.8s.1.6.3.8l.6.6c.2.2.5.3.8.3s.6-.1.8-.3c.4-.6.4-1.2 0-1.6zm2.7 5.1c1 0 1-1.5 0-1.5-.9 0-.9 1.5 0 1.5z" fill="#ffffff" stroke-width="none" opacity="1"></path></g></g></g><g id="svga-group-eyesfront-left"><path id="SvgjsPath7743" d="M80.2 76.7c-7.8 0-14.1 6.1-14.1 13.6s6.3 13.6 14.1 13.6 14.1-6.1 14.1-13.6S88 76.7 80.2 76.7zm-4 19.2c-4.4-1.5-5.8-6.1-6.6-9.2-.8-3.2 12.5-3.2 16-.4s4.8 6.7 5 8.7c0 0-10 2.5-14.4.9z" fill="#b2713b" stroke-width="none" opacity="1" stroke="none"></path><path id="SvgjsPath7744" d="M90.7 95v-.2c0-.5-.1-1-.3-1.4-.1-.3-.2-.6-.2-.9-.5-1.8-1.3-4.1-2.7-5.6-1.1-1.2-3.7-4-8.2-4s-7.9 1.6-8.4 1.8c-.9.4-2.5 2.3-2.5 2.3s.4-.1 1.1-.3c0 .1 0 .2.1.3.1.3.2.6.2.8.2.5.3 1.1.5 1.6.4 1.1.9 2.1 1.5 3.1.6.9 1.4 1.8 2.3 2.5s2 1.2 3.1 1.4c2.3.4 4.6.2 6.8 0 2.2-.3 4.4-.7 6.7-1.4-.1 0-.1 0 0 0 0-.1 0 0 0 0zm-.1 0c-2.2.4-4.4.8-6.7 1-1.1.1-2.2.2-3.3.2-1.1 0-2.2 0-3.3-.2-2.2-.4-4.1-1.8-5.3-3.7-.6-.9-1.1-2-1.4-3-.2-.5-.3-1.1-.5-1.6-.1-.3-.1-.5-.2-.8 0-.1-.1-.2-.1-.3 2.2-.6 6.6-1.8 9.6-1.8 4.1.1 7.2 3.3 8.4 4.6 1.1 1.1 2.4 4.4 2.8 5.3v.3z" fill="#000000" stroke-width="none" opacity="1" stroke="none"></path></g></g></g><g id="svga-group-eyes-right-move" transform="matrix(1,0,0,1,0,0)"><g id="svga-group-eyes-right"><g id="svga-group-eyesback-right"><path id="SvgjsPath7736" d="M119.8 77.2c7.5 0 13.5 5.8 13.5 13s-6 13-13.5 13-13.5-5.8-13.5-13 6-13 13.5-13z" fill="#ffffff" stroke-width="none" opacity="1"></path></g><g id="svga-group-eyesiriswrapper-right" transform="matrix(1,0,0,1,0,0)"><g id="svga-group-eyesiriscontrol-right" transform="matrix(1,0,0,1,0,0)"><g id="svga-group-eyesiris-right"><path id="SvgjsPath7700" d="M119.8 85.3c2.7 0 4.9 2.2 4.9 4.9s-2.2 4.9-4.9 4.9-4.9-2.2-4.9-4.9 2.2-4.9 4.9-4.9z" fill="#4e60a3" stroke-width="none" opacity="1"></path><path id="SvgjsPath7701" d="M119.8 87.5c1.5 0 2.7 1.2 2.7 2.7s-1.2 2.7-2.7 2.7-2.7-1.2-2.7-2.7 1.2-2.7 2.7-2.7z" fill="#000000" stroke-width="none" opacity="1"></path><path id="SvgjsPath7702" d="M119.2 88.1c-.2-.2-.3-.4-.5-.5s-.4-.3-.7-.3c-.2 0-.5.1-.7.3-.2.2-.3.4-.3.7 0 .2.1.5.3.7.2.2.4.3.5.5s.4.3.7.3c.2 0 .5-.1.7-.3.3-.5.3-1.1 0-1.4zm2.4 4.5c.8 0 .8-1.3 0-1.3s-.8 1.3 0 1.3z" fill="#ffffff" stroke-width="none" opacity="1"></path></g></g></g><g id="svga-group-eyesfront-right"><path id="SvgjsPath7745" d="M119.8 76.7c-7.8 0-14.1 6.1-14.1 13.6s6.3 13.6 14.1 13.6 14.1-6.1 14.1-13.6-6.3-13.6-14.1-13.6zm4.4 18.2c-4 1.6-13.7.1-13.7.1.1-1.8 1.2-5.3 4.3-7.9s15.7-3.4 15.1-.6c-.5 2.8-1.7 6.8-5.7 8.4z" fill="#b2713b" stroke-width="none" opacity="1" stroke="none"></path><path id="SvgjsPath7748" d="M130.2 86.6s0-1.2-.8-1.5c-.6-.2-4-.9-8.3-.7-2.4.1-4.2 1-5.5 1.9-.3.1-.5.3-.8.5-.8.7-1.6 1.5-2.2 2.3-1 1.4-1.7 2.9-2 4.6-.3 1.1-.3 1.9-.3 1.9s.1-.2.2-.6c2.1.4 4.1.6 6.2.8 1 .1 2.1.1 3.1 0 1.1 0 2.1-.1 3.1-.4 1-.2 2-.7 2.9-1.3.9-.6 1.6-1.4 2.2-2.3.6-.9 1-1.8 1.3-2.8.2-.5.3-1 .4-1.5l.2-.8v-.2c.2.1.3.1.3.1zm-.4.1-.2.8c-.1.5-.2 1-.4 1.5-.3 1-.7 1.9-1.3 2.8-1.1 1.7-3 2.9-5 3.3-.5.1-1 .2-1.5.2s-1 .1-1.6.1c-1 .1-2.1 0-3.1 0-2.1-.1-4.1-.2-6.2-.4.5-1.3 1.5-4.1 2.4-5.1 1.1-1.3 3.8-4.1 7.7-4.4 3.3-.2 7.8.8 9.1 1.1.1-.1.1 0 .1.1z" fill="#000000" stroke-width="none" opacity="1" stroke="none"></path></g></g></g><g id="svga-group-facehighlight-single"></g><g id="svga-group-eyebrows-left-move" transform="matrix(1,0,0,1,0,0)"><g id="svga-group-eyebrows-left-rotate" transform="matrix(1,1.7453292519943295e-9,-1.7453292519943295e-9,1,1.2995914744351467e-7,-1.3809918186780124e-7)"><g id="svga-group-eyebrows-left"><path id="SvgjsPath7786" d="M64.55 76.13s7.64-5.4 8.86-5.62 19.49 3.09 19.95 4.12c.46 1.03-.07 3.12-1.4 3.76-1.33.64-12.63-3.98-17.91-5.17-2-.45-9.5 2.91-9.5 2.91z" fill="#2a232b" stroke-width="none" opacity="1"></path><path id="SvgjsPath7787" d="M64.52 76.15c.01.02.08.01.08 0l.03-.01.06-.02.12-.05.23-.09.47-.18.94-.35c.63-.23 1.26-.45 1.89-.67 1.26-.44 2.54-.84 3.83-1.12.32-.07.64-.12.96-.16.32-.03.63-.04.89.02.64.16 1.28.34 1.92.54 1.27.39 2.55.8 3.81 1.23 2.54.85 5.07 1.71 7.65 2.49.64.19 1.29.39 1.95.55.66.16 1.32.33 2.04.38.19 0 .37.02.62-.06l.09-.03.06-.04.12-.07c.08-.04.15-.1.23-.16.29-.23.51-.51.69-.8.34-.59.52-1.24.53-1.9 0-.33-.03-.67-.16-.99-.02-.05-.02-.07-.06-.13-.04-.07-.09-.09-.13-.13-.08-.06-.16-.1-.24-.14-.16-.08-.32-.13-.48-.19-.65-.22-1.3-.39-1.95-.55-1.31-.33-2.62-.61-3.94-.9-2.63-.58-5.25-1.18-7.9-1.68-1.33-.24-2.66-.47-4.01-.63-.34-.04-.68-.08-1.03-.09-.09 0-.18-.01-.28-.01-.05 0-.1 0-.17.01-.06.01-.1.03-.15.04-.21.06-.36.14-.52.22-.62.32-1.18.67-1.74 1.02-1.12.71-2.19 1.48-3.27 2.24-.54.38-1.07.77-1.59 1.17l-.79.59-.39.3-.19.15-.1.08c-.05.01-.1.08-.12.12zm.92-.49-.34.16.32-.2.83-.53 1.67-1.06c1.11-.71 2.23-1.41 3.36-2.09.56-.34 1.14-.67 1.71-.95l.21-.1c.07-.04.13-.04.19-.07l.09-.03h.08c.07 0 .15 0 .23.01.32.02.65.06.98.1 1.32.18 2.65.38 3.98.59 1.33.2 2.66.4 3.99.62 1.33.22 2.65.45 3.97.72 1.32.27 2.63.57 3.92.92.65.17 1.29.36 1.9.6.15.06.3.12.44.19.07.04.13.07.18.11.02.02.05.04.04.04.01 0 .02.06.03.08.09.27.11.57.09.87a3.7 3.7 0 0 1-.57 1.69c-.17.25-.37.47-.6.64-.06.04-.12.09-.18.12l-.09.05-.05.03h-.03c-.07.03-.24.02-.38.01-.62-.06-1.27-.24-1.91-.42-.64-.18-1.28-.38-1.91-.58-2.54-.82-5.05-1.74-7.61-2.57-1.28-.41-2.56-.82-3.86-1.17-.65-.18-1.31-.35-1.98-.49-.4-.09-.77-.05-1.12 0-.35.05-.69.12-1.02.2-1.33.34-2.58.82-3.83 1.32-.62.25-1.23.52-1.84.79l-.89.4z" fill="#1b141c" stroke-width="none" opacity="1"></path></g></g></g><g id="svga-group-eyebrows-right-move" transform="matrix(1,0,0,1,0,0)"><g id="svga-group-eyebrows-right-rotate" transform="matrix(1,1.7453292519943295e-9,-1.7453292519943295e-9,1,1.365545756470965e-7,-2.1299837271726574e-7)"><g id="svga-group-eyebrows-right"><path id="SvgjsPath7788" d="M135.56 80.74s-6.82-5.75-7.95-6.03c-1.13-.28-18.27 2.16-18.75 3.17-.48 1.01-.1 3.12 1.11 3.82s11.94-3.37 16.91-4.31c1.88-.36 8.68 3.35 8.68 3.35z" fill="#2a232b" stroke-width="none" opacity="1"></path><path id="SvgjsPath7789" d="m135.5 80.64-.09-.08-.17-.16-.35-.32-.7-.63c-.47-.42-.94-.84-1.42-1.24-.96-.81-1.92-1.62-2.93-2.39-.5-.38-1.01-.76-1.56-1.1-.14-.08-.28-.17-.47-.24-.05-.02-.09-.04-.14-.05-.06-.01-.12-.02-.16-.02-.09-.01-.18-.01-.26-.01-.33 0-.64.02-.96.05-1.26.1-2.51.26-3.76.44-2.49.37-4.96.85-7.43 1.3-1.24.23-2.47.45-3.7.72-.61.14-1.23.28-1.84.46-.15.05-.31.1-.46.17-.08.03-.15.07-.23.13-.04.04-.08.06-.13.12-.04.06-.04.09-.06.13-.13.32-.18.65-.2.98-.02.66.12 1.32.4 1.93.15.3.34.59.6.83.06.06.13.12.2.17l.11.08.06.04.08.04c.23.09.39.08.57.09.68-.02 1.29-.15 1.92-.28.62-.13 1.23-.3 1.84-.46 2.43-.66 4.83-1.4 7.24-2.13 1.2-.37 2.4-.72 3.6-1.05.6-.16 1.21-.32 1.81-.44.24-.06.54-.03.83.02.29.05.59.12.89.21 1.18.35 2.35.81 3.5 1.3.57.25 1.15.5 1.72.76l.85.4.43.2.21.1.11.05.05.03.03.01c-.01 0 .06.02.07 0a.339.339 0 0 0-.1-.16zm-1.56-.86c-.55-.3-1.11-.6-1.67-.88-1.13-.55-2.27-1.1-3.49-1.5-.31-.1-.62-.18-.94-.25-.32-.06-.67-.11-1.04-.05-.63.11-1.25.25-1.86.39-1.23.29-2.44.64-3.65.99-2.41.71-4.8 1.5-7.2 2.21-.6.17-1.2.34-1.81.49-.6.15-1.21.29-1.79.33-.13.01-.29 0-.36-.03l-.03-.01-.04-.03-.08-.06a.653.653 0 0 1-.16-.13c-.21-.18-.39-.41-.53-.67a3.91 3.91 0 0 1-.44-1.71c0-.3.03-.6.13-.86.01-.03.03-.08.03-.08l.04-.04c.05-.04.11-.07.18-.1.13-.07.28-.12.42-.17.58-.21 1.19-.36 1.8-.5 1.22-.29 2.45-.53 3.69-.73 1.24-.21 2.48-.37 3.73-.53 1.25-.16 2.49-.3 3.74-.43 1.25-.14 2.49-.28 3.73-.4.31-.03.62-.05.92-.06h.21c.03 0 .06.01.07.01.02.01.05.02.08.03.06.03.11.04.17.08l.19.11c.52.31 1.04.66 1.54 1.03 1.01.73 2.02 1.48 3.02 2.24l1.5 1.14.75.57.28.22-.31-.18-.82-.44z" fill="#1b141c" stroke-width="none" opacity="1"></path></g></g></g><g id="svga-group-nose-single-move" transform="matrix(1,0,0,1,0,0)"><g id="svga-group-nose-single"><path id="SvgjsPath7775" d="M92.19 104.66c-.45 1.23-.86 2.48-1.01 3.75-.07.63-.1 1.29.11 1.82l.08.19.12.18c.04.06.08.12.13.16.05.05.09.11.15.15.2.18.47.29.74.35.56.12 1.18.02 1.8-.11l.47-.11.25-.06.13-.03.16-.02c.44-.03.81.12 1.13.27.65.32 1.16.76 1.67 1.14l.19.14c.06.04.11.07.17.1.12.06.24.12.38.15.27.08.56.11.84.11.57-.01 1.14-.19 1.58-.54l.16-.14.19-.17a5.859 5.859 0 0 1 1.29-.91c.32-.16.67-.28 1.04-.33.19-.02.38-.03.59 0 .1.01.2.04.3.06l.26.1c.23.09.54.13.84.15.3.02.62.01.92-.03.6-.07 1.24-.24 1.6-.62.17-.17.24-.46.28-.76.03-.3.03-.62-.01-.93-.12-1.27-.55-2.52-1.1-3.71.71 1.1 1.23 2.34 1.5 3.65.06.33.09.67.08 1.02-.02.34-.07.73-.33 1.07-.25.32-.59.5-.91.63-.33.14-.67.21-1.01.27-.34.06-.69.08-1.03.08-.35-.01-.7-.03-1.08-.17l-.2-.07c-.06-.01-.12-.03-.18-.03-.12-.02-.26 0-.39.02-.27.05-.55.15-.81.29-.26.14-.52.3-.75.49-.12.09-.23.2-.35.3l-.17.16-.21.19c-.59.48-1.33.72-2.06.73-.37.01-.73-.04-1.09-.15a2.7 2.7 0 0 1-.53-.22c-.08-.05-.17-.11-.25-.16l-.2-.15c-.52-.4-1.02-.81-1.54-1.09-.26-.13-.52-.23-.74-.22h-.08l-.11.02-.23.05-.49.1c-.66.12-1.37.22-2.09.03-.35-.1-.71-.26-.99-.53-.26-.27-.48-.57-.59-.94-.22-.71-.12-1.41 0-2.06.14-.66.35-1.28.58-1.9.22-.58.49-1.18.8-1.76z" fill="#843e04" stroke-width="none" opacity="1" stroke="none"></path><path id="SvgjsPath7776" d="M101.48 107.53c-.46-.46-1.1-.54-1.72-.41-.08.02-.15.03-.22.05-.26-.17-.52-.28-.87-.28-.39 0-.85.17-1.11.46-.59.64-.6 1.58 0 2.22 1.02 1.09 3.28 1.39 4.14-.07.35-.61.28-1.47-.22-1.97z" fill="#ba7b47" stroke-width="none" opacity="1" stroke="none"></path></g></g><g id="svga-group-hair-front"><path id="SvgjsPath8113" d="M59.4 145.5s-1.5 7.5-2.1 9.5c-.7 2.1-2.5 8.6-2.1 10.5.4 1.9 1.5 4.8 5.3 5.1 0 0 1 18.6 1.4 19.5.4.9 2 3 3.8 3.4s3.7 0 3.7 0 1.3-1.7 1.5-2.7c.2-1-.2-3.5-.2-3.5s3.8 1.8 4.3 1.5c.4-.3 2-1.8 2.6-3.4.7-1.6 1.2-3.9 1.1-4.4-.1-.6-.7-3.1-.7-3.1s2-1.9 2.3-2.7c.3-.8 1-2.6 1-2.6s2.4 3.3 5.2 3.6c0 0 1.4-2.9 1.9-4.5.4-1.6-.3-3.4-.7-4.6-.4-1.2-3.2-10.6-3.6-12.1-2-8.4-4.9-2.6-4.9-2.6s-3.4-9.4-7-6.8c0 0-2.4.2-4.2 4.1 0 0-1.3-7.7-5.2-5.4.3-.2-2-5-3.4 1.2zm57.9 6.1s-.3 13.6-.7 15c-.3 1.4.7 4.4 2.2 4.8 0 0 .1 6.3.2 6.6.1.3 2.4 3.1 6.2 3 0 0 2.3 5.1 2.7 5.6.5.5 3.8-.2 4.9-.7s3.8-2.6 3.8-2.6 2.5 3.5 3.4 3.8 3.9-2.2 4.1-2.9c.2-.7.2-12.8-.1-15.2s-1.7-14.5-2-16c0 0-2.2-5-6-1.5 0 0-2.8-3.3-4.3-1.7 0 0-5.4-5.4-7.4.4 0 0-4.2-2.3-4.3 1.2-.2-.2-1.3-2.7-2.7.2zm-64-75.7s-1.5 1.5-1.1 2.8 2.2 6 3.2 6.8 3 2.2 3 2.2 1.4-.4 1.6-1.7-.8-4.1-.8-4.1 1.1-.7 1.4-1.6 0-3.6 0-3.6 1.2-1.2 1.7-2.2 1-3.2.8-4.8c0 0 2.2-1.1 2.6-1.9s.8-3.2 0-4.5c0 0 2.9-1.4 3.6-2s1.5-2.8 1.5-2.8 2.3-.9 2.6-1.5 1.5-4 1.5-4 2 .2 3.5-.1 4.1-3.2 4.1-3.2 1.7.5 3.3-.1 3.7-2.3 3.7-2.3 1.1.7 2.5.8 4.8-.9 4.8-.9 3.6 1 6.5 0c0 0 4.1 1.2 7.4.5 0 0 2.5 2.5 6.8 2 0 0 2.2 3.7 7.7 3.3 0 0 .3 4.3 4.1 5.3 0 0 1.6 4.1 5.6 5.1 0 0-2.6 4.1 2.4 6.2 0 0-.8 4.8 2.4 6.9 0 0-1.4 3.3 1.4 5.3 0 0-1.9 2.6.3 5.9 0 0 3.4-1.6 4.5-3.6s2-5.2 1.9-6.5-1-1.5-1-1.5.2-1.5.1-2.6-.4-2.9-.4-2.9.2-2.7-.1-4.5c-.3-1.8-1-4.1-2.7-4.8 0 0 .6-5.9-3.9-10.4 0 0-1.4-4.9-5.7-6.7 0 0-2.5-5.9-6.7-5.8 0 0-3.5-4.2-7.8-5.6 0 0-3.6-3.6-9.1-3 0 0-3.5-1.5-5.7-.2 0 0-4.3-3.4-9.4 0 0 0-3.3-.8-5.7.2 0 0-5-.7-8.7 2.8 0 0-5 1.7-8.2 5.6 0 0-3.4.5-6.7 6 0 0-4.5 2.3-5.6 6.7 0 0-4.2 3.2-4 9.9 0 0-2.8 1.9-2.6 9.4-.1.1-1.5 2.3-.6 5.7z" fill="#2a232b" stroke-width="none" opacity="1" stroke="none"></path><path id="SvgjsPath8114" d="M146.9 75.8c.5-1.8.5-4.1-.3-5.7.1-2.3-.2-4.7-.8-6.9-.3-1.1-.9-2.2-2.1-2.3h-.1c.4-3.8-1-8-3.8-10.5-.1-.1-.3-.1-.5 0-.4-2.7-2.6-5.4-5.1-6.4-.1-.2-.4-.3-.6-.2-.5-1.4-1.5-2.8-2.5-3.9 0-.1 0-.2-.1-.3-.4-.5-1.1-.7-1.7-.9-.6-.3-1.2-.6-1.8-.7h-.2l-.1-.1c-1.8-2.5-4.8-4.3-7.7-5.3v-.2c0-.3-.3-.5-.6-.4-.8-1-2.3-1.6-3.3-2-1.8-.7-3.6-.8-5.4-.6-1.6-.9-3.9-1.1-5.6-.4-.2.1-.3.2-.3.3-2.7-1.9-6.2-2.1-8.9-.2-.1 0-.1-.1-.2-.1-1.7-.7-4-.5-5.7.4-1.8-.2-3.6-.1-5.4.6-1.1.4-2.5 1-3.3 2-.2 0-.6.1-.6.4v.2c-2.8 1-5.9 2.8-7.7 5.3 0 0-.1 0-.1.1h-.2c-.6.2-1.2.5-1.8.7-.6.2-1.3.4-1.7.9-.1.1-.1.2-.1.3-1 1.1-2 2.5-2.5 3.9-.2 0-.4 0-.6.2-2.5 1-4.7 3.7-5.1 6.4-.1-.1-.3-.1-.5 0-2.8 2.5-4.2 6.7-3.8 10.5-1.2.1-1.8 1.2-2.1 2.3-.7 2.1-.9 4.6-.8 6.9-.7 1.5-.7 3.9-.3 5.7-2.8 0 .2 7.1.8 8.2.1.1.2.2.3.2.9 1.9 2.4 3.5 4.4 4.1.4.1.7-.4.5-.7.1 0 .3 0 .4-.1 1.3-1.4 1.6-4.2.1-5.7 2-.9 2.1-4 1-5.6-.2-.2-.5-.2-.6 0-.9-1-1.9-2-2.8-2.9-.9-1-1.8-2-2.9-2.8.1-1.6.1-3.3.4-4.9.2-1.3.4-2.9 1.5-3.8.5 3.1 3.5 6.7 6.1 8.1h.2c.2 2.2 0 4-1.8 5.6-.5.4.2 1.3.7.9 1.9-1.4 3-4.6 1.7-6.8-.1-.1-.3-.2-.4-.1-1.2-1.3-2.6-2.5-3.6-4.1-.9-1.3-1.3-2.8-2.1-4.1 0-3.8 1.1-6.7 3.2-9.7.3 4.3 1.9 8.9 4.9 12 .5 1.1.8 2.2.3 3.3-.5 1-1.4 1.3-2.2 2.1-.1.2-.1.4.1.5 1.4.3 2.6-1.1 3-2.2.5-1.3.3-3.1-.8-4.1-2.3-3.8-4-7.3-4.4-11.9v-.2c.8-2.7 2.1-4.6 4.5-6.2 0 4.9 1.5 9.6 4.7 13.4-.4 1-.8 1.8-1.6 2.6-.5.4-1 .8-1.6 1-.5.2-.9.2-1.4.5-.3.2-.2.7.1.8 1.2.3 2.7-.7 3.5-1.4.9-.8 1.8-2.1 1.8-3.5 1 .3 2.4-.9 2.9-1.6.8-1 1.3-2.2 1.2-3.5h.1c2.2 1.2 6.9-.6 7.2-3.3 2.1 1.3 5.2-.1 6.7-1.9 1.9 1.3 5.7.8 7.5-.5h.3c1.8 1.2 4.7.8 6.6.2 1.9 1.2 5.5 1.6 7.3.4 1.4 1.8 4.6 3.2 6.7 1.9.3 2.8 5 4.5 7.2 3.3h.1c-.2 1.3.3 2.5 1.2 3.5.5.6 2 1.8 2.9 1.6 0 1.3.9 2.6 1.8 3.5.8.8 2.3 1.8 3.5 1.4.3-.1.4-.6.1-.8-.4-.3-.9-.3-1.4-.5-.6-.2-1.1-.6-1.6-1-.8-.7-1.2-1.6-1.6-2.6 3.2-3.8 4.7-8.5 4.7-13.4 2.4 1.5 3.6 3.5 4.5 6.2 0 0-.1.1-.1.2-.4 4.5-2 8-4.4 11.8-1.1 1-1.3 2.8-.8 4.1.5 1.2 1.7 2.5 3 2.2.2-.1.3-.3.1-.5-.7-.8-1.7-1-2.2-2.1-.6-1.2-.2-2.2.3-3.3 3-3.1 4.6-7.7 4.9-12 2.1 3 3.2 5.9 3.2 9.7-.8 1.3-1.2 2.8-2.1 4.1-1 1.5-2.3 2.7-3.6 4.1-.1-.1-.3 0-.4.1-1.4 2.1-.2 5.3 1.6 6.8.5.4 1.1-.5.7-.9-1.7-1.6-2-3.3-1.8-5.6h.2c1.6-.9 2.9-2.3 3.9-3.8.9-1.2 1.9-2.8 2.2-4.3 1.2.8 1.3 2.4 1.5 3.8.3 1.6.3 3.2.4 4.9-1.1.8-2 1.8-2.9 2.8-.9 1-1.9 1.9-2.8 2.9-.1-.2-.4-.3-.6 0-1.1 1.6-1 4.7 1 5.6-1.5 1.4-1.2 4.2.1 5.7.1.1.3.2.4.1-.2.3.1.8.5.7 2-.6 3.5-2.3 4.4-4.1.1 0 .2-.1.3-.2.9-1.1 3.9-8.2 1.1-8.2zM58.7 86.9c-.1.2-.1.3 0 .4-1.9-1.1-3.3-2.4-3.9-4.5-.1-.3-.4-.4-.7-.3-.2-.6-.5-1.1-.6-1.7-.2-.7-1.3-3.8-.2-4.3v.1c0 .1.1.1.2.2.7 1.1 1.5 2.2 2.5 3.2l.3.3c-.1.1-.2.3-.1.5.6 1.1 1.1 2.3 1.9 3.4.2.3.7.1.6-.2-.3-.9-.8-1.8-1.3-2.6.5.5 1.1.9 1.7 1.1.6 1.5.6 2.9-.4 4.4zm-2.3-12.8c1.1 1.2 2.2 2.5 3.4 3.6.2.2.4.2.5.1.1.5.1 1-.1 1.5-.2.9-.8 1.3-1.3 2 0 .1-.1.1-.1.2-.6-.8-1.5-1.4-2.2-2.1-1-1-1.8-2.1-2.6-3.3-.1-.1-.2-.2-.4-.2 0-.8-.2-1.7-.1-2.5 0-.6.1-1.2.2-1.9.1 0 .2-.1.3-.1.8 1 1.6 1.8 2.4 2.7zm17.9-20.9c-.1 1.2-.5 2.3-1.3 3.1-.4.4-.8.7-1.3.9-.4.2-.8.2-1 .6v.1h-.1c-2.7-4.1-4.2-8.5-4-13.5.5-.7.9-1.5 1.4-2.2.5-.7 1-1.3 1.6-2 .5-.1.9-.4 1.3-.6.4-.2.9-.4 1.3-.6-1 4.5.2 10 2.5 13.8l-.4.4zm5.1-1.2c-1.4.7-2.6.5-4 .4-.1 0-.2 0-.3.1-.8-2.1-1.5-4.1-1.9-6.3-.4-2.6-.1-5.1-.1-7.7 1-1 2-2 3.2-2.8 1.2-.9 2.6-1.5 3.9-2.1-.4 5.2.1 11 1.8 15.8-.9.9-1.4 2-2.6 2.6zm6.5-3.1c-1.2.3-2.2 0-3.4 0-.8-5.4-1.3-10.5-1.2-16 1.1-.5 2.1-1.5 3.3-2 1.4-.5 2.9-.7 4.4-.6-1.8 5-2.7 11.8.1 16.6-1 1-2 1.7-3.2 2zm3.6-1.8c-.4-2.7-1.2-5.1-1.2-7.8 0-3 .6-5.9 1.7-8.7.3 0 .5-.2.6-.5 1.4-.3 2.6-.4 4 0-1.2 5.6-.5 11.6 1.7 16.8-1.1.2-2.2.5-3.3.6-1.3 0-2.4-.4-3.5-.4zm10.4.1c-1 0-1.9-.3-2.9-.4-2-5.5-2.5-10.8-1.8-16.7.2-.1.3-.2.3-.3 2.8-1.5 5.9-1.5 8.5.5.2.2.4.1.5-.1.7 5.8.2 11.1-1.8 16.6-.8.3-1.8.4-2.8.4zm7.2.3c-1.1 0-2.1-.3-3.1-.5 0-.1-.1-.2-.2-.2 2.1-5.2 2.8-11.1 1.6-16.6 1.4-.3 2.6-.3 4 0 .1.2.3.5.6.5 1.1 2.8 1.7 5.7 1.7 8.7 0 2.7-.8 5.2-1.2 7.8-1.2-.1-2.3.3-3.4.3zm6.9 1.4c-1.2-.3-2.2-1-3.1-1.9 2.8-4.8 1.9-11.6.1-16.6 1.5-.1 3 .1 4.4.6 1.2.5 2.2 1.4 3.3 2 .1 5.5-.4 10.6-1.2 16-1.3-.1-2.3.3-3.5-.1zm6.5 3.1c-1.2-.6-1.7-1.6-2.6-2.5 1.7-4.9 2.2-10.6 1.8-15.8 1.4.6 2.7 1.2 3.9 2.1 1.2.8 2.1 1.8 3.2 2.8 0 2.6.3 5-.1 7.7-.4 2.2-1.1 4.2-1.9 6.3-.1-.1-.2-.1-.3-.1-1.4 0-2.6.2-4-.5zm7.7 5.3c-.5-.2-.9-.5-1.3-.9-.8-.8-1.2-1.9-1.3-3.1 0-.2-.1-.3-.3-.3 2.2-3.8 3.4-9.4 2.5-13.8.4.2.9.4 1.3.6.4.2.9.5 1.3.6.5.6 1.1 1.3 1.6 2s.9 1.5 1.4 2.2c.1 4.9-1.4 9.3-4 13.5h-.1V58c-.4-.5-.7-.5-1.1-.7zm11.4 22c-.1-.5-.1-1-.1-1.5.2.1.4.1.5-.1 1.2-1.2 2.3-2.4 3.4-3.6.8-.8 1.7-1.7 2.4-2.6.1.1.2.1.3.1.1.6.2 1.2.2 1.9 0 .8-.1 1.7-.1 2.5-.1 0-.3.1-.4.2-.8 1.2-1.7 2.3-2.6 3.3-.7.7-1.5 1.3-2.2 2.1 0-.1 0-.2-.1-.2-.5-.8-1.1-1.2-1.3-2.1zm6.9 1.5c-.2.6-.4 1.1-.6 1.7-.2-.1-.6 0-.6.3-.6 2.1-2.1 3.4-3.9 4.5.1-.1.1-.3 0-.4-1.1-1.5-1-2.9-.3-4.5 1.1-.4 2.1-1.6 2.9-2.4.9-1 1.8-2.1 2.6-3.2.1 0 .1-.1.1-.2v-.1c1.1.5 0 3.6-.2 4.3zM98.2 38.7c0-.2-.3-.3-.4-.1-1.5 2.5.4 6.1 3 7 .3.1.5-.3.2-.5-2.3-1.6-2.9-3.7-2.8-6.4zm2.9 3.3c1.6-2 2-5 .2-7.1-.1-.2-.4 0-.3.2 1.1 2.1 1.1 4.5-.4 6.4-.2.3.2.8.5.5zm-.5-5.6c.2 0 .3-.3.1-.4-1.5-.8-2.7-1.8-2.8-3.6 0-.3-.5-.3-.5 0-.2 1.8 1.2 4.1 3.2 4zm.5-3.7c.2-.4.6-.9.7-1.4.1-.3-.3-.5-.5-.3-.4.3-.6.9-.8 1.3-.3.5.3.9.6.4zm-7.6 11c-.7 0-1.3.2-2-.2-.6-.3-.9-.9-1.1-1.6-.1-.4-.7-.3-.7.1.1.9.5 1.7 1.3 2.2.8.5 1.9.6 2.6 0 .3-.2.1-.5-.1-.5zm-1.6-4.9c.4-1.2.6-2.7.1-3.8-.1-.3-.5-.3-.6.1-.1 1.2.1 2.3-.3 3.5-.1.4.6.6.8.2zm-8.5 3.5c-.2-.2-.6 0-.5.3.4 1.6 1.7 3.1 2.9 4.2.3.3.7-.1.5-.5-1.1-1.3-1.8-2.8-2.9-4zm1.9-2c.8-1.8 1-4-.1-5.7-.2-.3-.6-.1-.5.2.3 1.8.6 3.5-.2 5.2-.1.4.6.7.8.3zm-1.3-4c.2.2.6 0 .5-.3-.2-.6-.6-1.1-.9-1.7-.2-.3-.6 0-.5.3.3.6.5 1.2.9 1.7zm-5.1 8.6c-.5 1.3-.6 2.7-1.2 4-.2.5.5.9.7.4.6-1.3 1.2-2.9 1-4.3 0-.4-.4-.3-.5-.1zM74 43c-.2-.2-.5 0-.4.3.4 1.2 1.1 2.3 1.8 3.4.3.5 1.1 0 .8-.5-.7-1.1-1.3-2.2-2.2-3.2zm3.5-4.7c-.2-.2-.5 0-.5.3.3 1.4.6 2.6 0 4-.2.5.5 1 .8.5.6-1.6.8-3.5-.3-4.8zm-4.3 14.3c-.6 0-1.2.3-1.8.2-.7-.1-1.4-.5-1.8-1.1-.2-.3-.7 0-.5.3.7 1.3 3.2 2.6 4.3 1.1.2-.2 0-.5-.2-.5zm-2.5-3.4c.2.2.6.2.7-.1.4-1.1.6-2.2.3-3.4-.1-.3-.6-.2-.6.1 0 1-.2 2-.5 2.9-.2-.2-.4-.3-.7-.4-.3-.2-.5-.4-.8-.6-.5-.5-.8-1-1-1.7-.2-.5-.9-.3-.8.2.2.8.6 1.4 1.1 2 .4.5 1.2 1.2 1.9 1.2.3-.1.4-.2.4-.2zm-2.5 9.6c.2-.2 0-.7-.3-.6-.8.2-1.7.1-2-.8-.2-.6-1.1-.3-.9.2.4 1.3 2.1 2.2 3.2 1.2zM62 53.1c-.4-.2-.7.5-.3.7.5.2 1.1.5 1.6.7.5.2.9.4 1.4.5.2 0 .4-.3.2-.5-.4-.3-.8-.5-1.3-.7-.6-.3-1.1-.5-1.6-.7zm4.2.2c0-1.4-.2-2.8-1-3.9-.1-.2-.4-.1-.4.2.2 1.3.6 2.5.6 3.8 0 .4.8.4.8-.1zM65 65.4c0-.2-.2-.3-.4-.2-.7.4-1.5 1.1-2.3.4-.3-.2-.7.1-.4.4.8.8 2.9.9 3.1-.6zm-3.4-4.1c-.5 0-1 .2-1.5.1-.6-.1-1.1-.3-1.5-.6-.3-.3-.8.3-.5.6.9.7 2.7 1.3 3.7.5.2-.2.1-.6-.2-.6zm-1.1 10.8c.5-1.4.2-3.2-1.2-4.1-.2-.1-.5.1-.3.3.7 1.1 1.2 2.2.8 3.6-.1.4.6.6.7.2zm-3.3-4.5c-.2-.2-.6-.2-.6.2s.2.8.3 1.2c.1.4.3.8.4 1.3.2.5.9.3.8-.2-.1-.4-.3-.8-.4-1.3-.2-.5-.3-.9-.5-1.2zm-1.1 10.3c.4.5 1.7 1.3 2.2.5.1-.1 0-.3-.1-.4-.2-.2-.5-.1-.7-.1-.4 0-.7-.2-.9-.4-.3-.3-.8.1-.5.4zm-2.2-2.6c.3.6 1 1.4 1.8 1.4.3 0 .4-.3.2-.5s-.5-.3-.7-.5c-.3-.2-.5-.5-.7-.8-.2-.4-.8-.1-.6.4zm53.5-32.7c0-.3-.4-.3-.5-.1-.6 1.3.2 2.8 1.2 3.7.3.3.8-.2.5-.5-.8-.9-1-1.9-1.2-3.1zm1.3-3.9c0 1.3.2 2.4-.4 3.6-.2.4.4.8.7.4.6-1.2.9-2.9.2-4.1-.2-.2-.5-.2-.5.1zm.1-.9c0-.9.1-2-.2-2.8-.1-.2-.4-.3-.5 0-.2.9 0 1.9.1 2.8 0 .4.6.4.6 0zm8 5.5c-.4 1.2-.8 2.2-1.9 2.9-.4.3 0 .9.4.7 1.2-.7 2.3-2.1 2.1-3.5-.1-.4-.5-.4-.6-.1zm-.7-6.2c-.1-.3-.5-.3-.6 0-.2.8-.3 1.6-.5 2.3-.3.9-.8 1.7-1.4 2.5-.3.4.2.9.5.5 1.2-1.3 2.4-3.4 2-5.3zm0-.4c.3.2.6-.3.3-.5-.5-.4-1-1-1.3-1.6-.3-.5-.4-1.1-.7-1.7-.1-.2-.4-.2-.5.1-.4 1.5 1 3.1 2.2 3.7zm8.5 9.5c-.4.7-.7 1.4-1.2 1.9-.6.6-1.3 1-2.1 1.2-.4.1-.2.7.2.6 1.6-.3 3.7-1.7 3.6-3.6-.1-.3-.4-.3-.5-.1zm-1.8 0c-.6-1.1-.7-2.4-1.1-3.5-.1-.2-.4-.2-.4 0-.4 1.3.2 2.8.9 3.9.3.4.8.1.6-.4zm1.7-3c.7-.7 1.5-2.1 1-3.2-.1-.2-.4-.1-.5.1-.2.4-.2.9-.3 1.3-.2.5-.4.9-.8 1.3-.3.3.3.8.6.5zm-1.2-3.6c-.2-.5-.3-1-.3-1.5 0-.4.1-.9-.1-1.3-.1-.2-.4-.3-.5-.1-.5.9-.1 2.2.2 3 .1.5.8.4.7-.1zm7.7 12.2c0-.3-.4-.3-.5-.1-.4.6-.8 1.1-1.3 1.6-.6.5-1.3.7-2 .7-.5 0-.5.8 0 .8 1.6 0 3.8-1.1 3.8-3zm-2.8-1.5c1.6-.5 3.6-1.7 3.9-3.5 0-.2-.3-.5-.4-.3-.5.6-.9 1.3-1.5 1.8-.6.6-1.4 1-2.2 1.3-.5.1-.3.8.2.7zm2.2-4.8c-.1-.7-.1-1.4 0-2 .1-.6.2-1.1.2-1.7 0-.2-.3-.3-.4-.2-.8 1.1-.7 2.8-.5 4 .1.5.8.3.7-.1zm1.4 13.1c-.5-.1-.6.6-.2.7 1.4.3 3.5-.3 3.7-1.9 0-.3-.3-.5-.5-.3-.8 1-1.7 1.8-3 1.5zm1.8-3.5c1.3-.5 2.8-1.7 2.8-3.3 0-.2-.2-.3-.3-.1-.4.5-.7 1.1-1.1 1.6-.4.5-1 .9-1.6 1.2-.4.2-.2.8.2.6zm3.5 12.3c1.1 0 2.9-.6 3.3-1.8.1-.3-.3-.6-.5-.4-.4.2-.8.7-1.2.9-.5.3-1 .4-1.6.5-.5.1-.5.9 0 .8zm1.7-4.5c0-1.1.4-2 .6-3 0-.2-.2-.5-.4-.3-.8.8-.9 2.2-1 3.3 0 .6.8.6.8 0zm2.2-1.5c.2-1.2.7-2.5.6-3.8 0-.2-.3-.4-.5-.1-.6 1.1-.7 2.5-.9 3.7 0 .5.7.7.8.2zm-2 10.3c-.4-.4-.9.2-.6.6.6.6 1.3.9 2.1.9.7 0 1.6-.2 2-.8.1-.2-.1-.6-.4-.5-.5.2-.9.5-1.5.5s-1.2-.2-1.6-.7zm5.4-2.4c.2-.2.1-.5-.2-.6-.4-.1-.7 0-1.1-.1-.4-.1-.8-.2-1.1-.5-.4-.3-1.1.3-.6.6.7.7 2.1 1.3 3 .6zm-1.8 9.1c.2 0 .3-.3.1-.4-.4-.3-.8-.4-1.1-.8-.3-.4-.8.2-.5.5.3.4.9.8 1.5.7zm1.3-2.4c.3.2.6.4 1 .4.3.1.6-.3.3-.6s-.6-.4-.9-.5c-.4-.2-.8.5-.4.7zm-.1 5.7c-.4.3-.6.8-.9 1.2-.4.4-.8.7-1.3.9-.5.2-.3.9.2.7 1-.4 2.5-1.3 2.5-2.6 0-.2-.4-.3-.5-.2zm-55.3 86c-.8-3.2-3.2-9.9-4-13.3-.9-4-1.7-4.1-1.6-3.6.1.8.2 1.7.3 2.6-.1-.1-.3 0-.3.1-.3.4-.3 1-.5 1.5-.2.6-.5 1.1-.9 1.6-.2.3.2.5.4.3.5-.4.9-1.1 1.1-1.7.1-.3.2-.7.3-1 .4 1.9 1 4 1.6 5.9h-.2c-.2.2-.2.3-.2.6-.1.5-.2.9-.4 1.4-.3.8-.9 1.4-1.5 2-.2.2.1.5.3.4.9-.4 1.5-1.2 1.9-2.1.2-.4.4-.9.5-1.4 1.3 3.9 2.6 7.2 2.6 7.3.5 2.8-.1 4.9-1.3 7.3-1-.4-2-.6-2.9-1.4-.5-.4-.9-.8-1.3-1.3-.2-.3-.5-1.1-.5-1.2-1.6-8.5-1.9-14-2.4-22.6 0-.3-.5-.3-.5 0-.2 3-.3 3.3-.1 6.3-.6-.2-1.2-.6-1.6-1.2-.4-.6-.5-1.2-.7-1.8-.1-.3-.5-.2-.6.1-.2.8.3 1.7.8 2.3.5.7 1.3 1.1 2.1 1.3h.1c.3 5.3 1.1 10.7 2.1 15.8 0 .1-.4 2.4-1.1 3.5-.4.6-.8 1.2-1.3 1.7l-.3.3c-.5-2.8-.9-5.5-1.4-8.3.2.3.6.5.9.6.6.2 1.2.1 1.7-.1.3-.1.1-.5-.2-.5-.4.1-.9.1-1.3-.1-.4-.1-.6-.5-1-.6h-.2c-.1-.6-.2-1.3-.3-1.9.1.1.2.1.3 0 .7-.5 1.2-1.5 1.2-2.4 0-.2-.3-.3-.4-.1-.2.4-.3.7-.6 1.1-.2.3-.5.6-.7.9-1.2-7.5-2.5-15-3.8-22.5-.1-.4-.8-.3-.7.1.5 11.3 2.7 23.3 5.9 34.2-.1.1-.2.3-.3.4-.1.2 0 .4.2.4.1 0 .2 0 .3-.1.2.6.5 2 .5 2.1-.3 3.1-1.4 5.4-3.2 7.8-.6-.3-1.3-.3-1.9-.5-.8-.3-1.5-.7-2.2-1.1-.5-3.2-1-6.5-1.5-9.7.2.7.9 1.4 1.4 1.9.7.6 1.5 1.3 2.4 1.5.3.1.4-.3.2-.5-.8-.5-1.5-.9-2.2-1.6-.3-.3-.6-.7-.8-1.1-.2-.3-.3-.6-.6-.8-.2-.1-.4 0-.4.2-.3-2-.5-4-.7-6v-.1c.7 1.3 2.3 2.6 3.6 2.5.3 0 .3-.3.1-.5-.7-.5-1.4-.8-2-1.3-.6-.5-.9-1.2-1.4-1.8-.1-.1-.3-.1-.4-.1-.4-6 .1-15.5.9-23.9 0-1.4-.8-1.1-.8-.9-2.4 18.7-.2 32.9 1.8 44.9 0 .1.1.2.2.3-.2.5-.2 1-.4 1.5-.2.6-.6 1.1-.9 1.6-1.2-.3-2.5 0-3.7-.5-1.2-.5-2-1.4-2.9-2.4.1-.1.1-.2.1-.3-1-8.5-1.5-17-1.2-25.6.3-8.6 1.2-13.5 2.1-22 0-.3-.4-.3-.5-.1-2.8 9.4-3.5 18.5-3.3 27.7-6.5-1-4.5-8.3-2.8-13.4 0 .2.1.5.1.7.2.5.5.9.9 1.2.2.2.5-.2.3-.4-.3-.3-.5-.7-.6-1.1-.1-.3 0-.7-.3-.9-.1-.1-.1-.1-.2 0-.1 0-.1.1-.1.2.4-1.2.8-2.2 1-3 1.2-4.4 1.9-7.8 1.7-12.3 0-.3-1.8 6.8-1.8 7.2-1.2 7.1-1 4.9-2.8 11.6-1.1 4.1-2 10.3 4.5 11.1.2 6.2.8 12.6 1.7 19.1 0 .2.1.4.3.4.5 1.5 1.8 2.6 3.2 3.2 1.1.5 2.9 1 4.1.4.1 0 .2 0 .3-.1.7-.6 1.1-1.4 1.4-2.1.2-.6.6-1.4.4-2v-.2c-.1-.5-.2-1-.2-1.5.5.3 1.1.6 1.7.8.8.3 1.8.7 2.6.3.1-.1.1-.2.1-.3 2.2-2 3.5-5.2 3.6-8.2 0-.3-.7-1.7-.8-2.3.9-.5 1.6-1.6 2.1-2.4.5-.8.9-1.8 1.1-2.7.4.7 1.2 1.4 1.7 1.8.8.6 1.8 1.2 2.9 1.4.1.2.3.3.5.1l.1-.1h.1c.4 0 .5-.4.4-.6 2.3-2.8 1.2-7.9 1-7.9zm56.5 14.7c-.5-20.9-1.9-25.3-4-37.2 0-.4-1.2-4.4-1.1-3.9 1.6 16.5 3.9 25.2 4 41.8-.6.8-1.2 1.9-2 2.5-.5.4-1.2.6-1.8.9-.2-.3-.5-.5-.8-.8-.5-.4-.9-.9-1.4-1.4-.5-.5-.9-1.1-1.3-1.7-.3-.4-.7-1.1-.7-1.2 1.7-15.4 1.4-22.1-.4-37.4-.1-.6-.9-.6-.9 0 .5 7.9.3 5.7.6 13.6.2 7.9-.1 23.8-.1 24 0 .5.2 1 .5 1.5-2.3 1.8-4.5 2.9-7.6 2.8h-.2c-.3-1.1-.8-2.2-1.2-3.3-.4-1-.8-4-.5-4.6.2-.1.4-.4.3-.6 5.1-9.6 7.3-21 5-31.7-.1-.5-.9-.4-.9.1.4 6.1 1.1 11.9-.3 18-1 4.5-2.9 8.6-4.6 12.9-1.3-1.5-1.7-5.6-1.8-7.3-.1-1.3.1-2.6.1-3.9.1-2.9.2-5.8.3-8.8.2-5.5.4-5.6.3-11.1 0-.4-.5-.3-.6 0-.7 7.5-.7 9.6-1 17.1-1.2-1.7-1.6-3.5-2-5.6-.1-.3-.6-.3-.6 0-.4 2.3.7 4.6 2.2 6.2.1.1.2.1.3.1v1c-.1 1.6-.4 3.7-.5 5.7-.9-1.3-1.4-2.8-1.9-4.3-.1-.3-.5-.2-.5.1 0 1.9.9 3.6 2.1 4.9.1.1.2.1.3.1 0 2.8.5 5.4 2.8 6.9-.2.7-.5 1.3-.7 2 0 .1-1.8.3-2.7-.1-1-.4-2.4-1.9-2.4-2 0-2 .1-4 .1-6.1v-.1c.2-7.4.3-13.4 0-20.8 0-.3-.4-.3-.4 0-.7 7.1-.6 12.7-.6 19.9-1-1.2-1.6-2.5-1.7-3.9 0 .2.2.3.4.2.3-.3.7-.6.9-.9.1-.2-.1-.4-.3-.3-.4.2-.7.6-1 .9-.1.1-.1.1-.1.2 0-.4 0-.9.1-1.3l.3-3.3c0-.3 0-.6.1-.8.2.4.3.8.7 1.1.1.1.4 0 .3-.2-.1-.5-.4-.9-.7-1.3-.1-.1-.2-.1-.3 0 .1-1.1.1-1.9.1-3.3-.1-1.1-.1-3.5-.3-5.4.1.5.3.9.7 1.2.2.2.4-.1.4-.4-.2-.5-.5-1-.7-1.4-.1-.1-.3-.1-.3 0v.4c-.1-.8-.1-1.5-.2-1.9 0-.2-.2 1.8-.2 2-.2 5.1-.2 5.7-.8 12-.3 3.3-.3 6.1 2.6 8 0 1.9 0 3.9-.1 5.8 0 .3 1.5 4.4 6.4 3.5.3.7.7 1.4 1 2.1.5 1.1 1 2.2 1.6 3.3 0 0 .1 0 .1.1 0 .2.2.5.5.5 2.9.2 6.2-.9 8.1-3.2.3.4.6.7.9 1 .6.6 1.5 1.8 2.5 2.2 0 .2.1.3.3.3 1 .2 2-.6 2.7-1.2 1.1-1.1 2.5-2.7 2.6-4.2zm-62.1-10.1c-.2.2-.1.6.2.5 2-.7 3.8-3.1 3.9-5.3 0-.4-.5-.4-.6-.1-.3 1-.6 1.9-1.2 2.7-.5.9-1.4 1.5-2.3 2.2zm.1-5.6c-.5-.7-.6-1.5-1-2.3-.1-.2-.4-.1-.5.1-.1 1.6 1.7 4.1 3.4 3.8.2 0 .2-.3.1-.4-.8-.3-1.4-.5-2-1.2zm.5-6.2c-.6-.5-1.2-.8-1.7-1.3-.4-.5-.7-1.3-1.3-1.6-.2-.1-.3 0-.3.2 0 .7.7 1.5 1.2 2s1.2 1.2 1.9 1.2c.2-.1.4-.3.2-.5zm-1.9-6.6c.2.1.3-.1.3-.3-.2-.5-.6-.9-.9-1.4-.3-.4-.4-.9-.9-1.1-.1 0-.2.1-.3.1-.2.5.3 1.1.6 1.5.3.5.6 1 1.2 1.2zm-4.1 4.6c.2-.4.5-1.1.2-1.5-.1-.1-.3-.2-.4-.1-.3.3-.2.8-.4 1.2-.2.4-.5.7-.7 1.1-.1.1 0 .3.2.3.5 0 .9-.5 1.1-1zm-1.6 2.8c.3.7 1 1.3 1.6 1.7.4.3 1.3.6 1.4-.1 0-.2-.1-.3-.3-.3-1-.1-1.6-1-2.5-1.6-.1-.2-.3.1-.2.3zm2.8 10.3c0 .6-.1 1.2-.3 1.7-.2.4-.6.7-.6 1.2 0 .1.1.2.2.2.6 0 .9-.7 1.1-1.2.2-.6.3-1.3.1-2-.1-.2-.5-.2-.5.1zm-3.4 7c-.4 2.6-1.6 5.2-3.2 7.3-.2.2.1.6.3.4 1.2-.9 1.9-2.1 2.4-3.4.5-1.2 1.3-2.7 1.2-4.1 0-.5-.6-.6-.7-.2zm-1.1-7.2c-.6.6-.7 1.8-1.1 2.6-.5.9-1.2 1.7-1.7 2.6-.1.2.1.5.3.3.9-.6 1.6-1.6 2.1-2.5.4-.8 1.1-2 .8-2.9-.1-.1-.3-.2-.4-.1zm-.5-6.3c-.3.2-.3.5-.4.8-.2.5-.4 1-.7 1.4-.5.8-1.2 1.4-2 2-.2.2.1.4.3.4.9-.4 1.7-1.1 2.3-1.9.4-.6 1.3-1.8 1-2.6-.1-.1-.3-.2-.5-.1zm-2 1.2c.2.1.4-.3.2-.4-.4-.2-.8-.6-1.2-.9-.4-.4-.6-.8-.8-1.2-.2-.3-.7-.1-.6.2.2 1.2 1.3 2 2.4 2.3zm.7-5.6c-.2.5-.4 1-.7 1.5-.3.4-.7.8-1 1.2-.1.1 0 .4.2.3 1.1-.4 2-1.8 2.2-2.9.1-.4-.5-.5-.7-.1zm-1.1.3c.2 0 .4-.2.2-.3-.4-.3-.9-.7-1.3-1.1-.4-.5-.5-1.1-.8-1.6-.1-.2-.4-.2-.4.1-.2.6.3 1.4.7 1.9.4.4.9.9 1.6 1zm.4-5.8c-.3.4-.2 1-.5 1.5-.2.5-.6.9-.8 1.3-.1.2.1.4.3.3.6-.3 1-.9 1.2-1.4.2-.5.5-1.2.2-1.7-.1-.2-.3-.2-.4 0zm-2.6-1.4c-.2.4.1.9.3 1.2.3.4.7.6 1.1.8.3.1.4-.3.2-.4-.3-.2-.7-.5-.9-.9-.2-.3-.2-.6-.5-.8 0-.1-.1-.1-.2.1zm1.4-.9c.8-.3 1.9-1.8 1.1-2.5-.1-.1-.3-.1-.3 0-.2.3-.2.7-.3 1-.2.4-.4.7-.7 1-.3.3-.1.7.2.5zm.2-2.3c-.2-.5-.2-1-.4-1.5-.1-.2-.3-.2-.4 0-.2.6.1 1.2.4 1.7.1.3.5 0 .4-.2zm-5 41.2c1.1-.1 1.8-1 2.4-1.8.6-.8 1.8-2 1.4-3-.1-.2-.4-.3-.5-.1-.7 1.5-1.7 3.8-3.4 4.3-.4.1-.2.6.1.6zm-1.3-4.5c.7.6 1.5 1.2 2.3 1.3.3.1.5-.3.2-.5-.7-.5-1.5-.8-2.1-1.4-.5-.5-.9-1.3-1.5-1.7-.2-.1-.4 0-.4.2.1.7 1 1.6 1.5 2.1zm3.6-7.5c-.3.3-.3.5-.5 1-.2.6-.5 1.1-.8 1.6-.6 1-1.3 1.9-2.2 2.6-.2.2.1.5.3.4 1-.7 1.8-1.4 2.5-2.5.5-.7 1.4-2.1 1.1-3-.1-.2-.3-.2-.4-.1zm-2 2.1c.3.1.5-.3.2-.5-.9-.5-1.6-1.1-2.1-2-.5-.9-.7-1.9-1.3-2.8-.2-.2-.5-.1-.5.1 0 1.1.7 2.5 1.4 3.4.6.9 1.3 1.5 2.3 1.8zm-1.9-4.8c-.2.1-.1.4.1.4.9-.1 1.6-.6 2.1-1.4.7-.9 1.4-2 1.7-3 .1-.3-.3-.6-.5-.3-1.1 1.4-1.5 3.8-3.4 4.3zm-2.5-7.5c-.1.9.8 1.8 1.3 2.4.7.7 1.6 1.5 2.5 1.9.2.1.5-.1.3-.4-.6-.7-1.4-1.3-2-1.9-.3-.3-.6-.7-.9-1.1-.2-.4-.4-.8-.8-1.1-.2-.1-.4 0-.4.2zm5.3-3c-.6.5-.9 1.2-1.4 1.8-.5.6-1.1 1-1.6 1.6-.2.2 0 .5.2.4.8-.3 1.4-.8 1.9-1.4.5-.5 1.2-1.2 1.5-2 .1-.4-.3-.6-.6-.4zm-4.4-2.5c-.2.7.4 1.6.8 2.1.4.6 1 1.2 1.7 1.4.3.1.5-.3.3-.5-.5-.5-1-.9-1.4-1.5-.3-.5-.4-1.2-.8-1.6-.2-.2-.5-.1-.6.1zm2-.1c-.2.2.1.5.3.4.6-.3 1.2-.8 1.6-1.4.4-.5.9-1.1 1-1.7.1-.3-.3-.6-.5-.3-.4.5-.6 1.1-1 1.6s-.9.9-1.4 1.4zm-1.7-5.3c-.4.5.2 1.4.5 1.8.4.6 1 1.2 1.7 1.4.3.1.5-.3.3-.5-.4-.5-1-.9-1.4-1.4-.3-.4-.5-1.2-.9-1.3-.1-.1-.1-.1-.2 0zm4.3-2.3c-.1-.1-.2-.1-.3-.1-.2.1-.3.2-.4.4-.1.3-.3.6-.5.8-.4.5-1 .7-1.6.9-.3.1-.3.6.1.6.8 0 1.5-.4 2-.9.4-.2 1.2-1.1.7-1.7zm-3.7-2.9c-.1-.1-.3 0-.4.1-.2.6.4 1.3.7 1.8.4.6.9 1.1 1.5 1.6.2.2.5-.1.3-.3-.5-.5-.9-1.1-1.2-1.8-.3-.5-.4-1.2-.9-1.4zm3.7-1.8c-.5.1-.8.7-1.1 1.1-.4.5-.9.9-1.3 1.4-.1.2 0 .5.2.4.7-.2 1.2-.6 1.7-1.2.3-.4 1-1 .7-1.6-.1-.1-.2-.1-.2-.1zm-1.8-.3c-.3-.6-.5-1.2-.7-1.9-.1-.6-.1-1.2-.3-1.8-.1-.2-.3-.2-.4 0-.4 1.3.3 2.8 1 3.8.2.3.5.1.4-.1zm.4-2.9c.5-.3.9-.6 1.2-1.1.3-.4.7-1 .6-1.6 0-.2-.2-.3-.4-.1-.3.4-.4.9-.7 1.3-.3.4-.6.9-1 1.3-.1.1.1.3.3.2zm.1-2.7c-.4-.5-.5-1.1-.7-1.8 0-.1-.3-.1-.3 0-.2.8.3 1.5.8 2 .1.2.3 0 .2-.2zm-9.7 17.8c-.2.9.3 1.9.7 2.7.5.9 1.2 1.7 2.1 2.1.2.1.5-.2.3-.4-.6-.7-1.3-1.3-1.7-2.1-.4-.8-.5-1.6-.9-2.4-.1-.2-.4-.2-.5.1zm3.6-.5c.3-.4-.2-.9-.5-.5-.3.2-.6.5-.9.8-.3.2-.6.4-.9.7-.2.2 0 .5.2.4.8-.1 1.7-.8 2.1-1.4zm-1.5-.5c.2.1.3-.1.3-.3-.2-.4-.5-.8-.7-1.3-.2-.4-.2-1-.5-1.3-.1-.1-.3-.1-.3.1-.2.5.1 1 .3 1.5.1.5.4 1 .9 1.3zm1.2-4c-.3.2-.5.4-.7.6-.2.2-.5.4-.8.7-.2.2 0 .5.2.4.6-.2 1.4-.8 1.6-1.3.2-.3 0-.6-.3-.4zm.4-3.6c-.3.1-.5.4-.7.6-.2.2-.5.5-.8.7-.2.2.1.5.3.4.6-.2 1.4-.8 1.6-1.4.1-.3-.2-.5-.4-.3zm-.7-1.4c0-.1-.2-.2-.3-.1-.5.4-.3 1.2 0 1.6.2.2.5 0 .4-.2s-.2-.4-.1-.7v-.6zm1.6-2c0-.1.1-.2 0-.3-.1-.2-.3-.2-.5-.1-.1.1-.2.3-.3.4-.2.2-.4.3-.6.4-.3.1-.1.6.2.5.5-.1 1-.4 1.2-.9zm-.9-2.7c-.4.5-.1 1.4.3 1.9.2.2.5 0 .4-.2 0-.3-.1-.6-.2-.9 0-.2 0-.4-.1-.6 0-.4-.3-.3-.4-.2zm.8-1c.5-.1 1-.3 1-.8 0-.2-.2-.4-.4-.3-.3.2-.5.5-.8.6-.1.2 0 .6.2.5zm.7-1.8c.2.1.4-.1.3-.3-.1-.2-.2-.4-.3-.7-.1-.2-.1-.4-.2-.6-.1-.2-.4-.2-.5 0-.2.5.1 1.3.7 1.6zM75 183.7c.1.6.8 1.1 1.4.8.2-.1.2-.4 0-.5-.2-.1-.4-.1-.6-.2-.2-.1-.3-.2-.5-.4-.1-.1-.3.1-.3.3zm45.2-6.2c.6 0 1-.6 1.3-1 .4-.5.7-1.1.8-1.7.1-.3-.3-.5-.5-.2-.3.5-.6 1-1 1.4-.3.4-.8.7-.9 1.1 0 .2.1.4.3.4zm8-10.1c-.6.6-.9 1.5-1.6 2.1-.6.6-1.4 1.2-2.2 1.6-.3.1-.1.6.2.5 1-.3 1.8-.8 2.6-1.5.6-.6 1.5-1.6 1.4-2.5.1-.3-.2-.4-.4-.2zm-1.8.3c.2.2.6 0 .5-.3-.2-.6-.6-1.2-.7-1.9-.2-.7-.1-1.6-.4-2.3-.1-.3-.5-.3-.6 0-.2.8 0 1.7.2 2.5s.5 1.5 1 2zm3.9-6.9c.2-.4-.3-.9-.6-.5-.5.6-.9 1.3-1.4 1.9-.5.6-1.1 1.1-1.7 1.5-.2.2 0 .6.3.5 1.4-.5 2.7-2.1 3.4-3.4zm-2.4.2c.2.2.5-.1.4-.4-.3-.6-.8-1-1.2-1.5-.4-.5-1.1-1-1.1-1.7.1-.5-.7-.5-.8-.1-.3.7.2 1.3.7 1.8.6.6 1.3 1.4 2 1.9zm.9-5.2c-.5.6-1.1 1.2-1.7 1.7-.2.2.1.6.3.4.8-.4 1.4-.9 2-1.6.5-.5 1.1-1.3 1.1-2 0-.2-.2-.3-.4-.2-.6.4-.9 1.2-1.3 1.7zm-1.1-1.3c.3.2.6-.2.4-.5-.5-.5-.9-1.1-1.2-1.7-.2-.5-.2-1.2-.5-1.6-.1-.1-.4-.1-.5.1-.4.6.1 1.5.3 2 .4.7.9 1.3 1.5 1.7zm.2-3.7c.6-.3 1.1-.7 1.5-1.3.3-.4.8-1.1.5-1.7-.1-.1-.2-.2-.4-.1-.4.3-.5.9-.8 1.3-.3.5-.8.9-1.2 1.3-.2.3.2.7.4.5zm-5 3.3c-.3.2-.5.5-.7.9-.2.4-.5.8-.8 1.1-.2.3.1.6.4.4.6-.5 1.5-1.3 1.4-2.1.1-.2-.2-.4-.3-.3zm-1.1-.2c.2 0 .2-.2.2-.3-.2-.4-.6-.6-.7-1-.2-.4-.2-.9-.3-1.3-.1-.2-.3-.2-.4-.1-.6.9.2 2.7 1.2 2.7zm-.2-3.8c.4-.5.9-1 1.3-1.5.3-.4.8-.8.8-1.3 0-.2-.2-.3-.3-.2-.5.2-.8.7-1.1 1.1-.4.5-.7 1.1-1.1 1.6-.2.2.2.5.4.3zm6 32.9c2 0 4.8-1.4 6-3.1.2-.3-.2-.7-.5-.5-.9.5-1.7 1.3-2.7 1.8-1 .5-2 .8-3 1.2-.2.2 0 .6.2.6zm2.8-2.9c-.3-1.6-1-3.1-1.1-4.8 0-.4-.5-.4-.6-.1-.3.8 0 1.7.2 2.5.3.9.6 1.7.9 2.6.3.4.7.1.6-.2zm3.4-6.2c-.7.1-1.2.8-1.8 1.1-.6.3-1.4.4-1.7 1-.1.2.1.4.3.4.7-.1 1.5-.5 2.1-.9.5-.3 1.3-.8 1.3-1.5 0 .1-.1-.1-.2-.1zm-2-3.8c-.1-.2-.4-.2-.5-.1-.7 1.1-.1 2.9.5 3.9.2.3.7.1.5-.2-.2-.6-.4-1.3-.5-1.9 0-.6.1-1.2 0-1.7zm2.4-2.2c-.4.2-.6.6-.8 1-.3.4-.6.8-1 1.2-.2.2.1.6.3.4.7-.5 1.9-1.4 1.8-2.4 0-.1-.2-.3-.3-.2zm-1.9-1.3c.1.4.1.9.4 1.3.1.2.4.1.4-.1 0-.4-.1-.8-.2-1.2 0-.3 0-.6-.2-.8-.1-.1-.2-.1-.2 0-.3.2-.3.5-.2.8zm1-1.2c.6-.3 1.3-1.1 1-1.8-.1-.1-.2-.1-.3-.1-.3.2-.3.4-.5.7-.2.3-.4.6-.6.8-.1.3.2.5.4.4zm.8-2.8c.2.1.5-.2.3-.4-.3-.3-.5-.6-.6-1-.1-.3-.1-.7-.2-1.1-.1-.2-.3-.2-.4-.1-.6 1 .1 2.2.9 2.6zm-.8-3.9c.5-.1.8-.6 1.1-.9.3-.4.6-.7.5-1.2 0-.1-.2-.2-.3-.2-.4.2-.6.6-.8.9-.3.4-.7.7-.8 1.1-.1.2.1.3.3.3zm.8-3.2c.3.1.5-.4.2-.5-.4-.3-.6-.9-.7-1.4-.1-.3-.4-.2-.5 0-.3.8.3 1.6 1 1.9zm-.5-5.2c.3-.4.8-1.1.8-1.7 0-.1-.1-.2-.3-.2-.5.3-.8 1.1-1 1.6-.1.4.3.5.5.3zm8.5 33.7c.2.1.4-.2.2-.3-.9-.6-1.8-1.6-2.3-2.5-.5-.9-.7-1.8-1.1-2.7-.1-.3-.4-.1-.5.1-.2 2.3 1.8 4.5 3.7 5.4zm.3-8.4c-.5.6-.8 1.4-1.2 2.1-.5.7-1.1 1.3-1.6 2-.2.2.2.5.4.4 1.4-.6 2.9-2.6 3-4.2-.2-.3-.5-.5-.6-.3zm-1.9.3c.3.1.6-.3.3-.5-.7-.4-1.3-1-1.7-1.7-.4-.6-.5-1.4-.9-2-.1-.2-.4-.2-.5.1-.4 1.8 1.4 3.5 2.8 4.1zm1.7-8.5c-.5.7-.7 1.5-1.1 2.2-.5.8-1.1 1.4-1.6 2.1-.2.2 0 .5.3.4 1.4-.8 3-2.8 3-4.5-.1-.3-.5-.4-.6-.2zm-1.8 1c.3.1.5-.3.3-.5-.6-.5-1.3-.9-1.8-1.6-.5-.6-.6-1.4-1.1-1.9-.1-.1-.4-.1-.4.1-.3 1.6 1.5 3.6 3 3.9zm1-7.4c-.5.5-.8 1.2-1.2 1.8-.4.6-1 1.2-1.4 1.9-.1.2.1.5.3.3 1.2-.8 2.5-2.3 2.7-3.8 0-.2-.2-.4-.4-.2zm-1.4.7c.3.1.4-.4.1-.5-.7-.3-1.2-.9-1.6-1.4-.4-.5-.6-1.1-1-1.5-.1-.1-.4-.1-.4.1 0 .7.6 1.5 1 2 .5.7 1.1 1.1 1.9 1.3zm1-6.9c-.4.4-.7 1-1 1.5-.4.6-.8 1.1-1.3 1.7-.2.2.1.5.3.3.6-.4 1.1-.9 1.5-1.5.4-.5.9-1.1 1-1.8 0-.2-.3-.4-.5-.2zm-3.6-1.7c-.3.5 0 1.2.3 1.6.2.2.4.4.7.6.3.1.7.3.8.6.1.3.5.1.4-.2-.1-.5-.4-.8-.9-1.1-.3-.2-.5-.4-.7-.7-.1-.2-.2-.5-.4-.8.1-.1-.1-.1-.2 0zm2.6-3c-.3.3-.5.8-.7 1.2-.3.4-.6.9-.9 1.2-.2.2.1.6.3.4.5-.3.9-.7 1.2-1.2.3-.4.6-1 .5-1.5 0-.2-.3-.2-.4-.1zm-1.3.1c-.4-.2-.8-.5-1-.9-.2-.3-.4-.7-.6-1.1-.1-.1-.3-.1-.4.1-.3 1.1.8 2.1 1.8 2.4.3 0 .5-.3.2-.5zm-.7-2.5c.8-.8 1.8-2.2 1.6-3.4 0-.2-.3-.2-.4-.1-.3.5-.4 1.1-.7 1.6-.2.5-.5 1-.9 1.5-.2.3.2.6.4.4zm-.4-3.2c.3 0 .4-.4.1-.5-.3-.2-.7-.5-1-.6-.2-.1-.4.1-.4.3.2.5.8.7 1.3.8zM118 157.2c.4-.4.8-1 .9-1.5.1-.2-.2-.4-.4-.2-.4.4-.8 1-.9 1.5 0 .2.2.4.4.2z" fill="#0c080c" stroke-width="none" opacity="1" stroke="none"></path></g><g id="svga-group-glasses-single-move" transform="matrix(1,0,0,1,0,0)"><g id="svga-group-glasses-single"></g></g></g></g></g><rect id="svga-credit-rect" width="200" height="15" x="0" y="185" fill="#ecf0f1" opacity="0.5" style="display: none;"></rect><text id="svga-credit-text" font-family="Avenir Next, Roboto, Helvetica, Arial, sans-serif" font-size="10px" text-anchor="start" font-weight="400" size="10px" anchor="start" weight="400" fill="#333333" x="33.40447998046875" y="182.60824704170227" style="display: none;"><tspan id="SvgjsTspan7608" dy="13" x="33.40447998046875">Created on AvatarMaker.com</tspan></text></g><defs id="SvgjsDefs7560"></defs></svg>