<svg xmlns="http://www.w3.org/2000/svg" version="1.1" width="600px" height="600px" viewBox="0 0 200 200" style="overflow:hidden!important;"><g id="svga-group-wrapper"><g id="svga-group-backs-single"><path id="SvgjsPath5967" d="M0 0h200v200H0V0z" fill="#ecf0f1" stroke-width="none" opacity="1"></path></g><g id="svga-group-humanwrap-move" transform="matrix(1,0,0,1,0,0)"><g id="svga-group-humanwrap"><g id="svga-group-hair-back-move" transform="matrix(0.9999999999999999,-2.7755575615628914e-16,2.7755575615628914e-16,0.9999999999999999,-2.842170943040401e-14,5.684341886080802e-14)"><g id="svga-group-hair-back"></g></g><g id="svga-group-humanbody-back"><path id="SvgjsPath5920" d="M180.8 184.9c-2.3-3.4-38.9-17.8-38.9-17.8l-13.4-5.2-5.6-68.8H76.8L71.3 162l-13.4 5.2S21.4 181.6 19 185c-2.3 3.4-3.3 14.9-3.3 14.9V219h168.5v-19.2c-.1.1-1-11.5-3.4-14.9z" fill="#cb8d60" stroke-width="none" opacity="1" stroke="none"></path></g><g id="svga-group-chinshadow-single"><path id="SvgjsPath9969" d="M85.7 157.38c2.95 2.5 14.4 2.34 17.66.34 3.2-1.96 8.57-7.52 22.92-23.62l-3.34-41H76.82l-4.05 50.95c6.27 6.89 11.03 11.73 12.93 13.33z" fill="#ac642f" stroke-width="none" opacity="1"></path></g><g id="svga-group-humanbody-front"><path id="SvgjsPath5921" d="M184.5 219c-.1-6.4-.1-12.8-.1-19.2l-.3-.1s.1-.1.2 0c.1 0 .1.1.1.1v-.4l-.1-.5-.1-.9-.2-1.9c-.2-1.3-.4-2.5-.6-3.8-.2-1.3-.5-2.5-.9-3.8-.4-1.2-.8-2.5-1.5-3.6-.8-.9-1.9-1.5-2.9-2.1-1-.6-2.1-1.1-3.2-1.7-2.1-1.1-4.3-2.1-6.5-3.1-4.4-2-8.7-3.9-13.1-5.7-4.4-1.9-8.8-3.7-13.2-5.5l-13-5.2-1.2-16.9c-.4-5.7-.9-11.5-1.3-17.2l-1.3-17.2-1.5-17.3-.1-.8h-.8c-7.7 0-15.4.1-23.1.1l-23.1.2h-.5v.5L75 110.2l-1.3 17.2c-.8 11.4-1.8 22.8-2.8 34.2-5.6 2.1-11.2 4.2-16.7 6.4-5.6 2.2-11.2 4.5-16.8 6.9-2.8 1.2-5.6 2.4-8.3 3.6-2.8 1.3-5.5 2.5-8.2 4.1-.7.4-1.3.8-2 1.4-.2.1-.4.4-.5.6l-.3.6c-.2.4-.4.7-.5 1.1-.6 1.5-1 3-1.3 4.5-.6 3-1.1 6-1.4 9.1l-.1 19.1v.9h.9l42.1.1H100c14 0 28.1-.1 42.1-.2l42.1-.5h.3v-.3zm-84.5-1-42.1-.1-41.2.1-.1-18.1c.3-3 .6-5.9 1.2-8.9.3-1.4.6-2.9 1.1-4.2.1-.3.3-.7.4-.9l.2-.4.3-.3c.5-.4 1.1-.8 1.8-1.2 2.5-1.5 5.3-2.8 8-4.1 2.7-1.3 5.5-2.5 8.2-3.7 5.5-2.4 11.1-4.8 16.7-7.1s11.2-4.5 16.9-6.7l.2-.1v-.2c.9-11.5 1.7-23 2.7-34.4l1.4-17.2 1.5-16.7 22.6.2c7.4.1 14.8.1 22.3.1l1.3 16.4 1.5 17.2c.5 5.7 1 11.5 1.5 17.2l1.6 17.2v.3l.3.1 13.4 5c4.4 1.7 8.9 3.4 13.3 5.2 4.4 1.8 8.8 3.7 13.2 5.6 2.2 1 4.3 2 6.5 3 1.1.5 2.1 1.1 3.2 1.6 1 .6 2.1 1.2 2.9 2 .7 1.1 1.1 2.3 1.4 3.5.3 1.2.6 2.5.8 3.7.2 1.3.4 2.5.6 3.8l.2 1.9.1.9.1.5v.4c0 6.3 0 12.6-.1 18.9l-41.8-.5c-14 .1-28.1 0-42.1 0z" fill="#9d521b" stroke-width="none" opacity="1" stroke="none"></path><path id="SvgjsPath5922" d="M125.1 142.4s-1.8 23-9.1 32.9c0 0 7.9-25 9.1-32.9zm-34.5 16s5 7.9 11.5 10.1c0 0-9.5 2.2-11.5-10.1zM73.4 140c6.7 25.6 6.7 25.6 8.5 30.7 0 0 .4-12.6-8.5-30.7z" fill="#ac642f" stroke-width="none" opacity="1" stroke="none"></path></g><g id="svga-group-clothes-single"><path id="SvgjsPath9578" d="M67.8 137.1c-1.1-1.6-5.2 6-4.4 9.6.8 3.7-.8 3.1-.6 6.8.2 3.7-2.5 3.9-2.7 5.4s.2 4.8.2 4.8-11.8 2.1-16.4 4.4-17.5 6.9-19.7 7.9-5.6 2.5-5.8 3.5-1.7-1.4-3.5 2.9-4.4 11.4-3.8 14.3-.4 9.8-.2 11.9c.2 2.1 0 11.4 0 11.4h177.5s-1.2-10.6-.6-14.2 0-13.1-.4-15.2-1.5-7.3-3.1-8.1c0 0 0-3.5-5-6s-15-5-19.7-6.8-15.6-6.4-17-6.9-3.1-1.2-3.1-1.2l-1.9-.2s1.7-6.9 0-8.7-1.7-5.2-2.5-6 2.9-6.2-2.5-8.9c0 0 1.4 2.5-10.2 6.8s-31.2 3.3-41.2 1-12.6-7.3-13.4-8.5z" fill="#335529" stroke-width="none" opacity="1" stroke="none"></path><path id="SvgjsPath9579" d="M132 138.2zm-77 30.3c-2.4.7-4.9 1.4-7.3 2.1-2.4.8-4.8 1.4-7.2 2.6l-.5.3-.3.3-.7.6-1.5 1.1-3 2.3c1.1-.6 2.2-1.2 3.3-1.9.5-.3 1.1-.7 1.6-1l.8-.6.4-.3.3-.2c1.1-.5 2.3-.8 3.5-1.2l3.6-1.1c2.4-.7 4.8-1.5 7.2-2.3 1.2-.4 2.4-.9 3.6-1.4 1.2-.5 2.4-1 3.3-1.9-1.1.7-2.3 1-3.5 1.4-1.2.5-2.4.8-3.6 1.2zm134.4 51.4c-.3-3.1-.6-6.3-.7-9.5 0-1.6-.1-3.2.1-4.6.2-1.7.2-3.3.3-4.9 0-3.2-.1-6.4-.5-9.7-.2-1.7-.6-3.2-1-4.9-.2-.8-.5-1.6-.8-2.4l-.6-1.2c-.2-.3-.4-.6-.7-.9 0-.2-.1-.3-.1-.5l-.3-.9c-.2-.6-.5-1.1-.9-1.6-.7-1-1.6-1.8-2.5-2.4-1.9-1.3-4-2-6-2.8-4-1.4-8.1-2.6-12.1-3.9-2-.6-3.9-1.3-5.9-2.1l-5.9-2.4-5.8-2.2-2.9-1.2c-1-.4-2-.8-3-1.1h-.2l-.8-.1c.4-1.8.6-3.6.5-5.5-.1-.6-.1-1.2-.4-1.8-.1-.3-.3-.7-.6-1l-.2-.3c-.1-.1-.1-.2-.2-.2-.5-.7-.8-1.6-1.1-2.6-.1-.5-.3-1-.4-1.6-.1-.3-.2-.6-.4-.9 0-.1-.1-.1-.1-.2 0-.4.2-.9.3-1.5.1-.5.2-1.1.3-1.7.1-1.2-.1-2.5-.7-3.6-.7-1.1-1.7-1.9-2.7-2.4 0 0-1.4-.6-3.1-.9-1.8-.3-2.8-.4-2.8-.4s.3 4.5.4 5.8c-.6.3-1.1.6-1.7.8-2.7 1.2-5.4 2.2-8.2 2.9-5.7 1.3-11.6 1.8-17.5 1.8s-11.8-.4-17.6-1.5c-2.9-.6-5.7-1.4-8.3-2.8l-1.5-.9c-.1-.2-.1-.4-.1-.6 0-.5.4-5.2.4-5.4s-5.4.6-5.8.8c-.1 0-.2.1-.3.1-.3.2-.5.4-.7.6-.4.5-.7 1-1.1 1.6-.6 1.1-1.1 2.2-1.5 3.4-.4 1.2-.6 2.4-.5 3.7.2 1.2.5 2.4.1 3.6-.2.6-.4 1.2-.5 1.8-.1.6-.1 1.3-.1 1.9.1 1.2-.2 2.4-1.1 3.3-.4.4-.9.8-1.3 1.3-.2.3-.3.7-.3 1v.9c0 1.2.1 2.3.2 3.5-3.6.6-7.1 1.4-10.6 2.3-1.8.5-3.6 1-5.3 1.8-1.7.8-3.3 1.5-5 2.1-3.4 1.3-6.9 2.6-10.3 3.9-1.7.6-3.5 1.2-5.2 2-.8.4-1.7.7-2.5 1.2-.8.4-1.7.8-2.5 1.5-.2.2-.4.4-.6.7h-.4c-.3 0-.7.1-1 .2-.6.3-1 .8-1.3 1.2-.3.4-.5.9-.7 1.3-.7 1.7-1.4 3.4-2.1 5.2-.6 1.8-1.2 3.5-1.7 5.4-.2.9-.4 1.9-.5 2.9 0 .5-.1 1 0 1.6l.1.6v.6c.1 1.7 0 3.6-.1 5.4-.1 1.8-.3 3.7-.2 5.6.1 3.6 0 7.3 0 11v.9h.9l44.4-.4c14.8-.1 29.6-.2 44.4-.1 14.8 0 29.6.2 44.4.3l44.4.3h1l-.7-1.2zM137 153.3l.1.1c.1.1.1.2.2.4.1.4.2.8.2 1.3.1 1.9-.3 4.1-.8 6l-.3 1.1h.2c-.9.8-1.7 1.5-2.6 2.2.2-.5.3-1.1.4-1.6.1-.8.1-1.6 0-2.4-.1-.8-.3-1.6-.6-2.4-.3-.7-.6-1.4-1-2.1v-.2c1.5-.8 2.8-1.6 4.2-2.4zm-10.2 9.5-.1-.2c-.4-.9-.9-1.8-1.4-2.7 2.2-1.1 4.4-2.3 6.6-3.6l.1.1c.4.6.8 1.3 1.1 2 .3.7.6 1.4.7 2.2.2.8.3 1.5.3 2.3 0 .6 0 1.2-.1 1.8-1.4 1.2-2.8 2.3-4.3 3.3-1 .7-2.1 1.5-3.2 2.1 0-.1.1-.3.1-.4.1-1.1.1-2.3.1-3.4.1-1.2.2-2.4.1-3.5zm-4.3.6c-.2-.6-.5-1.2-.9-1.6l2.7-1.2c.1-.1.2-.1.3-.1.5.9.9 1.7 1.4 2.6.1 1.1.2 2.2.2 3.3.1 1.1.1 2.3.2 3.4v.6c-.3.1-.6.3-.8.4-.8.3-1.4.6-2.3.8-.3.1-.6.1-.9.2.2-1.7.3-3.4.4-5-.2-1.2-.1-2.3-.3-3.4zm-9.3 4.8c-.4-.8-.6-1.7-.8-2.6-.1-.4-.1-.7-.2-1.1l.9-.1c.7-.1 1.3-.2 1.9-.4l1-.2 1-.3c1.2-.4 2.5-.9 3.7-1.4.4.4.8.9.9 1.5.2.9.2 1.9.3 3l.2 5.1c-.5.1-.9.2-1.4.2-2.4.4-4.8.7-7.2 1 0-.1.1-.3.1-.4.1-.5.1-.9.1-1.4 0-1-.1-1.9-.5-2.9zm-19.9 3.9c.2.6.2 1.2.5 1.8.1.2.2.4.3.5-1.4 0-2.7-.1-4-.2-.4 0-.8-.1-1.2-.2l-.6-.1-.6-.2-2.4-.9h-.1c-.1-.7-.1-1.3-.2-2 0-.6-.1-1.1 0-1.7.1-.5.2-1.1.4-1.6s.4-1.1.4-1.7h.2c.6.1 1.2.3 1.9.4.3.1.6.2.9.2.3.1.7.2 1.1.2.9.1 1.7.1 2.5.1.1.6.2 1.1.2 1.7v.1c.2 1.2.4 2.4.7 3.6zm.8 1.7c-.2-.6-.2-1.2-.3-1.8-.1-1.2-.3-2.4-.4-3.7 0-.6-.1-1.1-.1-1.7h.6c5.2-.2 10.3-.9 15.5-1.7l2.1-.3c.1.4.1.8.2 1.1.2.9.5 1.9 1 2.7.4.7.6 1.7.7 2.6.1.6.1 1.2.1 1.9-1 .1-1.9.3-2.9.4-3.4.4-6.8.8-10.2.9-2 .1-3.9.2-5.9.2-.3-.1-.4-.3-.4-.6zm41.9-27.6s-.1 0 0 0c-.1-.1-.1 0 0 0zm-2.8-6.8c0-.1.1-.1.1-.1.5.3.9.7 1.1 1.2.4.8.6 1.6.5 2.6-.1.5-.1 1-.2 1.5s-.3 1-.4 1.7c0 .2 0 .4.1.8 0 .1.1.2.1.3l.2.2c.1.1.1.3.2.5.1.5.2 1 .4 1.5.3 1.1.6 2.2 1.3 3.3.1.1.2.3.3.4-1.3.6-2.6 1.2-4 1.8-.1-.9-.2-1.9-.5-2.8-.2-.7-.6-1.2-.7-1.8-.2-.5-.1-1 .1-1.7.1-.6.2-1.3.2-2s-.2-1.4-.5-2c-.3-.6-.6-1.2-1.1-1.7-.3-.3-.6-.6-.9-.8.3-.2.7-.4 1-.6.6-.4 1.3-.8 1.9-1.4.3-.2.6-.5.8-.9zm-6.7 4.4c1-.4 2-.9 2.9-1.4.8.7 1.3 1.6 1.6 2.5.2.6.3 1.2.2 1.8 0 .6-.2 1.2-.3 1.8-.1.3-.1.6-.2 1s0 .8.1 1.1c.2.7.5 1.3.7 1.8.3.9.5 1.9.5 2.9-2.2 1-4.5 2.1-6.8 3v-1.4c-.1-.9-.3-1.7-.7-2.6l-.6-1.2-.3-.6c-.1-.2-.2-.3-.3-.5-.2-.3-.2-.7-.2-.9.1-.3.3-.5.6-.6l.3-.1v-.2c-.1-1-.2-2-.4-2.9-.2-.8-.4-1.5-.8-2.2 1.3-.3 2.5-.8 3.7-1.3zm-3.8 1.4c.2.7.4 1.5.4 2.2.1.9.1 1.8.1 2.6-.4.2-.8.5-.9.9-.2.6-.1 1.1.1 1.5l.3.6c.1.2.2.3.3.5.2.4.3.7.5 1.1.3.8.5 1.6.6 2.3v1.7c-.2.1-.4.2-.6.2l-3 1.2c0-1.1-.1-2.1-.3-3.2-.1-.7-.3-1.3-.7-2-.1-.2-.2-.3-.3-.5-.1-.1-.2-.2-.2-.4-.1-.2-.2-.5-.3-.8-.1-.6 0-1.2.2-1.8.2-.6.4-1.3.4-2-.1-1.2-.6-2.3-1.3-3.2 1.7.1 3.2-.4 4.7-.9zm-4.8 1.4c.1 0 .1 0 0 0 .7.9 1 2.1 1 3.1 0 1.2-1.1 2.3-.9 3.9 0 .4.1.8.3 1.1.1.2.2.3.3.5.1.1.2.2.2.4.2.5.4 1.1.5 1.8.2 1.1.3 2.2.3 3.4-1.1.4-2.1.7-3.2 1-1.2.4-2.4.6-3.7.8l-.4.1c0-1.9-.4-3.7-1.4-5.3-.3-.5-.6-.7-.7-1.1-.1-.3-.1-.7.1-1.1.3-.7.9-1.5 1.6-2l.1-.1v-.1c0-1 0-2-.1-2.9-.1-.8-.2-1.6-.5-2.4 2.3-.4 4.4-.7 6.5-1.1zm-54.5-.4c-.1-1.1.2-2.4.5-3.5.4-1.2.8-2.3 1.4-3.4.3-.5.6-1.1 1-1.5.2-.2.4-.4.7-.6.2-.2.5-.2.7.1 1.5 2.6 3.8 4.6 6.5 6 2.6 1.4 5.5 2.3 8.4 2.9 2.9.6 5.8 1 8.8 1.3 2.9.3 5.9.5 8.9.6 3.8.1 7.5 0 11.3-.4.1.3.1.6.1.9 0 .5.1 1 0 1.4 0 .9-.1 1.8-.2 2.7-.8.5-1.5 1.2-1.9 2.1-.2.5-.3 1.1-.1 1.7.1.3.2.5.4.8.2.3.3.4.4.6.4.7.8 1.6 1 2.5.2.8.3 1.6.3 2.4l-2.6.2c-2.5.4-5.1.8-7.6 1.1-2.6.4-5.1.7-7.6 1-.3 0-.6.1-.9.1-.1-.2-.1-.4-.1-.7.1-1.2.6-2.5 1-3.8v-.2c0-2.1.1-4.3 0-6.5l.1-3.2c.1-1.1.1-2.2.3-3.2-.4 1-.5 2.1-.7 3.2-.2 1.1-.3 2.1-.4 3.2-.2 2.1-.2 4.3-.3 6.4-.2.6-.5 1.2-.7 1.9-.2.7-.3 1.4-.4 2.1 0 .2 0 .6.1.8-.7 0-1.3.1-1.9.1-.3 0-.5 0-.8-.1-.3-.1-.7-.1-1-.2-.7-.1-1.3-.2-1.9-.3h-.3c0-.3-.1-.6-.1-.9-.2-1.1-.3-2.2-.2-3.3.1-.5.2-1 .5-1.6.2-.6.3-1.2.4-1.8.2-1.2.2-2.4.2-3.5.1-1.2-.1-2.4-.2-3.5s-.2-2.3.3-3.4c-.7 1-.7 2.2-.8 3.4 0 1.2 0 2.3-.1 3.4-.1 1.2-.1 2.3-.3 3.4-.1.5-.2 1.1-.4 1.6s-.4 1.1-.5 1.7c-.2 1.2 0 2.5.2 3.6 0 .2.1.4.1.6-2.2-.2-4.3-.4-6.5-.5 2.2.5 4.4.9 6.6 1.4v.1c0 .5-.2 1-.3 1.6-.1.6-.2 1.1-.2 1.8 0 .6.1 1.2.1 1.8.1.6.2 1.2.4 1.8l-4.5-1.6c-1.7-.6-3.4-1.2-5.2-1.8 0-.4.1-.8.2-1.2.1-.3.2-.7.3-1 .1-.3.3-.7.2-1.1 0-.8-.3-1.5-.5-2.1-.2-.7-.2-1.3-.2-2 .1-1.3.8-2.6 1.4-3.8.6-1.1 1.1-2.4 1.2-3.7.6.1 1.2.3 1.7.4 1.8.4 3.8.7 5.7.4-.9-.1-1.9-.2-2.8-.5-.9-.2-1.8-.5-2.7-.7-.7-.2-1.3-.4-2-.6-.2-.6-.3-1.2-.4-1.9-.1-.7-.2-1.4 0-2.1.2-.7.3-1.4.5-2.1.2-.7.4-1.4.9-2-.6.5-.9 1.2-1.2 1.9-.3.7-.6 1.4-.8 2.1-.2.8-.2 1.6-.2 2.3 0 .5.1 1 .2 1.5-.8-.2-1.6-.5-2.5-.7-1.4-.4-2.9-.9-4.4-1.3v-1.2c0-.7 0-1.4-.1-2.1-.1-.6.2-1.3.4-1.9.5-1.3.9-2.7 1.6-3.8-.5.5-.8 1.1-1.2 1.7-.3.6-.7 1.2-.9 1.9-.1.3-.3.6-.4 1-.1.2-.1.3-.2.5 0 .1-.1.2-.1.3v.3c0 .7-.1 1.4-.1 2.1v.9c-.7-.2-1.3-.4-2-.5-.1-.9-.2-1.8-.1-2.7 0-.9.1-1.9.2-2.8.2-.9.4-1.8.7-2.7.3-.9.7-1.7 1.3-2.5-.7.7-1.2 1.5-1.7 2.3-.4.9-.8 1.8-1 2.7-.2.9-.4 1.9-.4 2.9-.1.8 0 1.6 0 2.4-.8-.2-1.7-.4-2.6-.6.4-.8.2-1.9 0-2.8zm11.8 22.9c-1.9-.7-3.9-1.4-5.8-2-.1-1.4 0-2.7.2-4 .2-.7.4-1.6.6-2.4.1-.8.1-1.6 0-2.5v.1-6.3c1.3.5 2.7.9 4.1 1.3.9.3 1.9.5 2.8.8-.1 1.2-.5 2.4-1.1 3.5-.7 1.3-1.3 2.6-1.4 4.2-.1.8.1 1.6.3 2.2.2.7.6 1.4.6 2 0 .3 0 .6-.1.9-.1.4-.1.7-.1 1.1-.2.4-.2.7-.1 1.1zm-6.3-3.7c.1.6.2 1.1.3 1.6-1.4-.5-2.8-.9-4.1-1.4-.1-1.2-.2-2.4-.2-3.6.1-.6.1-1.4.4-1.8.5-.6.8-1.3 1-2 .4-1.4.3-3-.1-4.4-.1-.4-.2-.7-.3-1v-.8c.1-.5.6-1 1-1.3.7.3 1.4.6 2.2.8v6.6c.1.7.1 1.5.1 2.3 0 .8-.2 1.5-.3 2.4-.1 1-.1 1.8 0 2.6zm-49.7 14.3zm-7.4 39.5c.1-3.4.2-6.8.1-10.3-.1-1.7.1-3.6.2-5.4.1-1.8.3-3.7.2-5.6l-.1-.7-.1-.7c-.1-.3-.1-.8 0-1.2.1-.8.2-1.7.4-2.6.4-1.7 1-3.5 1.6-5.2.6-1.7 1.3-3.4 1.9-5.1.3-.8.8-1.6 1.3-1.8.1-.1.2-.1.3-.1.1 0 .2 0 .6.1.1 0 .3 0 .5-.1.1 0 .2-.1.2-.2 1.5 3 3 5.9 4.5 8.8.8 1.6 1.6 3.1 2.3 4.7.3.8.7 1.6.9 2.3.2.8.3 1.7.5 2.5.3 1.7.5 3.5.7 5.2l.7 5.3c.4 3.4.9 6.7 1.5 10.1H11.8zm132.3.2c-14.8.1-29.6.3-44.4.3-14.8.1-29.6 0-44.4-.1l-25.3-.2c.1-3.4.1-6.8-.1-10.2-.2-3.6-.5-7.1-1-10.7-.1-.9-.3-1.8-.5-2.7-.2-1-.7-1.8-1-2.6-.8-1.6-1.7-3.2-2.7-4.7-1.8-2.8-3.6-5.5-5.7-8.1.1-.1.1-.1.1-.2s.1-.2.1-.2v-.1c0-.1.1-.2.3-.3.6-.5 1.4-.9 2.2-1.3.8-.4 1.6-.8 2.5-1.2 1.6-.8 3.4-1.4 5.1-2.1 3.4-1.4 6.9-2.7 10.2-4.1 1.7-.7 3.4-1.5 5-2.3 1.6-.8 3.4-1.3 5.1-1.8 3.5-1 7.1-1.8 10.7-2.6l.2-.1v-.2c-.2-1.2-.3-2.4-.3-3.7v-.9c0-.3.1-.5.2-.8.3-.5.8-.8 1.3-1.3.9-.9 1.3-2.3 1.2-3.6 0-.6 0-1.2.1-1.8.1-.6.3-1.1.5-1.8.1-.2.1-.4.2-.6.8.4 1.5.7 2.3 1-.4.4-.8.9-1 1.5-.1.4-.1.8-.1 1.2.1.4.2.7.3 1.1.4 1.3.5 2.6.2 3.9-.2.6-.3 1.3-.7 1.8-.1.1-.2.4-.3.6-.1.2-.1.4-.1.6v1.1c.1 1.2.3 2.4.6 3.5-1.3-.4-2.7-.9-4.1-1.3l4.2 1.8v.1-.1c4.9 2.2 9.9 4.3 14.9 6.3l4.8 1.9 2.4 1 .6.2.7.2c.5.1.9.3 1.4.3 3.6.5 7.1.4 10.6.2 6.9-.5 13.8-1.4 20.6-2.8.8-.2 1.7-.4 2.6-.6.9-.2 1.8-.6 2.5-1 .1 0 .1-.1.2-.1v.3c0-.1.1-.2.1-.4 1.5-.9 2.8-1.9 4.1-2.9 2.3-2 4.5-4.1 6.6-6.4l.7.1 1.8.2c.9.3 1.9.7 2.8 1.1l2.9 1.2 5.8 2.4 5.9 2.4c1.9.8 4 1.5 6 2.2 4 1.3 8.1 2.4 12 3.9 1.9.7 3.9 1.5 5.5 2.5.8.5 1.5 1.2 2 1.9.3.4.5.8.7 1.1.1.2.2.4.2.6.1.2.1.4.1.5v.4c-1.3.6-2.5 1.3-3.7 2.1-1.4 1.1-2.8 2.2-4 3.7-.6.7-1 1.6-1.4 2.5-.4.8-.6 1.7-.9 2.5-.6 1.7-1 3.4-1.5 5.1-.4 1.7-.8 3.4-1.1 5.2l-.3 2.7c-.1.9-.1 1.8-.1 2.8.4 3.3.6 6.5.8 9.9h-27.2zm27.3-.2c.5-3.3.8-6.6.7-9.9.1-1.6.4-3.3.7-5 .3-1.7.7-3.4 1.1-5.1.4-1.7.8-3.4 1.3-5s.9-3.3 1.8-4.7c.9-1.4 2.1-2.6 3.3-3.8 1-.9 2-1.8 3.1-2.6v.2l.5.1s.2.2.4.5.3.6.5.9c.3.6.5 1.4.8 2.1.4 1.5.8 3.1 1 4.5.4 3.1.5 6.3.5 9.4 0 1.6 0 3.2-.2 4.6-.2 1.7-.2 3.3-.1 5 .1 2.9.4 5.8.6 8.6l-16 .2z" fill="#18360f" stroke-width="none" opacity="1" stroke="none"></path></g><g id="svga-group-head" transform="matrix(0.9999999999999999,-2.7755575615628914e-16,2.7755575615628914e-16,0.9999999999999999,-2.842170943040401e-14,5.684341886080802e-14)"><g id="svga-group-ears-left-move" transform="matrix(1,0,0,1,0,0)"><g id="svga-group-ears-left"><path id="SvgjsPath5816" d="M68.53 80.36s-11.15-9.8-12.94-9.96c-1.54-.14-5.36 8.01-7.05 13.16-.45 1.36-.34 2.88.25 4.2 1.62 3.57 5.21 11.04 8.43 14.78 0 0 2.72.59 3.58.33.86-.25 7.58-5.67 8.27-7.77s.83-11.3-.54-14.74z" fill="#cb8d60" stroke-width="none" opacity="1" stroke="none"></path><path id="SvgjsPath5817" d="M69.49 84.19c.18 1.31.28 2.64.33 3.96.05 1.32.06 2.65-.01 3.98a26.7 26.7 0 0 1-.17 1.99c-.05.34-.1.67-.2 1.02s-.28.7-.46.96c-.72 1.11-1.6 1.95-2.47 2.8-.88.84-1.78 1.63-2.71 2.4-.47.38-.93.75-1.42 1.11-.24.18-.49.35-.74.52l-.4.24c-.16.08-.35.17-.53.19-.67.08-1.23-.01-1.82-.09-.58-.08-1.15-.19-1.73-.32l-.13-.03-.08-.1c-1.45-1.74-2.63-3.68-3.74-5.65-1.1-1.98-2.1-4.03-3.06-6.1l-1.41-3.11c-.5-1.05-.71-2.29-.54-3.46.06-.59.26-1.14.44-1.67.18-.54.37-1.07.56-1.6.4-1.05.79-2.11 1.22-3.15.86-2.07 1.76-4.13 2.94-6.02.3-.47.62-.93 1-1.36.19-.21.4-.42.67-.59.13-.08.3-.16.52-.16.19.01.32.07.47.12 1.06.47 1.87 1.14 2.75 1.76 1.72 1.29 3.37 2.66 5 4.09 1.64 1.41 3.22 2.86 4.81 4.38.49 1.27.72 2.58.91 3.89zM58.4 72.51c-.85-.59-1.75-1.26-2.59-1.61-.09-.02-.2-.08-.26-.08-.04 0-.12.02-.2.07-.17.1-.35.25-.51.44-.34.36-.65.8-.94 1.24-1.16 1.8-2.18 3.77-3.11 5.77-.46 1.01-.92 2.02-1.32 3.06-.2.52-.4 1.04-.59 1.57-.19.53-.38 1.05-.45 1.6-.15 1.11.06 2.27.55 3.26.47 1.03.98 2.05 1.49 3.05 1.02 2.02 2.12 3.99 3.26 5.91 1.15 1.91 2.36 3.79 3.76 5.42l-.21-.13c1.09.2 2.3.43 3.29.33.11-.01.18-.06.28-.11l.35-.22.7-.5c.47-.34.93-.71 1.39-1.08.92-.74 1.81-1.52 2.68-2.34.85-.82 1.73-1.66 2.39-2.61.17-.25.29-.46.38-.72.08-.27.14-.58.19-.89.09-.63.17-1.27.21-1.91.1-1.29.14-2.6.15-3.9.01-1.31-.04-2.62-.15-3.92-.11-1.3-.27-2.62-.66-3.84-3.33-2.62-6.67-5.35-10.08-7.86z" fill="#bc7746" stroke-width="none" opacity="1" stroke="none"></path><path id="SvgjsPath5818" d="M68.79 88.66S58.04 75.08 56.02 76.21c-2.01 1.12-5.19 7.53-5.18 9.67.02 3.14 3.34 8.38 5.01 9.96s3.68 2.55 6.35 1.94c2.66-.61 6.59-9.12 6.59-9.12z" fill="#bc7746" stroke-width="none" opacity="1" stroke="none"></path><path id="SvgjsPath5819" d="M60.61 88.64c-.45-1.26-.95-2.5-1.45-3.74a49.61 49.61 0 0 0-1.66-3.64c-.61-1.18-1.22-2.36-1.97-3.45l-.08-.12-.08.12c-.75 1.18-1.45 2.38-2.12 3.62-.33.62-.66 1.25-.96 1.89-.31.64-.57 1.31-.84 1.98l-.04.1.04.12c.46 1.41.96 2.79 1.47 4.18.25.69.54 1.37.83 2.05.3.68.59 1.35.99 2.01l.19.31.25-.23c.34-.31.6-.65.87-1.02.26-.37.49-.76.69-1.17.4-.82.63-1.78.6-2.74v-.06l-.02-.04c-.5-.99-1.03-1.96-1.55-2.94l-.05.03c.42 1.01.83 2.03 1.26 3.03-.04.86-.3 1.68-.68 2.41-.33.62-.77 1.17-1.24 1.65-.26-.49-.5-1.02-.73-1.56l-.81-2.03c-.53-1.32-1.03-2.66-1.52-3.99.45-1.3.94-2.59 1.52-3.82.57-1.23 1.22-2.41 1.96-3.51.67 1.04 1.17 2.23 1.68 3.39l1.54 3.67 1.56 3.67c.52 1.22 1.05 2.45 1.6 3.66l.06-.03c-.41-1.27-.85-2.54-1.31-3.8z" fill="#9d521b" stroke-width="none" opacity="1" stroke="none"></path></g></g><g id="svga-group-ears-right-move" transform="matrix(1,0,0,1,0,0)"><g id="svga-group-ears-right"><path id="SvgjsPath5820" d="M131.47 80.36s11.15-9.8 12.94-9.96c1.54-.14 5.36 8.01 7.05 13.16.45 1.36.34 2.88-.25 4.2-1.62 3.57-5.21 11.04-8.43 14.78 0 0-2.72.59-3.58.33-.86-.25-7.58-5.67-8.27-7.77s-.83-11.3.54-14.74z" fill="#cb8d60" stroke-width="none" opacity="1" stroke="none"></path><path id="SvgjsPath5821" d="M131.44 80.33c1.58-1.52 3.17-2.97 4.81-4.38 1.62-1.42 3.28-2.8 5-4.09.88-.63 1.69-1.29 2.75-1.76.16-.04.28-.11.47-.12.21 0 .38.08.52.16.28.17.49.37.67.59.38.43.7.89 1 1.36 1.18 1.89 2.07 3.96 2.94 6.02.43 1.04.82 2.09 1.22 3.15.19.53.38 1.06.56 1.6.18.53.37 1.08.44 1.67.17 1.17-.04 2.41-.54 3.46l-1.41 3.11c-.97 2.06-1.96 4.11-3.06 6.1-1.11 1.98-2.29 3.92-3.74 5.65l-.08.1-.13.03c-.58.13-1.15.23-1.73.32-.59.07-1.16.16-1.82.09-.18-.02-.37-.11-.53-.19l-.4-.24c-.25-.17-.5-.34-.74-.52-.48-.36-.95-.73-1.42-1.11-.93-.76-1.83-1.56-2.71-2.4-.87-.86-1.75-1.69-2.47-2.8a3.42 3.42 0 0 1-.46-.96c-.1-.35-.14-.69-.2-1.02-.08-.67-.14-1.33-.17-1.99-.07-1.33-.07-2.65-.01-3.98.06-1.32.15-2.65.33-3.96.17-1.34.4-2.65.91-3.89zm.06.06c-.4 1.21-.56 2.54-.66 3.84-.1 1.3-.15 2.61-.15 3.92.01 1.31.06 2.61.15 3.9.05.65.12 1.29.21 1.91.06.31.11.62.19.89.09.26.2.47.38.72.66.94 1.54 1.79 2.39 2.61.86.81 1.76 1.59 2.68 2.34.46.37.92.73 1.39 1.08l.7.5.35.22c.1.05.17.1.28.11.99.1 2.2-.13 3.29-.33l-.21.13c1.4-1.63 2.61-3.51 3.76-5.42 1.14-1.92 2.24-3.89 3.26-5.91.51-1.01 1.02-2.02 1.49-3.05.49-.99.7-2.15.55-3.26-.07-.56-.26-1.07-.45-1.6s-.38-1.05-.59-1.57c-.4-1.04-.86-2.06-1.32-3.06-.93-2.01-1.95-3.97-3.11-5.77-.29-.44-.6-.88-.94-1.24-.17-.18-.35-.34-.51-.44a.431.431 0 0 0-.2-.07c-.06 0-.17.06-.26.08-.84.35-1.74 1.02-2.59 1.61-3.39 2.49-6.73 5.22-10.08 7.86z" fill="#bc7746" stroke-width="none" opacity="1" stroke="none"></path><path id="SvgjsPath5822" d="M131.21 88.66s10.75-13.58 12.77-12.45c2.01 1.12 5.19 7.53 5.18 9.67-.02 3.14-3.34 8.38-5.01 9.96s-3.68 2.55-6.35 1.94c-2.66-.61-6.59-9.12-6.59-9.12z" fill="#bc7746" stroke-width="none" opacity="1" stroke="none"></path><path id="SvgjsPath5823" d="M148.54 85.31c-.26-.67-.52-1.34-.84-1.98-.3-.64-.62-1.27-.96-1.89-.67-1.24-1.38-2.44-2.12-3.62l-.08-.12-.08.12c-.74 1.1-1.36 2.27-1.97 3.45-.6 1.18-1.14 2.4-1.66 3.64-.49 1.24-1 2.48-1.45 3.74-.46 1.26-.9 2.53-1.28 3.81l.06.03c.55-1.21 1.07-2.44 1.6-3.66l1.56-3.67 1.54-3.67c.51-1.16 1.01-2.35 1.68-3.39.74 1.1 1.39 2.29 1.96 3.51.58 1.24 1.08 2.52 1.52 3.82-.5 1.34-.99 2.67-1.52 3.99l-.81 2.03c-.23.53-.47 1.07-.73 1.56-.47-.48-.91-1.03-1.24-1.65-.39-.73-.64-1.55-.68-2.41.43-1 .84-2.02 1.26-3.03l-.05-.03c-.52.98-1.05 1.95-1.55 2.94l-.02.04v.06c-.03.96.2 1.92.6 2.74.2.41.43.81.69 1.17.26.36.53.71.87 1.02l.25.23.19-.31c.4-.67.69-1.34.99-2.01.29-.68.57-1.36.83-2.05.51-1.38 1.01-2.77 1.47-4.18l.04-.12-.07-.11z" fill="#9d521b" stroke-width="none" opacity="1" stroke="none"></path></g></g><g id="svga-group-faceshape-wrap"><g id="svga-group-faceshape-single"><path id="SvgjsPath9959" d="M140.4 54.9c-2.2-10-6.3-16-15.2-20.8-9.3-5-25.2-4.8-25.2-4.8s-15.9-.2-25.2 4.8c-8.8 4.8-13 10.8-15.2 20.8-.9 4 0 13.6 0 13.6s1.6 12.3 1.7 18.2c.2 5.8 1.4 18 2.2 25.1.98 7.08 1.46 7.68 1.46 7.68 12.25 14.4 22.69 25.32 25.74 27.9 2.95 2.5 14.4 2.34 17.66.34 3.46-2.12 9.44-8.42 26.53-27.68 0 0 .27-1.05 1.07-8.15s2.13-16.31 2.54-25.19c.2-5.8 1.7-18.2 1.7-18.2.1-.1 1.1-9.6.2-13.6z" fill="#cb8d60" stroke-width="none" opacity="1"></path><path id="SvgjsPath9960" d="M140.4 54.9c-2.2-10-6.3-16-15.2-20.8-9.3-5-25.2-4.8-25.2-4.8s-15.9-.2-25.2 4.8c-8.8 4.8-13 10.8-15.2 20.8-.9 4 0 13.6 0 13.6s1.6 12.3 1.7 18.2c.2 5.8 1.4 18 2.2 25.1.98 7.08 1.46 7.68 1.46 7.68 12.25 14.4 22.69 25.32 25.74 27.9 2.95 2.5 14.4 2.34 17.66.34 3.46-2.12 9.44-8.42 26.53-27.68 0 0 .27-1.05 1.07-8.15s2.13-16.31 2.54-25.19c.2-5.8 1.7-18.2 1.7-18.2.1-.1 1.1-9.6.2-13.6zm-.03 10.19-.33 3.24-.06.13c-.55 4.29-1.13 8.57-1.59 12.87-.24 2.14-.41 4.33-.56 6.47-.17 2.14-.39 4.28-.63 6.42-.49 4.28-1.14 8.54-1.72 12.82-.3 2.13-.6 4.3-.86 6.43l-.43 3.2-.23 1.59-.13.78-.08.41-10.86 12.02c-3.72 4.04-7.41 8.17-11.32 11.92-.98.92-1.98 1.83-3 2.6-.25.2-.51.36-.77.54-.14.1-.57.32-.71.37-.53.22-1.14.39-1.76.52-2.52.53-5.25.65-7.89.51-1.32-.09-2.64-.24-3.86-.56-.6-.16-1.19-.36-1.66-.61-.1-.07-.51-.34-.64-.46-.25-.21-.49-.43-.74-.66-1.98-1.83-3.9-3.82-5.82-5.78-3.83-3.94-7.58-7.98-11.27-12.06l-5.53-6.13-1.36-1.54-.68-.77-.17-.19s-.17-.3-.2-.42c-.36-1.24-.61-2.62-.85-3.96-.5-2.7-.79-5.41-1.12-8.16-.31-2.74-.65-5.47-.9-8.22-.26-2.74-.51-5.49-.7-8.23-.21-2.73-.23-5.5-.48-8.26-.21-2.76-.48-5.5-.78-8.25-.27-2.76-.67-5.47-.76-8.21-.12-2.74-.16-5.5.06-8.19.06-.67.14-1.34.28-1.97.14-.64.33-1.31.49-1.97.37-1.31.78-2.6 1.27-3.85.98-2.51 2.25-4.89 3.93-6.95 1.64-2.09 3.68-3.83 5.88-5.34 1.1-.76 2.26-1.43 3.44-2.08 1.16-.62 2.38-1.12 3.64-1.58 2.52-.9 5.16-1.51 7.83-1.97 2.67-.48 5.38-.8 8.09-1 2.72-.21 5.43-.32 8.16-.24 5.45.14 10.94.63 16.2 2.02 2.64.7 5.16 1.68 7.52 3.07 2.36 1.36 4.6 2.96 6.51 4.92 1.86 1.99 3.45 4.26 4.57 6.77 1.14 2.5 1.94 5.14 2.54 7.83.23 1.1.29 2.24.33 3.37.03 1.13.01 2.27-.03 3.4-.1 1.13-.16 2.26-.26 3.39z" fill="#9d521b" stroke-width="none" opacity="1"></path></g></g><g id="svga-group-mouth-single-move" transform="matrix(1,0,0,1,0,0)"><g id="svga-group-mouth-single"><path id="SvgjsPath6765" d="M119.9 121.9c-.2-.3-.6-.6-.9-.8-.3-.1-.8-.1-.8.4 0 .3.2.6.5.8-.66 1.22-2.4 1.46-3.8 1.56-1.5.1-2.71.22-4.49-.17-3.42-.92-6.52-1.82-9.62-1.62-2.9.1-5.13.98-7.93 1.78-3.3.9-7.66 2.74-9.96-.66.3-.2.6-.4.8-.7.4-.4 0-1-.5-.9-1 .3-2.3 1.6-2.2 2.7 0 .2.3.4.5.3.4-.3.7-.7 1-1 .9 1.7 2.7 2.5 4.7 2.7 2 .1 3.9-.5 5.9-.9 2.2-.5 4.4-.7 6.6-.8 4.1-.1 8.1.2 12.2.4 2.4.1 5.7.4 7.5-1.5.1.3.2.6.5.8.1.1.3 0 .4-.1.7-.59 0-1.69-.4-2.29z" fill="#a06b59" stroke-width="none" opacity="1" stroke="none"></path><path id="SvgjsPath6766" d="M105.6 128.4c-3.4.2-6.6.7-10 .5-.3 0-.3.4-.1.4 3.2.7 7 .9 10.2-.2.4-.1.4-.7-.1-.7z" fill="#ac642f" stroke-width="none" opacity="1" stroke="none"></path></g></g><g id="svga-group-eyes-left-move" transform="matrix(1,0,0,1,1,0)"><g id="svga-group-eyes-left" transform="matrix(0.8999997000000001,0,0,0.8999997000000001,8.020023754823299,8.73002573223495)"><g id="svga-group-eyesback-left"><path id="SvgjsPath7764" d="M80.2 74.2c7.5 0 13.5 5.8 13.5 13s-6 13-13.5 13-13.5-5.8-13.5-13 6-13 13.5-13z" fill="#ffffff" stroke-width="none" opacity="1"></path></g><g id="svga-group-eyesiriswrapper-left" transform="matrix(1,0,0,1,0,0)"><g id="svga-group-eyesiriscontrol-left" transform="matrix(1,0,0,1,0,0)"><g id="svga-group-eyesiris-left"><path id="SvgjsPath5937" d="M80.2 81.6c3.1 0 5.6 2.5 5.6 5.6s-2.5 5.6-5.6 5.6-5.6-2.5-5.6-5.6 2.5-5.6 5.6-5.6z" fill="#4e60a3" stroke-width="none" opacity="1"></path><path id="SvgjsPath5938" d="M80.2 84.2c1.7 0 3 1.3 3 3s-1.3 3-3 3-3-1.3-3-3 1.3-3 3-3z" fill="#000000" stroke-width="none" opacity="1"></path><path id="SvgjsPath5939" d="m79.5 84.8-.6-.6c-.2-.2-.5-.3-.8-.3s-.6.1-.8.3c-.2.2-.3.5-.3.8s.1.6.3.8l.6.6c.2.2.5.3.7.3.3 0 .6-.1.7-.3.6-.6.6-1.2.2-1.6zm2.7 5.1c1 0 1-1.5 0-1.5-.9 0-.9 1.5 0 1.5z" fill="#ffffff" stroke-width="none" opacity="1"></path></g></g></g><g id="svga-group-eyesfront-left"><path id="SvgjsPath7772" d="M80.2 73.7c-7.8 0-14.1 6.1-14.1 13.6s6.3 13.6 14.1 13.6 14.1-6.1 14.1-13.6S88 73.7 80.2 73.7zm0 21.9c-5.5 0-10.7-2.8-10.8-3.7-.2-1 .9-4.2 3.2-6.8 2.4-2.6 8-3.5 12.8-1.5s5.9 8 5.9 8c.1 1.8-5.6 4-11.1 4z" fill="#cb8d60" stroke-width="none" opacity="1" stroke="none"></path><path id="SvgjsPath7773" d="M89.4 86.9c.7 0 3.1 0 2.4-.2-1.2-.4-5.6-3.8-6.8-4.3s-5.5-1.3-6.2-1.3-7.1 2.8-7.7 3.2c-.6.4-2.2 6-2.6 6.3-.2.2.4.5.8.7 0 .1 0 .2-.1.3v.2c0 .1.1.2.1.3.1.2.2.3.3.4.2.2.5.4.7.6.5.3 1 .6 1.6.9 2.1 1 4.4 1.6 6.8 1.8 2.4.2 4.7-.1 7-.7 1.1-.3 2.2-.7 3.3-1.2.5-.3 1-.5 1.5-.9l.6-.6c.2-.2.3-.5.3-.8-.2-1.1-.7-2.2-1.2-3.3-.3-.4-.5-.9-.8-1.4zm1.6 5.5-.6.6c-.5.3-1 .6-1.5.8-1.1.4-2.2.8-3.3 1-2.2.4-4.6.7-6.8.5-2.3-.2-4.5-.8-6.6-1.7-.5-.2-1-.5-1.5-.8-.2-.2-.5-.3-.7-.5-.1-.1-.2-.2-.2-.3 0-.1 0-.1-.1-.1v-.2c0-.2 0-.4.1-.6.4-1 1.6-3.8 2.5-5 1.2-1.5 3.6-3.3 6.9-3.3 1.7 0 3.2.2 4.5.5.5.2 1.1.3 1.6.6 1.1.4 2 1.1 2.8 1.8 1.6 1.6 2.8 3.7 3.3 5.9-.1.3-.2.6-.4.8z" fill="#000000" stroke-width="none" opacity="1" stroke="none"></path></g></g></g><g id="svga-group-eyes-right-move" transform="matrix(1,0,0,1,-1,0)"><g id="svga-group-eyes-right" transform="matrix(0.8999997000000001,0,0,0.8999997000000001,11.98003662664756,8.73002573223495)"><g id="svga-group-eyesback-right"><path id="SvgjsPath7765" d="M119.8 74.2c7.5 0 13.5 5.8 13.5 13s-6 13-13.5 13-13.5-5.8-13.5-13 6-13 13.5-13z" fill="#ffffff" stroke-width="none" opacity="1"></path></g><g id="svga-group-eyesiriswrapper-right" transform="matrix(1,0,0,1,0,0)"><g id="svga-group-eyesiriscontrol-right" transform="matrix(1,0,0,1,0,0)"><g id="svga-group-eyesiris-right"><path id="SvgjsPath5940" d="M119.8 82.3c2.7 0 4.9 2.2 4.9 4.9s-2.2 4.9-4.9 4.9-4.9-2.2-4.9-4.9 2.2-4.9 4.9-4.9z" fill="#4e60a3" stroke-width="none" opacity="1"></path><path id="SvgjsPath5941" d="M119.8 84.6c1.4 0 2.6 1.2 2.6 2.6s-1.2 2.6-2.6 2.6-2.6-1.2-2.6-2.6 1.2-2.6 2.6-2.6z" fill="#000000" stroke-width="none" opacity="1"></path><path id="SvgjsPath5942" d="M119.2 85.1c-.2-.2-.3-.4-.5-.5-.2-.2-.4-.3-.7-.3-.2 0-.5.1-.7.3-.2.2-.3.4-.3.7 0 .2.1.5.3.7.2.2.4.3.5.5.2.2.4.3.7.3.2 0 .5-.1.7-.3.3-.5.3-1.1 0-1.4zm2.4 4.5c.8 0 .9-1.3 0-1.3-.8-.1-.8 1.3 0 1.3z" fill="#ffffff" stroke-width="none" opacity="1"></path></g></g></g><g id="svga-group-eyesfront-right"><path id="SvgjsPath7774" d="M119.8 73.7c-7.8 0-14.1 6.1-14.1 13.6s6.3 13.6 14.1 13.6 14.1-6.1 14.1-13.6-6.3-13.6-14.1-13.6zm.3 20.6c-5.5 0-11.3-1.9-11.1-3.4 0 0 1.2-5.1 5.9-6.9s9.6-.7 12 1.5c2.4 2.3 4.2 4.8 4 5.6-.1.8-5.3 3.2-10.8 3.2z" fill="#cb8d60" stroke-width="none" opacity="1" stroke="none"></path><path id="SvgjsPath7777" d="M131.9 90c-.3-.3-3.5-4-4.1-4.3s-4-3.2-4.8-3.2-6.4 0-7.6.4-4.2 2.8-4.7 3.4c-.3.4.2.2.7 0-.4.5-.8 1-1.1 1.5-.6 1-1 2-1.3 3 0 .3.1.6.3.8.2.2.4.4.7.5.5.3 1 .5 1.5.8 1 .4 2.1.8 3.2 1 2.2.5 4.4.8 6.6.7 2.2-.1 4.4-.6 6.5-1.3 1-.4 2.1-.8 3-1.5l.3-.3c.1-.1.1-.2.1-.3v-.3c0-.1 0-.1-.1-.2.4-.2 1-.4.8-.7zm-1.2 1.1c-.1.1-.1.2-.2.2-.8.6-1.9 1-2.9 1.4-2.1.7-4.2 1.1-6.4 1.3-2.2.1-4.3-.1-6.5-.4-1.1-.2-2.1-.4-3.2-.8-.5-.2-1-.4-1.5-.7-.2-.1-.5-.3-.7-.5-.2-.2-.3-.4-.3-.7.6-2.1 1.9-4 3.6-5.3.9-.7 1.8-1.1 2.8-1.5.9-.3 1.7-.5 2.6-.6.2 0 .5-.1.7-.1h.7c1.8-.1 3.7.2 5.3.9 1.3.8 2.3 1.8 2.9 2.5.9 1 2.3 2.9 2.8 3.7.1.2.1.3.1.5.2-.1.2 0 .2.1z" fill="#000000" stroke-width="none" opacity="1" stroke="none"></path></g></g></g><g id="svga-group-facehighlight-single"></g><g id="svga-group-eyebrows-left-move" transform="matrix(1,0,0,1,3,0)"><g id="svga-group-eyebrows-left-rotate" transform="matrix(0.9914448609181881,0.1305261956808469,-0.1305261956808469,0.9914448609181881,9.97528785548377,-9.667352535719004)"><g id="svga-group-eyebrows-left" transform="matrix(0.8999997000000001,0,0,0.8999997000000001,7.880024708118427,7.1000212999999945)"><path id="SvgjsPath9344" d="M92.8 69.5s-.2 3.9-1 7.1c0 0-16.1-4.6-18-4.8-1.9-.2-8.4 4.1-8.4 4.1l6.5-9.8 3.8.3-.6-.9 8 1.9 7.5 1.2.5 2.8.4-2.8.5 2.8.8-1.9z" fill="#2a232b" stroke-width="none" opacity="1"></path><path id="SvgjsPath9345" d="m92.8 69.5-.1.1c-.1.3-.2.5-.4.8-.1.2-.2.4-.3.7l-.4-2.5-.2-.9-.2.9-.3 1.6-.3-1.6v-.2h-.2l-3.9-.7-1.9-.3c-.6-.1-1.3-.2-1.9-.3-2.6-.6-5.1-1.2-7.7-1.8l-.8-.2.5.8.3.1-3.1-.2h-.2l-.1.1c-1.1 1.7-2.1 3.3-3.2 5l-3.2 5-.4.6.6-.4c1.9-1.3 3.9-2.5 6-3.4.5-.2 1.1-.4 1.6-.6.3-.1.5-.1.8-.1l.4.1.4.1c1.1.3 2.3.6 3.4.9 2.3.7 4.5 1.3 6.8 1.9 2.3.6 4.5 1.2 6.8 1.8l.2.1v-.2c.3-1.2.4-2.4.6-3.6.1-.6.1-1.2.2-1.8 0-.3 0-.6.1-.9V69.6l.1-.1c0 .1 0 0 0 0zm-.1.4-.1.4-.1.9-.3 1.8c-.2 1.1-.4 2.2-.7 3.3-2.2-.7-4.4-1.3-6.6-2-2.3-.7-4.5-1.3-6.8-1.8-1.1-.3-2.3-.5-3.4-.8l-.4-.1-.4-.1c-.3 0-.6 0-.9.1-.6.2-1.1.4-1.6.6-1.9.9-3.7 1.9-5.5 3.1l2.9-4.2c1.1-1.6 2.2-3.2 3.2-4.7l3.6.3.7.1-.4-.7-.1-.1c2.3.6 4.6 1.1 6.9 1.6l3.9.6 3.7.5.5 2.5.2 1.2.2-1.2.3-2 .4 1.9.1.3.1-.3.3-.9c.1-.3.2-.6.3-.8v.5zm-2.9 4.7c0-.8-.1-1.7-.2-2.5-.1-.4-.1-.8-.2-1.2s-.2-.8-.4-1.2c.1.4.1.8.1 1.2 0 .4.1.8.2 1.2.1.8.3 1.7.5 2.5zm-1.2-1.7c-.2-.3-.3-.7-.5-1l-.5-1-1-1.9-.2-.5v.6c0 1.6 0 3.2.1 4.8l.3-.1c-.3-.4-.6-.9-.9-1.3l-.9-1.2c-.3-.4-.6-.8-1-1.2-.3-.4-.7-.8-1.1-1.1.3.4.7.8 1 1.2l.9 1.2c.3.4.6.8.9 1.3.3.4.6.9.8 1.3l.3.5v-.6c0-1.6-.1-3.2-.1-4.8l-.2.1 1.1 1.9.6.9c0 .3.2.6.4.9z" fill="#1b141c" stroke-width="none" opacity="1"></path></g></g></g><g id="svga-group-eyebrows-right-move" transform="matrix(1,0,0,1,-3,0)"><g id="svga-group-eyebrows-right-rotate" transform="matrix(0.9978589230103035,0.06540313271332761,-0.06540313271332761,0.9978589230103035,5.531963344763909,-7.934863963242279)"><g id="svga-group-eyebrows-right" transform="matrix(0.8999997000000001,0,0,0.8999997000000001,12.165036647588337,7.280021763705818)"><path id="SvgjsPath9346" d="M107.2 73.2s.9 3.1 2.3 5.5c0 0 14.9-6.1 16.8-6.5 1.9-.4 9 2 9 2l-8.2-6.9-3.6.8.4-.8-7.5 2.7-7.1 2v2.3l-.9-2.2v2.3l-1.2-1.2z" fill="#2a232b" stroke-width="none" opacity="1"></path><path id="SvgjsPath9347" d="m135.4 74.1-4-3.5c-1.3-1.2-2.7-2.3-4.1-3.5l-.1-.1h-.1l-3 .6.1-.2.4-.7-.8.3c-2.4.8-4.8 1.7-7.2 2.6l-1.8.6-1.8.6-3.7 1.1h-.2v1.5l-.6-1.3-.3-.7v.7l.1 2c-.1-.2-.3-.3-.4-.5-.2-.2-.3-.4-.5-.6l-.1-.1V73.2l.1.2.1.4c.1.2.2.5.2.7.2.5.3.9.5 1.4.3.9.8 1.9 1.2 2.8l.1.2.2-.1c2.1-.8 4.2-1.6 6.4-2.5 2.1-.8 4.2-1.7 6.3-2.5 1.1-.4 2.1-.8 3.2-1.2l.4-.1.4-.1c.3-.1.5-.1.8-.1.6 0 1.1.1 1.7.2 2.2.4 4.4 1.1 6.6 1.8l.6.2-.7-.4zm-8.3-2.1c-.3 0-.6 0-.9.1l-.4.1-.4.1c-1.1.3-2.2.7-3.2 1.1-2.2.8-4.3 1.6-6.4 2.4-2.1.8-4.1 1.7-6.1 2.6-.5-.8-.9-1.7-1.2-2.5-.2-.4-.4-.9-.6-1.4l-.3-.7-.1-.3-.1-.2v-.1c.2.2.3.4.4.6.2.2.3.4.5.7l.2.2V72.8l.6 1.5.4.9v-3.1l3.6-1c1.2-.3 2.5-.7 3.7-1 2.2-.8 4.3-1.5 6.5-2.3v.1l-.3.6.7-.2 3.5-.8c1.3 1.1 2.7 2.2 4 3.3l3.6 2.9c-2-.6-3.9-1.2-6-1.6-.6.1-1.1 0-1.7-.1zm-16 4.7c-.2-.7-.2-1.3-.2-2v-1c0-.3 0-.7.2-1 0 .3.1.7.1 1s.1.7.1 1c-.1.7-.1 1.4-.2 2zm.9-1.5c.1-.3.2-.6.3-.8l.3-.8.6-1.7.2-.4.1.4c.3 1.3.5 2.6.8 3.8h-.3l.6-1.2c.2-.4.4-.8.7-1.1.2-.4.5-.7.7-1.1s.5-.7.8-1c-.3.3-.5.7-.7 1.1-.2.4-.4.7-.7 1.1l-.6 1.2-.6 1.2-.2.4-.1-.4c-.3-1.3-.5-2.6-.8-3.8h.3l-.7 1.6-.4.8c0 .2-.1.4-.3.7z" fill="#1b141c" stroke-width="none" opacity="1"></path></g></g></g><g id="svga-group-beardwrap"><g id="svga-group-beard-single-move" transform="matrix(1,0,0,1,0,0)"><g id="svga-group-beard-single"></g></g></g><g id="svga-group-mustache-single-move" transform="matrix(1,0,0,1,0,3)"><g id="svga-group-mustache-single" transform="matrix(0.7999993000000002,0,0,0.7999993000000002,20.142068025067502,23.17107719223631)"></g></g><g id="svga-group-nose-single-move" transform="matrix(1,0,0,1,0,0)"><g id="svga-group-nose-single"><path id="SvgjsPath6611" d="M109.5 107.91c-1.24.49-2.69.36-3.82.07s-2.48.69-2.95 1.13c-.47.44-1.71 1.71-3.93.91-2.22-.8-2.15-1.57-3.35-1.86-1.2-.29-2.07.66-3.42.29-1.35-.36-1.97-1.38-1.86-2.8.11-1.42.82-3.92 1.48-4.96s10.31-4.3 17.37.43c0 0 1.49 2.39 1.46 4.32s-.14 2.14-.98 2.47z" fill="#cb8d60" stroke-width="none" opacity="1" stroke="none"></path><path id="SvgjsPath6612" d="M91.66 100.69c-.5 1.38-.97 2.79-1.14 4.22-.08.7-.12 1.45.12 2.05l.09.22c.04.07.09.13.13.2.04.07.09.13.15.19.06.05.1.12.16.16.23.21.53.32.83.39.63.13 1.33.02 2.02-.13l.53-.12.28-.06.15-.03.18-.02c.49-.03.91.14 1.27.31.73.36 1.3.86 1.88 1.29l.21.16c.07.04.12.08.19.12.13.07.27.13.42.17.3.09.63.13.95.12.64-.01 1.28-.21 1.77-.6l.17-.16.21-.2c.14-.13.29-.26.45-.38.31-.24.64-.46 1.01-.64.36-.17.75-.31 1.17-.37a2.43 2.43 0 0 1 1 .07l.29.11c.25.1.61.15.95.17.34.02.69.01 1.04-.03.68-.08 1.4-.27 1.8-.7.19-.19.27-.52.31-.86.04-.34.03-.69-.01-1.05-.14-1.43-.62-2.84-1.24-4.17.8 1.24 1.38 2.63 1.68 4.11.07.37.1.76.09 1.15-.02.39-.08.82-.37 1.2-.28.35-.66.56-1.03.71-.37.15-.75.24-1.14.31-.38.07-.77.09-1.16.09-.4-.01-.78-.04-1.22-.19l-.22-.08c-.07-.01-.13-.03-.2-.03-.14-.02-.29 0-.44.02-.3.05-.61.17-.91.32-.29.16-.58.34-.85.56-.13.11-.26.22-.39.34l-.19.18-.24.21c-.66.54-1.5.8-2.32.82-.41.01-.83-.05-1.23-.17-.2-.06-.4-.15-.59-.25-.09-.05-.19-.12-.28-.18l-.23-.17c-.59-.45-1.15-.92-1.73-1.23-.29-.15-.59-.26-.84-.25h-.09l-.12.02-.26.05-.55.11c-.74.14-1.54.25-2.35.04-.4-.11-.8-.29-1.11-.6-.3-.31-.55-.64-.66-1.06-.25-.8-.14-1.58 0-2.32.16-.74.39-1.45.66-2.14.29-.68.6-1.35.95-2z" fill="#9d521b" stroke-width="none" opacity="1" stroke="none"></path><path id="SvgjsPath6613" d="M102.11 103.91c-.52-.52-1.24-.61-1.94-.46-.09.02-.17.04-.25.06-.29-.19-.59-.32-.98-.32-.43 0-.95.19-1.25.52-.67.73-.68 1.78 0 2.5 1.14 1.22 3.69 1.57 4.66-.08.4-.68.33-1.65-.24-2.22z" fill="#d3986e" stroke-width="none" opacity="1" stroke="none"></path></g></g><g id="svga-group-hair-front"><path id="SvgjsPath10643" d="M58.02 71.24s1.85 1.66 2.59 3.33c.74 1.66 0 4.62.55 4.99.55.37 2.4-4.99 2.4-4.99l1.29-21.45 16.09-14.98 6.66 7.21s17.01.92 25.34.55l7.03-5.18 15.54 13.32.55 20.71 2.4 4.62s.74-5.18 1.11-5.92c.37-.74 2.03-2.59 2.03-2.59s1.48-13.5.74-17.38-5.55-13.69-14.24-20.16-35.69-5.55-40.5-5.18c-4.81.37-15.17 3.51-15.17 3.51l.92 1.29-2.59 1.11-.37 1.48s-5.36 3.33-7.4 5.73-3.88 7.03-4.44 10.91-.53 19.07-.53 19.07z" fill="#2a232b" stroke-width="none" opacity="1"></path><path id="SvgjsPath10644" d="M58.07 71.22c.89.82 1.77 1.77 2.4 2.86.69 1.12.63 2.47.62 3.7 0 .31-.01.62 0 .93.01.15.02.3.05.44.01.14.12.27.1.26-.06.02.12-.1.17-.22.08-.12.16-.25.23-.38.14-.27.27-.55.4-.83.49-1.14.91-2.31 1.31-3.49l-.01.06 1.15-21.46.01-.15.11-.11L80.66 37.8l.33-.3.3.33 6.65 7.22-.29-.14c4.21.23 8.43.4 12.65.56 4.22.14 8.44.26 12.65.14l-.16.06 7.07-5.12.14-.1.13.11 15.49 13.37.05.04v.07l.64 20.71-.03-.1 2.42 4.61-.49.08c.22-1.54.45-3.08.75-4.62.08-.39.15-.77.28-1.17.16-.46.42-.75.65-1.08.48-.63.98-1.23 1.5-1.82l-.08.17c.4-4.12.74-8.25.84-12.37.01-2.06.12-4.14-.5-6.04-.6-1.93-1.51-3.79-2.5-5.58-2-3.58-4.5-6.89-7.42-9.75-1.46-1.42-3.02-2.82-4.72-3.86-1.67-1.1-3.65-1.71-5.58-2.32-3.95-1.06-8.05-1.62-12.16-2-4.11-.36-8.24-.51-12.38-.52-2.07 0-4.13.02-6.2.1-1.03.04-2.06.09-3.08.16-1 .09-2.01.25-3.02.42-4.04.76-8.05 1.84-12.02 2.98l.22-.63.92 1.3.29.41-.46.19-2.6 1.09.22-.26-.38 1.48-.04.15-.13.08c-1.41.88-2.81 1.82-4.15 2.81-1.32 1.01-2.66 2.04-3.63 3.34-1.92 2.68-3.12 5.89-3.82 9.12-.35 1.62-.4 3.3-.51 4.98-.09 1.68-.16 3.36-.21 5.04-.1 3.36-.17 6.76-.22 10.08zm-.09.04c-.04-3.4-.04-6.74-.01-10.11.02-1.68.05-3.36.1-5.05.08-1.68.12-3.38.45-5.05.32-1.67.81-3.3 1.43-4.88.63-1.57 1.37-3.12 2.39-4.52 1.03-1.42 2.4-2.47 3.72-3.52 1.35-1.03 2.74-1.99 4.17-2.9l-.17.23.36-1.48.04-.18.18-.08 2.58-1.13-.17.6-.93-1.29-.34-.47.55-.17c3.98-1.2 7.98-2.32 12.08-3.15 1.03-.19 2.06-.38 3.13-.47 1.05-.08 2.09-.13 3.12-.17 2.08-.08 4.16-.11 6.24-.11 4.16 0 8.32.14 12.47.5 4.15.37 8.3.92 12.35 2.04 2 .65 4.03 1.28 5.84 2.47 1.82 1.13 3.36 2.54 4.87 4.01 2.98 2.95 5.51 6.34 7.53 10.01 1 1.84 1.9 3.74 2.51 5.78.32 1.01.45 2.12.48 3.16.02 1.05.02 2.09-.02 3.13-.16 4.16-.54 8.29-.99 12.42l-.01.1-.07.07c-.51.57-1.02 1.16-1.49 1.76-.22.3-.48.62-.57.9-.11.34-.19.73-.27 1.1-.31 1.51-.55 3.05-.78 4.58l-.12.8-.37-.72-2.39-4.63-.03-.05v-.05l-.47-20.72.05.11-15.58-13.27.28.01-6.99 5.23-.07.05h-.09c-4.24.19-8.47.13-12.7.05-4.23-.08-8.45-.26-12.68-.46l-.17-.01-.12-.13-6.67-7.21.63.02-16.13 14.98.12-.25-1.45 21.44v.03l-.01.03c-.43 1.18-.88 2.35-1.41 3.49-.13.29-.27.57-.43.85-.08.14-.16.28-.26.41-.05.07-.1.13-.17.2-.06.05-.16.16-.36.13-.29-.15-.29-.36-.33-.52-.03-.17-.04-.33-.04-.49-.01-.32.01-.63.02-.95.03-1.23.12-2.53-.51-3.6-.59-1.08-1.41-2.01-2.32-2.9z" fill="#1b141c" stroke-width="none" opacity="1"></path></g><g id="svga-group-glasses-single-move" transform="matrix(1,0,0,1,0,0)"><g id="svga-group-glasses-single"><path id="SvgjsPath11239" d="m92.2 97.2-22.21.64c-.67.02-1.24-.5-1.28-1.16l-.45-8.42c-.04-.69.49-1.25 1.18-1.26l23.84-.39c.65-.01 1.17.52 1.17 1.19l.01 7.06c0 1.25-1.01 2.3-2.26 2.34z" fill="#ffffff" stroke-width="none" opacity="0.45"></path><path id="SvgjsPath11240" d="m109.2 96.73 20.34-.58c.58-.02 1.09-.53 1.14-1.15l.57-7.87c.05-.64-.4-1.15-.99-1.14l-21.85.35c-.63.01-1.15.55-1.17 1.21l-.17 6.97c-.04 1.26.92 2.25 2.13 2.21z" fill="#ffffff" stroke-width="none" opacity="0.45"></path><path id="SvgjsPath11241" d="M95.67 92.08c0 1.23-.32 2.24-.71 2.25-.39.01-.71-.98-.71-2.22 0-1.24.32-2.26.71-2.27.4 0 .72 1 .71 2.24z" fill="#939393" stroke-width="none" opacity="1"></path><path id="SvgjsPath11242" d="M105.99 91.85c-.03 1.22.26 2.2.64 2.19.38-.01.71-1 .75-2.22.03-1.22-.26-2.22-.64-2.21-.39 0-.73 1.01-.75 2.24z" fill="#939393" stroke-width="none" opacity="1"></path><path id="SvgjsPath11243" d="m132.87 85.59-2.48.04-22.04.36c-.76.01-1.4.67-1.42 1.47l-.03 1.39c-1.95-.03-4.03-.54-5.99-.51-2.08.04-4.02.64-6.09.74v-1.41c0-.81-.64-1.46-1.43-1.45l-24.07.39-2.87.05.11 1.91 1.35-.02.45 8.25c.04.8.74 1.44 1.56 1.41l22.5-.65c1.33-.04 2.41-1.16 2.41-2.51v-4.69c2.07-.1 4.01-.7 6.08-.75 1.95-.04 4.03.47 5.98.49l-.11 4.63c-.03 1.33.99 2.38 2.27 2.34l20.6-.6c.71-.02 1.33-.65 1.38-1.4l.56-7.69 1.16-.02.12-1.77zM92.4 96.84l-22.53.64a.75.75 0 0 1-.77-.7l-.45-8.63c-.02-.41.3-.76.71-.76l24.03-.41c.39-.01.71.32.71.72l.01 7.37c0 .94-.77 1.74-1.71 1.77zm37.96-1.75c-.03.37-.33.68-.69.69l-20.62.58c-.91.03-1.63-.72-1.61-1.66l.18-7.26c.01-.4.33-.72.7-.73l22.01-.37c.36-.01.63.3.6.69l-.57 8.06z" fill="#2c2c2c" stroke-width="none" opacity="1" stroke="none"></path></g></g></g></g></g><rect id="svga-credit-rect" width="200" height="15" x="0" y="185" fill="#ecf0f1" opacity="0.5" style="display: none;"></rect><text id="svga-credit-text" font-family="Avenir Next, Roboto, Helvetica, Arial, sans-serif" font-size="10px" text-anchor="start" font-weight="400" size="10px" anchor="start" weight="400" fill="#333333" x="33.40447998046875" y="182.60824704170227" style="display: none;"><tspan id="SvgjsTspan5778" dy="13" x="33.40447998046875">Created on AvatarMaker.com</tspan></text></g><defs id="SvgjsDefs5725"><linearGradient id="SvgjsLinearGradient6533" x1="99.7642" y1="100.53" x2="99.7642" y2="113.2523" gradientUnits="userSpaceOnUse" class="svga-on-canvas-nose-gradient-single-0-null"><stop id="SvgjsStop6534" stop-opacity="0" stop-color="#f0c7b1" offset="0" ></stop><stop id="SvgjsStop6535" stop-opacity="1" stop-color="#e8b9a0" offset="1" ></stop></linearGradient></defs></svg>