<svg xmlns="http://www.w3.org/2000/svg" version="1.1" width="600px" height="600px" viewBox="0 0 200 200" style="overflow:hidden!important;"><g id="svga-group-wrapper"><g id="svga-group-backs-single"><path id="SvgjsPath11497" d="M0 0h200v200H0V0z" fill="#ecf0f1" stroke-width="none" opacity="1"></path></g><g id="svga-group-humanwrap-move" transform="matrix(1,0,0,1,0,0)"><g id="svga-group-humanwrap"><g id="svga-group-hair-back-move" transform="matrix(1,-2.856368900253737e-18,2.856368900253737e-18,1,0,0)"><g id="svga-group-hair-back"></g></g><g id="svga-group-humanbody-back"><path id="SvgjsPath11450" d="M77.6 118.3c0 19.3 3.4 44.1-10 51.9-13.4 7.9-31.9 11.3-37.8 22s-4.4 25.3-4.4 25.3h149.3s.7-18.9-5.1-26.4c-8.1-10.4-27.8-15.5-37.7-20.9s-13.4-25.1-13.4-52.4l-40.9.5z" fill="#ffffff" stroke-width="none" opacity="1"></path></g><g id="svga-group-chinshadow-single"></g><g id="svga-group-humanbody-front"><path id="SvgjsPath11451" d="M175.8 218.7H24.4l-.1-1c-.1-.6-1.5-15.1 4.5-26 4.1-7.4 13.5-11.3 23.5-15.5 5-2.1 10.2-4.3 14.8-6.9 10.6-6.2 10.1-23.9 9.6-41-.1-3.5-.2-6.8-.2-10v-1.1l43.2-.4v1.1c0 29.9 4.2 46.7 12.8 51.4 2.9 1.6 6.7 3.2 10.8 4.9 10 4.1 21.3 8.8 27.2 16.3 6.1 7.7 5.4 26.4 5.4 27.1l-.1 1.1zm-149.3-2.2h147.1c0-4.1-.2-18.5-4.9-24.6-5.5-7-16.6-11.6-26.3-15.6-4.1-1.7-8-3.3-11-5-5.1-2.8-8.7-8.9-10.9-18.7-2-8.4-2.9-19.4-3-33.5l-38.6.4c0 2.8.1 5.7.2 8.8.5 17.8 1 36.1-10.7 43-4.7 2.7-9.9 4.9-15 7.1-9.6 4-18.7 7.8-22.4 14.5-5 8.6-4.7 20.1-4.5 23.6z" fill="#000000" stroke-width="none" opacity="1"></path><path id="SvgjsPath11452" d="M93.9 153.8c-.5 1.8-.4 3.4.5 5.2.8 1.6 2.1 2.7 3.9 2.9.4 0 .7-.5.5-.8-1.6-2.2-3.5-4.2-3.7-7.1 0-.7-1-.9-1.2-.2z" fill="#000000" stroke-width="none" opacity="1"></path><path id="SvgjsPath11453" d="M112.5 187.5c8.8.5 18.1-.7 26.6-2.9.7-.2.6-1.4-.2-1.3-8.8 1.1-17.7 2-26.5 3.3-.5.1-.3.9.1.9z" fill="#000000" stroke-width="none" opacity="1"></path><path id="SvgjsPath11454" d="M63.1 182.5c3.8.9 7.6 1.9 11.5 2.8 3.6.8 7.4 2 11.1 2.1.7 0 .8-.9.2-1.2-3.5-1.4-7.5-1.7-11.2-2.5-3.8-.7-7.5-1.3-11.3-2-.5 0-.7.7-.3.8z" fill="#000000" stroke-width="none" opacity="1"></path></g><g id="svga-group-clothes-single"><path id="SvgjsPath11728" d="M77.6 140.5s-8.6 2.8-13.1 5.9-5.6 10-5.6 10-2.3-3.3-4.5 1.9-1.8 5.6-4 7.9c-2.3 2.3-1 6.8-.2 7.9 0 0-4 2.8-8.4 4s-10.3 4.2-12.1 6.6-9.6 12.8-5.6 34h153.6s0-21-3-27.5-7.7-7.5-7.7-7.5-9.8-7-11.7-8.2-11-4.2-11-4.2-.5-4.2-1.2-7.2-4.6-8.1-6.6-8.4c-2.1-.4-3-2.8-5.6-7-2.6-4.2-5.8-6.5-7.3-7-1.6-.5-3.3-.2-3.3-.2s1.2 8.9 1.2 13.6-.9 7.7-4.6 12.2c-3.7 4.6-6.1 5.8-11.4 9.3s-6.3 5.4-6.3 5.4-3.2-5.1-8.8-8.6S83 166 79 162.5s-1.1-6.1-1.4-11.2c-.3-5.1 0-10.8 0-10.8z" fill="#ffffff" stroke-width="none" opacity="1"></path><path id="SvgjsPath11729" d="M175.6 190.8c-2.8-6.1-7.1-7.7-8.2-8-1.3-.9-9.8-7-11.6-8.1-1.8-1.1-8.5-3.4-10.6-4.1-.2-1.3-.6-4.3-1.2-6.6-.7-3-4.7-8.7-7.5-9.1-1.1-.2-1.8-1.3-3.3-3.9-.5-.8-1-1.6-1.6-2.6-2.6-4.2-5.9-6.8-7.9-7.4-1.8-.6-3.8-.2-3.8-.2-.5.1-.9.6-.8 1.1 0 .1 1.2 8.9 1.2 13.5 0 4.2-.7 7.1-4.3 11.6-3 3.8-5.1 5.1-9 7.6-.7.4-1.4.9-2.2 1.4-3.1 2.1-4.8 3.6-5.7 4.6-1.3-1.8-4.1-5.1-8.3-7.7-3.3-2.1-5.2-4.4-7.1-6.6-1.2-1.4-2.5-2.9-4.1-4.4-2.2-1.9-1.9-3.4-1.5-5.7.3-1.4.6-2.9.4-4.8-.3-4.9 0-10.7 0-10.7 0-.3-.1-.6-.4-.9-.3-.2-.6-.3-.9-.2-.4.1-8.8 2.9-13.4 6.1-3.5 2.4-5 6.7-5.7 9-.4-.2-.8-.3-1.3-.2-1.4.1-2.5 1.3-3.5 3.6-.7 1.7-1.2 2.9-1.5 3.8-.7 1.9-.9 2.4-2.3 3.8-2.2 2.2-1.7 6.2-.8 8.3-1.3.8-4.3 2.5-7.3 3.4-4.6 1.3-10.7 4.3-12.6 7l-.1.2c-6.4 8.9-8.3 20.6-5.6 34.6.1.5.5.8 1 .8h153.6c.6 0 1-.4 1-1 0-1.2-.1-21.6-3.1-28.2zm-33-23.6c.3 1.9.6 3.7.6 4.1 0 .2-.1.8-.6 1.6.3-1.8.2-3.8 0-5.7zm-20.7-19.4c.5.2 1.2.5 1.9.9-.2.1-.3.1-.5.1l-1.2.3c-.2-.5-.2-.9-.2-1.3zm-.1 12.5h1.5c-.6.4-1.3 1-2 1.6.2-.5.4-1 .5-1.6zm4.2-3.1c-1.2.1-2.6.4-3.8.6.1-.5.1-1 .1-1.5 1.3-.1 2.7-.3 3.9-.5 0 .5-.1 1-.2 1.4zm.1-5c.1.5.1.9.1 1.3-1.3 0-2.7.4-3.9.8 0-.5 0-1-.1-1.5 1.3-.2 2.7-.3 3.9-.6zm-3.8 3.6v-1.1c.7-.2 1.4-.3 2.2-.4.6-.1 1.2-.1 1.8-.2v1.1c-1.3 0-2.7.3-4 .6zm-.1-3.5c0-.4-.1-.8-.1-1.1.6-.1 1.1-.1 1.7-.2.6-.1 1.2-.2 1.7-.3.2.3.3.6.4 1-1.2 0-2.5.3-3.7.6zm1.9-2c-.6.1-1.3.2-1.9.4 0-.3-.1-.7-.1-1 .4-.1.9-.2 1.3-.3.3-.1.7-.1 1-.3l.9.9c-.5.1-.9.2-1.2.3zm-1.9 8c1.1-.1 2.4-.2 3.5-.4-.3.7-.9 1.3-1.6 1.8-.7 0-1.5.1-2.2.1l.3-1.5zM76 159.6c-1.2-1.1-2.3-2.2-2.7-3.1-.1-.1-.1-.2-.1-.4.9.7 1.8 1.5 2.8 2.1-.1.5-.1 1 0 1.4zm-.5-10.9c.3.4.7.7 1.1 1 0 .4 0 .9.1 1.3-.3-.2-.5-.4-.8-.6-.4-.3-.7-.6-1.1-.9.1-.2.4-.5.7-.8zm.3-.3c.2-.2.4-.3.6-.4v1c-.1-.2-.3-.4-.6-.6zm-1.4 1.5c.4.4.8.7 1.2 1 .3.3.6.6 1 .8v1c-.8-.7-1.8-1.4-2.7-2 .2-.2.3-.5.5-.8zm-.7 1.4c.9.8 1.8 1.7 2.8 2.3 0 .3-.1.6-.1.9-.4-.3-.9-.6-1.4-.9-.6-.4-1.2-.8-1.7-1.2.1-.4.3-.8.4-1.1zm-.5 1.5c.5.4 1.1.8 1.6 1.2.5.4 1 .8 1.6 1.1 0 .2-.1.4-.1.5 0 .1-.1.3-.1.4-.5-.3-1-.6-1.4-.9l-1.8-1.2c0-.3.1-.7.2-1.1zm2.7 4.8c-.9-.8-1.9-1.5-2.9-2.1v-1c.4.4.9.7 1.4 1.1.5.4 1.1.8 1.7 1.2-.1.2-.1.5-.2.8zm-22.1 4.8c.3-.9.8-2 1.5-3.7.9-2.1 1.6-2.3 1.8-2.4.3 0 .6.2.8.4.1 2.2 1.5 13.1 16.7 21.5.2.1.3.1.5.1.3 0 .7-.2.8-.5.1.2.2.5.3.7.1.1.3.1.3-.1-.2-2-.6-3.7-.3-5.7 0-.2-.3-.4-.4-.1-.2 1.2-.4 2.5-.2 3.8l-.1-.1c-.1-.1-.2-.1-.3-.2-.3-1.7-.5-3.3-.4-5 0-.3-.4-.3-.4 0-.2 1.5-.2 3.1.1 4.6-.4-.3-.9-.5-1.3-.8-.2-.5-.3-1.1-.4-1.6-.2-1.1-.1-2.1.1-3.1 0-.2-.3-.3-.3-.1-.3 1.3-.4 3 0 4.4-.4-.2-.7-.5-1-.7-.1-2.3-.2-4.5.1-6.8 0-.3-.4-.2-.4 0-.3 2.1-.4 4.2-.2 6.4-.6-.4-1.2-.9-1.7-1.4-.1-2.1-.1-4.2.3-6.4 0-.2-.2-.3-.3-.1-.5 2-.7 4-.6 6-.4-.4-.8-.8-1.2-1.1 0-1-.1-2.1 0-3.1.1-1.4.4-2.8.8-4.1.1-.2-.2-.3-.3-.1-.7 2-1.3 4.5-1 6.7-.4-.4-.7-.8-1.1-1.1-.2-1 .2-3.2.2-3.5.2-1.4.5-2.7 1-4 .1-.2-.2-.2-.3-.1-.8 2.3-1.3 4.7-1.4 7.1-.3-.3-.5-.6-.8-1 .1-.1.1-.2.1-.2.1-.1-.1-.3-.2-.2.2-2.9.8-5.8 1.8-8.5.1-.2-.2-.3-.3-.1-1 2.7-1.7 5.5-1.9 8.3-.3-.5-.6-.9-.9-1.4.7-2.8 1.1-5.7 2.1-8.5.1-.3-.3-.4-.4-.1-.9 2.5-1.8 5.3-2 8-.4-.6-.7-1.2-1-1.8.7-3 1.1-5.8 2.5-8.6.1-.2-.2-.4-.3-.2-1.3 2.4-2.4 5.3-2.6 8.1-.3-.8-.6-1.6-.8-2.2 1.2-2.8 1.9-5.8 3.1-8.6.1-.2-.2-.4-.3-.2-1.2 2.5-2.6 5.3-3.1 8-.3-1.4-.4-2.3-.4-2.6 1.2-2.5 2.1-5.1 3.3-7.6.5-.6 1.1-1.2 1.8-1.7 3.3-2.3 8.9-4.4 11.5-5.3 0 1-.1 2.4-.1 3.9-1.9.7-3.5 2.3-4.5 4.5-1.1 2.5-1.3 5.3-.5 7.1 1.1 2.4 5.2 5.4 8.7 7.8.3.2.5.3.6.4l1.5 1.8c2 2.3 4 4.8 7.6 7 5.3 3.3 8.4 8.2 8.4 8.2.2.3.5.5.9.5.3 0 .7-.2.8-.5 0 0 1.1-1.8 6-5.1.8-.5 1.5-1 2.2-1.4 3.2-2.1 5.4-3.5 7.8-6.2.2 0 .4-.1.5-.3.1-.1 5.5-6.1 8.3-7.9 3.5-2.4 3.9-5.5 3.3-9.8-.6-4.3-5-5.9-6.5-6.3-.2-1.3-.3-2.4-.4-3.2.5 0 1.2 0 1.9.2 1.4.5 4.3 2.6 6.8 6.6.6.9 1.1 1.8 1.5 2.6 0 0 0 .1.1.1l-.7-.7c-.1-.1-.3.1-.2.2.7.8 1.3 1.7 2 2.5v.1s.3 1.1.3 2.9c-.5-.8-1.1-1.6-1.4-2.5-.1-.2-.4-.1-.4.1.4 1.2.9 2.4 1.8 3.3 0 .3 0 .7-.1 1.1-.5-.7-1.1-1.3-1.5-1.9-.1-.2-.5 0-.3.2.5.7.9 1.4 1.4 2.1.1.2.2.3.3.5-.1.6-.2 1.2-.3 1.9-.5-.6-1-1.2-1.4-1.8-.1-.2-.4.1-.3.2.5.7 1 1.6 1.6 2.3-.1.5-.3 1.1-.6 1.7-.2-.4-.4-.9-.5-1.3-.1-.2-.5-.1-.4.1.2.6.4 1.4.6 2.1-.2.5-.5 1.1-.9 1.6-.1-.3-.1-.6-.1-.9 0-.3-.4-.3-.4 0 0 .5.1 1.1.1 1.6-.4.5-.8 1.1-1.2 1.6-.1-.6-.2-1.3-.3-1.9 0-.2-.4-.2-.4.1.1.8.1 1.6.2 2.3-.4.4-.8.9-1.2 1.3 0-.8-.1-1.5-.2-2.3 0-.3-.4-.3-.4 0 0 .9-.1 1.9 0 2.9-.3.3-.6.6-.9.8 0-.2 0-.5-.1-.7 0-.8-.1-1.5-.1-2.2 0-.3-.4-.3-.4 0 0 .8 0 1.5.1 2.2v1.2c-.4.4-.9.7-1.3 1.1 0-.2-.1-.4-.1-.7 0-.6 0-1.1.1-1.7 0-.3-.3-.4-.4-.1-.2.9-.4 2-.1 2.9-.3.3-.7.5-1 .8 0-.4-.1-.8-.1-1.2 0-.3-.5-.3-.5 0v1.6c-.4.3-.7.5-1.1.8 0-.4-.1-.9-.1-1.3 0-.3-.5-.3-.5 0 0 .6 0 1.1.1 1.6-.4.3-.8.5-1.1.7v-1.8c0-.3-.4-.3-.4 0 0 .6-.1 1.1-.1 1.7v.5c-.4.2-.7.4-1.1.6v-1.4c0-.3-.4-.2-.4 0-.1.5-.1 1.1-.1 1.6-.2.1-.5.2-.7.3-.1 0-.1 0-.1.1 0-.4.1-.7.1-1.1 0-.2-.4-.2-.4 0-.1.4-.1.8-.2 1.3-.3.1-.7.3-1 .4v-1.3c0-.2-.4-.2-.4 0 0 .5-.1 1-.2 1.5-.5.2-1 .4-1.4.5v-1c0-.3-.4-.3-.4 0 0 .4-.1.8-.1 1.2-.3.1-.6.2-.8.3 0-.4.1-.7.1-1.1 0-.2-.4-.3-.4-.1-.1.4-.1.9-.2 1.3-.2.1-.4.1-.4.1-.5.2-.8.7-.7 1.2.1.4.5.7 1 .7h.3c.1 0 1.5-.5 4.4-1.6v.1c0 .2.3.1.3 0s0-.1.1-.2c.4-.1.7-.3 1.1-.4 3.7-1.5 13.6-8.3 16.3-15 1.5-3.6 1.7-6.9 1.6-9 .4.2.8.4 1.2.4 1.4.2 5 4.6 5.8 7.4-.1 0-.2.1-.2.2.3 3.2.1 6.4.2 9.5-.2.2-.4.5-.6.7v-8.7c0-.2-.4-.2-.4 0-.1 3.1-.2 6.2-.2 9.3l-.5.5c0-2.4-.3-4.8-.4-7.2 0-.2-.4-.3-.4 0 .1 2.6-.1 5.2.2 7.8-.2.1-.4.3-.5.4.1-2 0-4.1-.1-6.1 0-.2-.4-.2-.4 0-.1 2.2-.4 4.5-.3 6.7-.2.2-.5.3-.7.5.2-2 .1-4 0-6 0-.2-.4-.2-.4 0 0 2.1-.2 4.3-.3 6.4-.4.2-.9.5-1.4.7.2-1.9 0-3.9 0-5.8 0-.3-.4-.3-.4 0-.1 2-.3 4.1-.2 6.1-.4.2-.8.4-1.3.6.2-1.3.2-2.7.3-4 0-.3-.4-.3-.4 0-.2 1.4-.5 2.9-.6 4.3-.4.2-.9.4-1.3.5.2-1.4.2-2.9.6-4.3.1-.3-.4-.4-.4-.1-.3 1.4-.8 3.1-.9 4.7-.5.2-.9.3-1.4.5.1-1.2 0-2.6.1-3.8 0-.3-.4-.3-.4 0-.1 1.2-.4 2.7-.3 4-.6.2-1.3.4-1.9.7 0-.4 0-.9.1-1.3.1-.9.3-1.7.6-2.5.1-.2-.3-.3-.4-.1-.5 1.2-1 2.7-1 4.1l-.9.3v-.1c.1-.7.1-1.4 0-2.1 0-.3-.5-.3-.5 0 0 .7 0 1.3-.1 2 0 .1-.1.3-.1.5-.4.1-.8.3-1.2.4.1-.6.1-1.2.1-1.8 0-.3-.4-.3-.5 0-.1.6-.2 1.3-.3 2-.5.1-1 .3-1.5.5v-1c0-.3-.5-.3-.4 0v1.2c-.5.2-1 .3-1.5.5.1-.5.3-1.1.4-1.6.1-.3-.3-.4-.4-.1-.2.6-.4 1.3-.6 1.9-.4.1-.8.2-1.2.4.1-.6.2-1.1.3-1.6.1-.3-.4-.4-.4-.1-.2.6-.4 1.3-.5 1.9-.2.1-.4.1-.6.2.1-.4.2-.9.4-1.3.1-.2-.3-.4-.4-.1-.2.5-.4 1-.6 1.6-.2.1-.3.1-.5.1 0-.2.1-.4.1-.6.1-.2-.3-.3-.3-.1-.1.3-.2.5-.3.8-.5.1-.9.3-1.3.4 0-.1-.2-.2-.3 0 0 .1-.1.1-.1.1-.8.2-1.6.4-2.2.6-1.6.4-2.7.8-3.1.9-.3.1-1.2.2-2.4.2-.2-1.3-.6-2.7-1.5-4.8-.2-.5-.8-.7-1.3-.5s-.7.8-.5 1.3c.8 1.7 1.1 2.9 1.3 3.9H101c-.3-.4-.6-.7-1-1-.2-.2-.5.1-.3.3l.7.7h-1.2c-.2-.2-.4-.5-.6-.7-.4-.6-.7-1.2-.9-1.9-.1-.3-.5-.2-.4.1.2.8.6 1.7 1.1 2.5-.4 0-.9 0-1.3-.1-.1-1.8-.1-3.5-.1-4.4 0-.6-.4-1-1-1s-1 .4-1 1c0 .4 0 2.2.1 4.3h-.2c-.3-.4-.7-.8-.9-1.3-.4-.7-.6-1.5-.7-2.3 0-.2-.4-.3-.4 0 .1 1.1.4 2.6 1.2 3.5-.5 0-.9-.1-1.4-.1-.2-.4-.5-.9-.7-1.3-.3-.7-.5-1.5-.5-2.3 0-.2-.4-.3-.4 0 0 1.1.3 2.6 1 3.6-.3 0-.5 0-.8-.1-.2-.6-.7-1.1-.9-1.7-.3-.7-.4-1.4-.4-2.1 0-.3-.4-.3-.4 0-.1 1.1.2 2.9 1.1 3.8-.4 0-.8-.1-1.3-.1-.3-.6-.8-1.2-1.1-1.8-.3-.8-.5-1.6-.5-2.4 0-.3-.4-.3-.4 0 0 1.3.3 3.1 1.3 4.1-.6-.1-1.2-.1-1.8-.2-.3-.4-.5-.9-.7-1.4-.3-.8-.4-1.6-.5-2.4 0-.3-.5-.3-.4 0 0 1.2.3 2.6.9 3.7-.4-.1-.9-.1-1.3-.2-.2-.4-.5-.9-.7-1.4-.3-.8-.5-1.5-.5-2.3 0-.3-.4-.3-.4 0 .1 1.2.3 2.5 1 3.6-.5-.1-.9-.1-1.3-.2-.4-.6-.8-1.1-1-1.7-.4-.8-.6-1.7-.8-2.6 0-.2-.4-.1-.3.1.1 1.3.5 3 1.3 4.1-.7-.1-1.3-.3-1.8-.4-1-1.4-1.8-2.7-2.2-4.5-.1-.2-.3-.1-.3.1.2 1.4.8 2.9 1.7 4.1-.2-.1-.5-.2-.6-.3-.3-.2-.8-.4-1.3-.6-.7-1.5-1.4-3-1.8-4.7-.1-.3-.5-.2-.4.1.2 1.4.6 2.9 1.3 4.1-.3-.1-.7-.3-1-.4-.8-1.6-1.6-3-1.9-4.9 0-.2-.4-.2-.4.1.2 1.5.6 3.2 1.4 4.5-.3-.1-.6-.2-.9-.4-.4-.8-.8-1.5-1.1-2.2-.4-1.1-.7-2.2-.8-3.3 0-.3-.5-.2-.5.1.2 1.6.6 3.6 1.5 5.1l-1.5-.6c-.3-.7-.7-1.3-1-2-.4-.9-.7-1.9-.9-2.9-.1-.3-.5-.2-.4.1.3 1.4.7 3.2 1.6 4.5-.2-.1-.4-.1-.5-.2-.5-.2-1-.4-1.6-.6-.9-1.5-1.5-3-1.8-4.8 0-.2-.4-.2-.4.1 0 1.5.5 3.1 1.3 4.4-.7-.3-1.4-.6-2.1-.8-.8-1.7-1.5-3.4-1.7-5.3 0-.3-.4-.3-.4 0 .1 1.7.5 3.5 1.3 5-.4-.2-.8-.3-1.2-.5-.5-.8-1-1.5-1.4-2.4-.5-1.2-.8-2.5-.9-3.8 0-.3-.4-.3-.4 0 .1 1.9.6 4.1 1.7 5.8-.6-.3-1.3-.5-1.9-.8-1.2-2.1-2.1-4-2.2-6.6 0-.3-.4-.3-.4 0 0 2.1.5 4.4 1.6 6.1-.5-.2-1.1-.5-1.6-.7-1.3-2.3-2.1-4.5-2-7.2 0-.3-.4-.3-.4 0-.2 2.3.3 4.8 1.6 6.8-.3-.2-.7-.3-1-.5-1.3-2.7-2.2-5.2-2.2-8.2 0-.3-.4-.3-.4 0-.1 2.7.5 5.6 1.9 7.9-.7-.4-1.3-.7-1.9-1-1.6-2.4-2.2-4.8-2-7.9v-.1c.8-1.9 1.1-2.7 1.9-4.7zm-3.3 5.3c-.3 2.1.2 4.4 1.3 6.3-.3-.2-.6-.4-.8-.6-.6-.7-1.5-3.7-.5-5.7zM33.2 183c.3.9.8 2.5 1.4 4.6-.7-.3-1.5-.5-2.1-.9-.7-.4-1.3-1-1.8-1.6.5-.7 1.4-1.4 2.5-2.1zm-2.8 2.5c1.1 1.3 2.7 2.5 4.4 2.6.2.8.5 1.7.7 2.7l-.1-.1c-2.4-.9-4.4-1.8-6.2-3.4l1.2-1.8zm-6.2 27.4c3.5 2.2 7.7 4.1 11.8 4.8H24.9c-.3-1.6-.5-3.2-.7-4.8zm12.9 4.8c0-.1 0-.2-.1-.3-4.5-1.5-8.6-2.9-12.8-5.1-.1-.9-.1-1.9-.2-2.8 4.6 2.7 10 5.1 15.2 6.1.2 0 .3-.2.1-.3-5.1-2.2-10.2-4.2-15.3-6.5v-2.9c3.5 2.5 7.6 4.5 11.9 5.4.3.1.4-.4.1-.5-4.2-1.6-8.2-3.2-12-5.5 0-1.2.1-2.3.3-3.4 2.9 1.7 5.9 3.1 9.1 4 .3.1.4-.4.1-.5-3.1-1.3-6.2-2.6-9.2-4.1.1-.9.3-1.8.4-2.6 3 2.4 6.6 4.4 10.4 5 .2 0 .3-.2.1-.3-3.7-1.5-7.1-3.1-10.4-5.2l.6-2.4c2.8 1.9 5.8 3.8 9 4.7.2.1.3-.2.1-.3-3-1.7-6-3.1-8.9-4.9.3-.9.5-1.7.9-2.5 2.4 1.8 5.3 3.1 8.3 3.6.3 0 .4-.3.1-.4-2.9-1-5.6-2.2-8.2-3.8.2-.6.5-1.2.8-1.8 2.2 2 4.9 3.6 7.8 3.9.2 0 .2-.2 0-.3-2.8-1.1-5.3-2.2-7.6-4.1.4-.7.7-1.4 1.1-2.1 1.7 1.8 4.1 3.1 6.5 3.3.1 0 .1 0 .2-.1 1.4 5.9 3.1 14.8 4.1 26.7h-2.5zm4.5 0C39.9 196.6 36 184.9 35 182c2.2-1.2 4.9-2.3 7-2.9 3.5-1 6.7-2.9 8.1-3.7 3.3 2.5 11.8 5.9 18.6 8.6 3.8 1.5 7.2 2.8 8.6 3.6 2.4 1.3 10.3 2.2 17.6 2.6.2 1.5.4 2.9.7 3.8.7 1.9.5 3.3-.2 7.5l-.3 1.8c-.3 1.9-.7 3.4-1.1 4.8-.7 2.6-1.3 4.6-.2 6.8.2.4.5.6.9.6.1 0 .3 0 .4-.1.5-.2.7-.8.5-1.3-.8-1.6-.3-3 .3-5.4.4-1.3.8-3 1.2-5l.3-1.8c.7-4.3 1-6.1.1-8.5-.2-.6-.4-1.8-.6-3 2.3.1 4.5.2 6.4.2 0 .5-.1 1.1-.1 1.7-.1.7-.1 1.5-.2 2.4-.2 4.4.8 10 .9 10.9l-.2 9c0 .6.4 1 1 1 .5 0 1-.4 1-1l.2-9.1v-.2c0-.1-1.1-6-.9-10.5 0-.9.1-1.7.2-2.4s.1-1.3.1-1.9c1.5 0 2.5-.1 2.9-.3.4-.1 1.5-.4 3-.9 2.4-.7 5.7-1.6 9.2-2.7.1.1.3.1.4 0l.1-.1c6.8-2.1 14.4-4.6 17.7-6.8 4.4-2.9 5.9-5.5 6.4-7 3 1 8.4 2.9 9.8 3.8 1.6 1 9.1 6.4 11.1 7.8-.6 3.2-3.3 18.3-2.9 33.6l-121.4-.2zm123.3-1.3c.9.5 1.8.9 2.8 1.3H165c0-.4 0-.9-.1-1.3zm4.4 1.3c-1.4-.7-2.9-1.4-4.4-1.9v-3.1c2.8 2 6 3.5 9.3 4 .3 0 .4-.4.1-.4-3.4-1.1-6.5-2.3-9.4-4.2 0-1.1.1-2.1.1-3.2 2.6 1.2 5.3 2.4 8 3.2.2.1.4-.3.2-.4-2.6-1.3-5.4-2.4-8.1-3.4.1-1.1.1-2.1.2-3.1 2.3 1.5 4.8 2.8 7.4 3.6.2.1.4-.3.2-.4-2.6-1.2-5.1-2.3-7.6-3.8.1-.9.1-1.8.2-2.7 1.8 1.7 4.7 2.7 7.1 2.8.2 0 .3-.3.1-.4-1.4-.4-2.8-.8-4.2-1.4-1-.5-1.9-1.1-2.9-1.7.1-.9.2-1.7.2-2.6 2.1 1.2 4.2 2.5 6.4 3.3.2.1.3-.2.1-.3-2-1.4-4.3-2.4-6.5-3.4.1-1.1.2-2.1.4-3 1.6 1.1 3.2 2.2 4.9 3.1.2.1.3-.1.1-.2-1.6-1.2-3.3-2.3-5-3.2.3-2.3.6-4.3.8-6 1 .9 2 1.8 3.1 2.5.2.1.4-.1.2-.3-.9-1-2.1-1.9-3.2-2.7.2-1.4.4-2.5.6-3.2 1.4.7 4.1 2.4 6 6.6 2.5 5.4 2.8 21.9 2.9 26.1l-7.3-.2zm-2.3-25.9c-.3-.1-.4.2-.2.4 1.2.9 2.5 1.9 3.8 2.4.2.1.5-.2.3-.4-1.2-1-2.6-1.8-3.9-2.4zm-87.4-12.2c-.1-.8-.4-1.6-.6-2.5-.2-1-.2-1.9-.1-2.9 0-.3-.4-.3-.4 0-.2 1.7-.1 4 .8 5.5.1.2.3.1.3-.1zm1.9.9c.1-1.6-.3-3.4-.5-5 0-.3-.4-.3-.4 0 .1 1.7.1 3.5.5 5.1.1.2.4.1.4-.1zm1.2.1c.1-1.3-.3-2.7-.5-4.1 0-.2-.3-.1-.3.1.1 1.3.1 2.8.5 4.1 0 .2.3.1.3-.1zm2 1c-.2-1.5-.8-2.8-1-4.3 0-.3-.4-.3-.4 0 .1 1.4.3 3.2 1.1 4.4.1.2.3.1.3-.1zm2.1.2c.1.1.2-.1.1-.2-.3-.3-.6-.6-.8-1-.2-.4-.4-.8-.4-1.2 0-.3-.5-.2-.4.1 0 .9.5 2 1.5 2.3zm2.4.7c.1.1.3 0 .3-.2-.4-.9-1.1-1.8-1.7-2.6-.2-.2-.6 0-.4.2.6.9 1.1 1.8 1.8 2.6zm19 .3c.2-.5.2-1.2.2-1.8 0-.2-.4-.2-.4 0-.1.6-.3 1.2-.1 1.8.1.1.3.1.3 0zm1.3-.4c.2-.4.2-.8.3-1.2.1-.5.2-.9.3-1.4.1-.3-.3-.4-.4-.1l-.3 1.5c-.1.4-.2.8-.1 1.2-.1.1.1.2.2 0z" fill="#000000" stroke-width="none" opacity="1"></path></g><g id="svga-group-head" transform="matrix(1,-2.856368900253737e-18,2.856368900253737e-18,1,0,0)"><g id="svga-group-ears-left-move" transform="matrix(1,0,0,1,0,0)"><g id="svga-group-ears-left"><path id="SvgjsPath11356" d="M60.8 80.5c-.2-.3-3.3-4.3-5.9-6.7s-3.4-2.4-4.6-.9c-1.3 1.5-2.9 9.1-2.5 12.4.4 3.4 3.6 8.7 5.2 11.7 1.7 3 3.3 6.7 5.1 6.3 1.9-.4 4.4-4.6 5.7-7.7 1.2-3.1.6-10.9-3-15.1z" fill="#ffffff" stroke-width="none" opacity="1"></path><path id="SvgjsPath11357" d="M52.9 98.9c-.3-.5-.5-1-.8-1.4l-.6-1c-1.8-3.1-4.4-7.8-4.8-11-.4-3.5 1.2-11.4 2.7-13.2.6-.7 1.2-1.3 2.2-1.4 1.2-.1 2.3.7 3.9 2.2 1.6 1.4 3.5 3.6 5.8 6.5l.2.3c3.9 4.6 4.5 12.8 3.2 16.1-1.1 3-3.9 7.8-6.4 8.3h-.5c-2 .1-3.4-2.6-4.9-5.4zm7.2-17.8s-.1-.1-.2-.3c-2.2-2.8-4.1-5-5.6-6.3-1.2-1.1-2.1-1.7-2.4-1.7-.2 0-.4.2-.8.7-1 1.2-2.6 8.4-2.3 11.7.3 2.8 2.8 7.3 4.5 10.3l.6 1c.3.5.5 1 .8 1.4.9 1.7 2.5 4.6 3.3 4.4 1.2-.2 3.6-3.7 4.9-7.1 1.1-2.8.4-10.2-2.8-14.1z" fill="#000000" stroke-width="none" opacity="1"></path><path id="SvgjsPath11358" d="M50 87c-.3-2.3-.5-7.8.8-9.6 2.2-2.9 6 6.4 6.9 9.3 0 .1.1.2.1.3.2.3-.1.7-.4.6-.4-.2-.9-.6-1.3-.8-1.1-.5-1.6.5-1.3 1.8.4 1.8 1.4 2.9 2.2 4.3.1.2 0 .4-.2.3-1.6-.9-3.5-4.5-3.1-6.6.3-2 1.9-1.8 3.1-.8-.7-1.7-1.5-3.3-2.5-4.8-.6-.9-1.2-2-2.2-2.2-1.2-.2-1 .3-1.2 1.8-.8 4.8-.3 10.4 2.5 14.5.1.1 0 .2-.1.1-1.7-2.3-2.9-4.9-3.3-8.2z" fill="#000000" stroke-width="none" opacity="1"></path></g></g><g id="svga-group-ears-right-move" transform="matrix(1,0,0,1,0,0)"><g id="svga-group-ears-right"><path id="SvgjsPath11359" d="M139.2 80.5c.2-.3 3.3-4.3 5.9-6.7 2.6-2.4 3.4-2.4 4.6-.9s2.9 9.1 2.5 12.4c-.4 3.4-3.6 8.7-5.2 11.7-1.7 3-3.3 6.7-5.1 6.3s-4.4-4.6-5.7-7.7c-1.2-3.1-.6-10.9 3-15.1z" fill="#ffffff" stroke-width="none" opacity="1"></path><path id="SvgjsPath11360" d="M142.1 104.4h-.5c-2.5-.5-5.2-5.4-6.4-8.3-1.3-3.4-.7-11.5 3.2-16.1l.2-.3c2.3-2.9 4.2-5.1 5.8-6.5 1.6-1.4 2.7-2.2 3.9-2.2 1 .1 1.6.7 2.2 1.4 1.5 1.8 3.1 9.7 2.7 13.2-.4 3.2-3 7.9-4.8 11l-.6 1c-.3.5-.5.9-.8 1.4-1.4 2.7-2.8 5.4-4.9 5.4zm-2.2-23.3c-3.2 3.9-3.9 11.2-2.8 14.1 1.3 3.4 3.7 6.9 4.9 7.1.8.2 2.4-2.7 3.3-4.4.3-.5.5-1 .8-1.4l.6-1c1.7-3 4.2-7.5 4.5-10.3.4-3.3-1.3-10.5-2.3-11.7-.4-.4-.6-.7-.8-.7-.3 0-1.2.5-2.4 1.7-1.5 1.4-3.3 3.5-5.6 6.3 0 .2-.1.3-.2.3z" fill="#000000" stroke-width="none" opacity="1"></path><path id="SvgjsPath11361" d="M150 87c.3-2.3.5-7.8-.8-9.6-2.2-2.9-6 6.4-6.9 9.3 0 .1-.1.2-.1.3-.2.3.1.7.4.6.4-.2.9-.6 1.3-.8 1.1-.5 1.6.5 1.3 1.8-.4 1.8-1.4 2.9-2.2 4.3-.1.2 0 .4.2.3 1.6-.9 3.5-4.5 3.1-6.6-.3-2-1.9-1.8-3.1-.8.7-1.7 1.5-3.3 2.5-4.8.6-.9 1.2-2 2.2-2.2 1.2-.2 1 .3 1.2 1.8.8 4.8.3 10.4-2.5 14.5-.1.1 0 .2.1.1 1.7-2.3 2.9-4.9 3.3-8.2z" fill="#000000" stroke-width="none" opacity="1"></path></g></g><g id="svga-group-faceshape-wrap"><g id="svga-group-faceshape-single"><path id="SvgjsPath11574" d="M142.4 53.6c-2.3-11.4-15.1-28.8-42.4-28.8S63.6 38.2 59.6 48.1c-3.5 8.5-3.4 22.4-3.4 22.4s.5 29.9 11.4 48.5c10.6 17.9 32.9 33.4 52.7 12.4 24.5-26.1 23.5-60.8 23.5-60.8s.2-8.9-1.4-17z" fill="#ffffff" stroke-width="none" opacity="1"></path><path id="SvgjsPath11575" d="M99.6 142.7c-.9 0-1.9-.1-2.9-.2-13.2-1.5-24.2-12.8-30.2-22.9C55.6 101 55 71.8 55 70.6c0-.6 0-14.3 3.5-22.9 6.6-16.2 20.1-24 41.5-24 12.3 0 23.2 3.6 31.3 10.4 6.3 5.2 10.9 12.5 12.2 19.3 1.6 7.9 1.4 16.5 1.4 17.2 0 .7.1 9.2-2.6 20.9-2.6 11-8.4 27.1-21.2 40.7-6.6 7-13.8 10.5-21.5 10.5zM100 26c-20.3 0-33.2 7.4-39.4 22.6-3.3 8.2-3.3 21.9-3.3 22 0 .3.6 29.8 11.3 47.9 5.7 9.6 16.2 20.4 28.5 21.8 8 .9 15.6-2.4 22.4-9.7 12.5-13.3 18.1-28.9 20.7-39.6 2.8-11.7 2.6-20.3 2.6-20.4 0-.1.2-8.9-1.4-16.7-1.3-6.4-5.6-13.1-11.5-18-7.8-6.5-18.1-9.9-29.9-9.9z" fill="#000000" stroke-width="none" opacity="1"></path></g></g><g id="svga-group-mouth-single-move" transform="matrix(1,0,0,1,0,0)"><g id="svga-group-mouth-single"><path id="SvgjsPath11602" d="M113.06 120.65c-.29.14-.56.24-.84.34-.01 0-.01-.01-.02-.01-2.76-.78-4.09-3.51-6.88-4.24-2.03-.53-4.09.07-5.57 1.36-.96-1.17-2.54-1.53-4.11-1.13-3.23.82-4.73 4.14-8.26 4.42-.07.01-.11.04-.16.07-.14-.04-.29-.06-.43-.1-.33-.1-.47.37-.14.47.49.15.96.24 1.42.31.03.06.08.11.16.13 2.63.87 4.33 3.03 6.8 4.17 2.02.93 4.33 1.35 6.59 1.22 4.32-.25 8.06-2.62 10.16-5.98.53-.17 1.05-.37 1.56-.61.3-.14.03-.56-.28-.42zm-21.53-.48c1.94-1.45 5.67-4.76 7.9-1.66.02.02.04.02.06.04.07.15.27.25.42.1 2.43-2.33 5.66-1.82 8.07.2 1.11.93 2.12 1.83 3.48 2.37 0 0-.01 0-.01.01l-.01.01c-2.11.55-3.97.14-6.35-.24-.06-.01-.12-.01-.18-.01.11-.14.2-.3.22-.48.02-.13-.04-.26-.19-.3-.13-.03-.31.04-.33.17-.04.27-.22.49-.52.59-.16.01-.32.02-.48.05.42-.49.65-1.08.65-1.72 0-.32-.54-.32-.54 0-.01.7-.32 1.32-.91 1.78-.05.04-.06.09-.07.13-.9.25-1.79.59-2.8.66-1.02.07-1.95-.24-2.87-.53-.65-.49-1.06-1.19-1.12-1.97-.02-.31-.56-.32-.54 0 .04.63.28 1.19.66 1.69-.54-.13-1.09-.21-1.67-.14-.87.11-1.66.53-2.51.72-1.17.26-2.34.26-3.49.09 1.18-.28 2.16-.83 3.13-1.56zm8.09 6.98c-2.63-.23-4.94-1.24-6.96-2.75-1.05-.78-2.02-1.56-3.18-2.13 1.27.02 2.51-.2 3.89-.56.55-.15 1.01-.2 1.44-.19-.21.25-.41.51-.62.76-.21.25.26.5.47.25l.78-.96c.56.09 1.1.26 1.78.47.24.07.47.13.71.19-.38.38-.64.83-.77 1.33-.08.31.45.44.52.13.12-.48.37-.9.75-1.24.04-.04.04-.08.05-.12.25.04.49.06.74.07-.7 1-.92 2.17-.6 3.32.08.31.61.18.52-.13-.31-1.13-.06-2.24.7-3.18.01-.01.01-.01.01-.02.06 0 .12 0 .18-.01 1.03-.08 1.86-.51 2.83-.77.7-.19 1.32-.19 1.92-.11 1.2.51 1.99 1.59 2.03 2.8.01.31.55.32.54 0-.03-.98-.48-1.87-1.22-2.53.48.11.98.23 1.51.3 1.16.15 2.29.08 3.38-.18-2.42 3.52-6.73 5.66-11.4 5.26z" fill="#000000" stroke-width="none" opacity="1"></path></g></g><g id="svga-group-eyes-left-move" transform="matrix(1,0,0,1,1,0)"><g id="svga-group-eyes-left" transform="matrix(0.8999996000000001,0,0,0.8999996000000001,7.900031599999991,8.690034912588487)"><g id="svga-group-eyesback-left"></g><g id="svga-group-eyesiriswrapper-left"><g id="svga-group-eyesiriscontrol-left" transform="matrix(1,0,0,1,0,0)"><g id="svga-group-eyesiris-left"><path id="SvgjsPath11469" d="M83.6 85.1c-1.1-2.1-3.5-2.9-5.7-2.2-2.4.8-4.2 3.3-3.3 5.9.5 1.4 1.6 2.6 3.1 2.9.5.1 1 .1 1.6.1.6.1 1.2 0 1.8-.2 2.6-.9 3.8-4 2.5-6.5z" fill="#ffffff" stroke-width="none" opacity="1"></path><path id="SvgjsPath11470" d="M81.8 86.2c0-.1 0-.1-.1-.2-.6-1.2-2.2-1.7-3.4-1.1.3.2.5.6.6.8.2.4.6 1.1.1 1.3-.4.2-1.1 0-1.4-.2-.2-.1-.4-.3-.5-.5 0 .1-.1.1-.1.2-.1.2-.1.5-.1.7-.2.7 0 1.5.6 2.1.3.2.6.4.9.4.6.3 1.3.4 2 .1-.1-.1-.2-.3-.2-.4 0-.3.2-.6.5-.7.3-.1.6 0 .8.2.3-.3.5-.8.6-1.2.2-.5 0-1.1-.3-1.5zM79.6 92h-.4c-.5 0-1.1 0-1.6-.1-1.4-.3-2.7-1.5-3.2-3-.9-2.7 1-5.2 3.4-6.1 2.3-.8 4.8.1 5.9 2.2.6 1.2.7 2.7.2 4-.5 1.3-1.6 2.3-2.9 2.8-.4.1-.9.2-1.4.2zm-.4-.3c.6.1 1.2 0 1.8-.2 1.2-.4 2.2-1.4 2.7-2.6.5-1.2.4-2.6-.2-3.7-1-1.9-3.4-2.8-5.5-2.1-2.3.8-4.1 3.2-3.2 5.7.5 1.4 1.7 2.6 3 2.8.4.1.9.1 1.4.1z" fill="#000000" stroke-width="none" opacity="1"></path></g></g></g><g id="svga-group-eyesfront-left"><path id="SvgjsPath11400" d="M79 72.1c-8.2 0-14.8 6.6-14.8 14.8s6.6 14.8 14.8 14.8 14.8-6.6 14.8-14.8c0-8.1-6.6-14.8-14.8-14.8zM86.6 91c-1 .7-4.1 2.3-8.1 2.2s-11-2.6-11.7-3.5c-.7-1 2-3.2 3.2-4 1.1-.8 4.2-3.3 7.8-3.4 3.6-.1 6.2.8 8.4 2.2 2.2 1.3 3.7 3.7 3.7 3.7s-2.4 2.2-3.3 2.8z" fill="#ffffff" stroke-width="none" opacity="1"></path><path id="SvgjsPath11401" d="M79.4 93.7h.3c5.7-.1 9.7-4.3 9.8-4.5.2-.2.2-.5 0-.7s-.5-.2-.7 0c0 0-3.9 4.1-9.2 4.2-5.3.1-11.5-2.6-12.5-3.4.2-1 4.8-5.5 8.2-6.2 3.4-.7 10.8-.5 14.4 5.8.1.2.4.3.7.2.2-.1.3-.4.2-.7-3.9-6.7-11.8-7-15.4-6.2-3.4.7-8.4 5.1-8.9 6.8-.1.5 0 .8.2.9 1 1 7.4 3.8 12.9 3.8z" fill="#000000" stroke-width="none" opacity="1"></path></g></g></g><g id="svga-group-eyes-right-move" transform="matrix(1,0,0,1,-1,0)"><g id="svga-group-eyes-right" transform="matrix(0.8999996000000001,0,0,0.8999996000000001,12.100048399999991,8.690034912588487)"><g id="svga-group-eyesback-right"></g><g id="svga-group-eyesiriswrapper-right"><g id="svga-group-eyesiriscontrol-right" transform="matrix(1,0,0,1,0,0)"><g id="svga-group-eyesiris-right"><path id="SvgjsPath11471" d="M125.6 85.1c-1.1-2.1-3.5-2.9-5.7-2.2-2.4.8-4.2 3.3-3.3 5.9.5 1.4 1.6 2.6 3.1 2.9.5.1 1 .1 1.6.1.6.1 1.2 0 1.8-.2 2.5-.9 3.7-4 2.5-6.5z" fill="#ffffff" stroke-width="none" opacity="1"></path><path id="SvgjsPath11472" d="M123.8 86.2c0-.1 0-.1-.1-.2-.6-1.2-2.2-1.7-3.4-1.1.3.2.5.6.6.8.2.4.6 1.1.1 1.3-.4.2-1.1 0-1.4-.2-.2-.1-.4-.3-.5-.5 0 .1-.1.1-.1.2-.1.2-.1.5-.1.7-.2.7 0 1.5.6 2.1.3.2.6.4.9.4.6.3 1.3.4 2 .1-.1-.1-.2-.3-.2-.4 0-.3.2-.6.5-.7.3-.1.6 0 .8.2.3-.3.5-.8.6-1.2.1-.5 0-1.1-.3-1.5zm-2.2 5.8h-.4c-.5 0-1.1 0-1.6-.1-1.4-.3-2.7-1.5-3.2-3-.9-2.7 1-5.2 3.4-6.1 2.3-.8 4.8.1 5.9 2.2.6 1.2.7 2.7.2 4-.5 1.3-1.6 2.3-2.9 2.8-.4.1-.9.2-1.4.2zm-.4-.3c.6.1 1.2 0 1.8-.2 1.2-.4 2.2-1.4 2.7-2.6.5-1.2.4-2.6-.2-3.7-1-1.9-3.4-2.8-5.5-2.1-2.3.8-4.1 3.2-3.2 5.7.5 1.4 1.7 2.6 3 2.8.3.1.8.1 1.4.1z" fill="#000000" stroke-width="none" opacity="1"></path></g></g></g><g id="svga-group-eyesfront-right"><path id="SvgjsPath11402" d="M121 72.1c-8.2 0-14.8 6.6-14.8 14.8s6.6 14.8 14.8 14.8 14.8-6.6 14.8-14.8c0-8.1-6.6-14.8-14.8-14.8zm-.1 21.1c-3.9.1-7.1-1.5-8.1-2.2s-3.4-2.8-3.4-2.8 1.5-2.4 3.7-3.7c2.2-1.3 4.9-2.2 8.4-2.2 3.6.1 6.6 2.6 7.8 3.4 1.1.8 3.9 3.1 3.2 4-.7 1-7.7 3.4-11.6 3.5z" fill="#ffffff" stroke-width="none" opacity="1"></path><path id="SvgjsPath11405" d="M120 93.7h-.3c-5.7-.1-9.7-4.3-9.8-4.5-.2-.2-.2-.5 0-.7s.5-.2.7 0c0 0 3.9 4.1 9.2 4.2 5.3.1 11.5-2.6 12.5-3.4-.2-1-4.8-5.5-8.2-6.2-3.4-.7-10.8-.5-14.4 5.8-.1.2-.4.3-.7.2-.2-.1-.3-.4-.2-.7 3.9-6.7 11.8-7 15.4-6.2 3.4.7 8.4 5.1 8.9 6.8.1.5 0 .8-.2.9-1 1-7.4 3.8-12.9 3.8z" fill="#000000" stroke-width="none" opacity="1"></path></g></g></g><g id="svga-group-facehighlight-single"></g><g id="svga-group-eyebrows-left-move" transform="matrix(1,0,0,1,3,0)"><g id="svga-group-eyebrows-left-rotate" transform="matrix(0.9914448604625656,0.13052619914164235,-0.13052619914164235,0.9914448604625656,10.103758890314921,-9.454398046019605)"><g id="svga-group-eyebrows-left" transform="matrix(0.8999996000000001,0,0,0.8999996000000001,7.717530412234481,7.2349872070449806)"><path id="SvgjsPath11324" d="M70.6 67.28s-7.13 5.85-7.29 6.25c-.16.4 6.09-1.68 8.42-1.76s16.03 5.77 16.99 5.93c.96.16 2.4-4.01 2.4-4.49s-17.96-7.7-20.52-5.93z" fill="#ffffff" stroke-width="none" opacity="1"></path><path id="SvgjsPath11325" d="m62.73 73.63.21.26c.29.33.55.27 3.24-.44 1.83-.48 4.34-1.14 5.56-1.19 1.49-.07 8.55 2.73 12.77 4.38 2.54 1 3.78 1.48 4.13 1.54.05.01.09.01.14.01.23 0 .46-.1.69-.29 1.03-.87 2.15-4.11 2.15-4.7 0-.37-.34-.54-.69-.73-1.74-.92-17.79-7.54-20.61-5.61l-.03.03c-7.23 5.93-7.38 6.31-7.44 6.45l-.12.29zm5.62-1.76-1.91-.48c.47-.39.96-.81 1.46-1.23l1.88 1.39c-.45.09-.94.2-1.43.32zm5.11-4.23.13 3.98c-.39-.11-.73-.19-1.04-.25l-1.48-3.77c.41-.14 1.19-.14 2.39.04zm.81 4.17-.14-4.06c.56.11 1.2.24 1.92.42l-1.08 3.86c-.25-.08-.48-.15-.7-.22zm1.32.43 1.09-3.9c.54.14 1.12.31 1.74.49l-2.22 3.61c-.2-.06-.41-.13-.61-.2zm1.26.44 2.24-3.64c.29.09.58.18.89.28l-1.7 3.88c-.5-.19-.97-.36-1.43-.52zm4.36-2.96c.31.1.61.21.92.31l-2.26 3.75c-.33-.12-.65-.24-.97-.36l1.71-3.9c.2.07.39.13.6.2zm-.72 4.3 2.27-3.76c.41.15.82.29 1.22.44l-1.82 3.97c-.56-.22-1.12-.44-1.67-.65zm5.43-2.59c-1.37 2.27-1.97 3.33-2.23 3.83-.31-.12-.61-.24-.91-.36l1.83-3.98c.45.18.89.34 1.31.51zm.32 4.83 1.71-4.02c.59.25 1.11.47 1.54.66l-2.2 3.77c-.32-.12-.67-.26-1.05-.41zm1.68.65 2.17-3.73c.2.1.37.18.48.25-.22.9-1.27 3.52-1.82 3.78-.12-.04-.42-.15-.83-.3zm-3.61-1.41c.37-.69 1.31-2.29 2.24-3.83.27.11.53.21.79.32l-1.72 4.03-.75-.3a9.31 9.31 0 0 1-.56-.22zM71.7 71.27c-.29.01-.64.05-1.02.11l-2.26-1.66c.73-.61 1.45-1.2 2.09-1.73l1.29 3.29c-.02-.01-.07-.01-.1-.01zm-6.88 1.51c.29-.25.63-.55 1-.86l1.17.29c-.36.09-.72.19-1.07.28-.36.09-.75.19-1.1.29z" fill="#000000" stroke-width="none" opacity="1"></path></g></g></g><g id="svga-group-eyebrows-right-move" transform="matrix(1,0,0,1,-3,0)"><g id="svga-group-eyebrows-right-rotate" transform="matrix(0.9978589227820035,0.06540313619651238,-0.06540313619651238,0.9978589227820035,4.994889093206112,-7.878888622448173)"><g id="svga-group-eyebrows-right" transform="matrix(0.8999996000000001,0,0,0.8999996000000001,12.283549805389384,7.234987588516233)"><path id="SvgjsPath11326" d="M129.4 67.28s7.13 5.85 7.29 6.25-6.09-1.68-8.42-1.76c-2.32-.08-16.03 5.77-16.99 5.93-.96.16-2.4-4.01-2.4-4.49s17.96-7.7 20.52-5.93z" fill="#ffffff" stroke-width="none" opacity="1"></path><path id="SvgjsPath11327" d="M137.16 73.34c-.06-.14-.21-.52-7.44-6.45l-.03-.03c-2.81-1.93-18.86 4.69-20.61 5.61-.36.19-.69.36-.69.73 0 .59 1.12 3.83 2.15 4.7.23.19.46.29.69.29.05 0 .09 0 .14-.01.34-.06 1.58-.54 4.13-1.54 4.22-1.66 11.28-4.45 12.77-4.38 1.22.04 3.73.7 5.56 1.19 2.69.71 2.95.77 3.24.44l.21-.26-.12-.29zm-6.94-1.8 1.88-1.39c.5.42 1 .83 1.46 1.23l-1.91.48-1.43-.32zm-1.3-3.94-1.48 3.77c-.3.06-.65.14-1.04.25l.13-3.98c1.21-.18 1.99-.18 2.39-.04zm-3.88 4.43-1.08-3.86c.72-.18 1.35-.32 1.92-.42l-.14 4.06c-.23.07-.46.14-.7.22zm-1.25.42-2.22-3.61c.62-.19 1.2-.35 1.74-.49l1.09 3.9c-.19.06-.4.13-.61.2zm-2.07.74-1.7-3.88c.31-.1.6-.19.89-.28l2.24 3.64c-.46.17-.93.34-1.43.52zm-2.33-3.67 1.71 3.9c-.32.12-.64.24-.97.36l-2.26-3.75c.3-.11.61-.21.92-.31.21-.07.4-.13.6-.2zm-1.55 5.15-1.82-3.97c.4-.15.8-.29 1.22-.44l2.27 3.76c-.55.21-1.11.43-1.67.65zm-2.45-3.74 1.83 3.98c-.3.12-.6.24-.91.36-.26-.5-.86-1.56-2.23-3.83.42-.18.86-.34 1.31-.51zm-2.69 5.74-2.2-3.77c.43-.19.94-.41 1.54-.66l1.71 4.02c-.37.15-.72.29-1.05.41zm-1.46.53c-.55-.26-1.6-2.87-1.82-3.78.12-.07.28-.15.48-.25l2.17 3.73c-.4.16-.7.27-.83.3zm3.89-1.48c-.25.1-.51.2-.75.3l-1.72-4.03c.25-.1.51-.21.79-.32.93 1.54 1.88 3.14 2.24 3.83-.18.08-.37.15-.56.22zm13.06-4.45 1.29-3.29c.65.53 1.37 1.13 2.09 1.73l-2.26 1.66c-.38-.06-.73-.1-1.02-.11-.02.01-.07.01-.1.01zm5.89 1.22c-.34-.09-.7-.18-1.07-.28l1.17-.29 1 .86c-.35-.1-.74-.2-1.1-.29z" fill="#000000" stroke-width="none" opacity="1"></path></g></g></g><g id="svga-group-beardwrap"><g id="svga-group-beard-single-move" transform="matrix(1,0,0,1,0,0)"><g id="svga-group-beard-single"></g></g></g><g id="svga-group-mustache-single-move" transform="matrix(1,0,0,1,0,3)"><g id="svga-group-mustache-single" transform="matrix(0.7999992000000002,0,0,0.7999992000000002,0,0)"></g></g><g id="svga-group-nose-single-move" transform="matrix(1,0,0,1,0,0)"><g id="svga-group-nose-single"><path id="SvgjsPath11587" d="M103.29 107.27c-1.43 1.14-6.6.84-8.09-1.16-1.49-2.01-1.23-5.37-.71-8.74.52-3.36 3.24-17.34 3.75-18.38.52-1.04 1.75-1.16 2.39 0s3.43 16.63 3.75 20.45.86 6.28-1.09 7.83z" fill="#ffffff" stroke-width="none" opacity="1"></path><path id="SvgjsPath11588" d="M95.15 107.24c2.35 1.15 5.1 2.37 7.68 1.14 2.66-1.27 2.67-4.06 2.36-6.63-.96-7.77-2.31-15.48-3.95-23.13-.2-.94-1.65-.54-1.44.4 1.2 5.6 2.24 11.23 3.09 16.89.41 2.72 1.34 5.93.94 8.68-.62 4.25-5.38 2.6-7.91 1.36-.88-.42-1.64.87-.77 1.29z" fill="#000000" stroke-width="none" opacity="1"></path></g></g><g id="svga-group-hair-front"><path id="SvgjsPath11555" d="M57.9 78.6s-3.5-3.7-3.9-6.1-.9-17.4.2-24.2 10.7-17.7 18.4-21.8 24.6-6 29.5-5.8 21.1 3.9 26.9 8.1 14.4 13.9 15.8 21.4 1.9 21.4 1.4 23-4.1 6.8-5 6.1-1.7-17-3.1-22.1-7-14.4-11.4-17.2-11.9 2.7-17.5 4.1c-5.6 1.4-14.6 1.9-21.6-1.6-6-3-12.1-4.6-15.3-2.3s-8.2 11.6-9.7 16.4c-2.2 6.8-2.6 15.7-2.8 17.5s-.7 5.1-1.9 4.5z" fill="#ffffff" stroke-width="none" opacity="1"></path><path id="SvgjsPath11556" d="M145.8 50.1c-1.5-7.8-10.3-17.8-16.2-22-6-4.3-22.4-8.1-27.5-8.3-4.5-.2-21.9 1.5-30 5.9-7.5 4.1-17.6 15.1-18.9 22.5-1.2 7-.7 22.2-.2 24.6.5 2.5 3.8 6.1 4.2 6.5l.1.1.2.1c.5.2 1 .2 1.5 0 1.1-.6 1.5-2.3 1.8-5.2 0-.3.1-.9.2-1.7.3-3.3.8-10.2 2.6-15.7 1.5-4.6 6.4-13.8 9.3-15.9 2.5-1.8 7.7-.9 14.3 2.4 7.1 3.6 16.2 3.2 22.3 1.7 1.9-.5 3.9-1.4 5.9-2.2 4-1.8 8.2-3.6 10.7-2 4 2.5 9.6 11.5 11 16.6.7 2.5 1.2 7.9 1.7 12.6.8 8.2 1.1 9.5 1.8 10.1.2.1.4.3.8.3.2 0 .3 0 .5-.1 1.8-.6 4.8-5.4 5.3-6.8.5-2-.1-16.4-1.4-23.5zm-.5 22.9c-.3 1.2-2.3 4-3.5 5.1-.1-.5-.2-1.2-.3-2.1.2.1.5.1.7-.1.7-.6 1.2-1.5 1.4-2.4.1-.8-1.1-1.1-1.2-.3-.1.7-.4 1.3-1 1.8-.2-1.6-.4-3.4-.5-5-.5-4.8-1-10.3-1.8-13-.5-1.8-1.5-4.2-2.9-6.7.3.1.5 0 .7-.3.4-.9.8-1.9 1.2-2.8.3-.7-.8-1.4-1.1-.6-.4.9-.8 1.9-1.2 2.8v.1c-1.5-2.6-3.3-5.2-5.1-7.3h.1c1.1-.2 2.1-.7 3-1.3.7-.4 0-1.5-.6-1.1-.8.5-1.7.9-2.7 1.1-.3.1-.4.2-.4.4-.9-.9-1.8-1.7-2.7-2.2-1.1-.7-2.2-.9-3.5-.9-2.8 0-6 1.4-9.2 2.8-2 .9-3.9 1.7-5.6 2.1-1.1.3-2.4.5-3.7.7.6-.6 1-1.4 1.2-2.3.2-.8-1-1.1-1.2-.3s-.7 1.6-1.3 2.1c-.2.2-.2.4-.2.6-.5 0-1 .1-1.4.1.1-.1.1-.2.1-.3.2-.9.4-1.9.6-2.8.2-.8-1-1.1-1.2-.3-.2.9-.4 1.9-.6 2.8-.1.3.1.5.2.6-3.7.1-7.7-.3-11.3-1.6.2-.3.2-.7-.1-.9-2-1.5-3.6-3.3-5-5.4-.4-.7-1.5 0-1.1.6 1.2 1.9 2.7 3.5 4.3 4.9-.1 0-.2-.1-.3-.1-5.2-2.6-12.3-5.1-16.3-2.2-3.4 2.5-8.5 12-10.1 16.9-1.8 5.7-2.4 12.7-2.7 16.1-.1.7-.1 1.3-.1 1.6-.2 1.9-.5 2.9-.6 3.3-1.1-1.3-2.9-3.6-3.2-5-.1-.5-.2-1.7-.3-3.4.1.1.1.3.2.4.4.7 1.5.1 1.1-.6-.3-.5-.4-1.2-.3-1.8.1-.6-.7-1-1-.6-.2-5.6-.1-13.4.6-17.7.6-3.3 3.4-7.9 7.1-12.1-.3 1.1-.5 2.1-.8 3.2-.2.8 1 1.1 1.2.3l.9-3.3c.1-.5-.4-.8-.8-.8 3.1-3.4 6.8-6.6 10.2-8.5 7.3-4 23.9-5.9 29-5.7 4.8.2 20.8 3.9 26.4 7.9 5.4 3.9 14 13.6 15.4 20.7.5 2.9.9 6.7 1.2 10.4-.3-.3-1.1-.2-1.1.4 0 .7-.1 1.3-.1 2-.1.8 1.2.8 1.3 0 0-.4 0-.7.1-1.1.1 1.6.2 3.2.2 4.6-.2.1-.4.2-.4.4-.1.9-.4 1.7-1 2.4-.5.6.6 1.3 1.1.6.2-.2.3-.4.4-.6-.3 2.1-.3 3.3-.4 3.7zM92.8 39.1c-.3-.7-1.5-.4-1.2.3.7 1.7 1.8 3 3.2 4.1.6.5 1.3-.6.6-1.1-1.1-.8-2-1.9-2.6-3.3zm-11.4-3.5c-.5-.6-1.4.3-.9.9.7.8 1.4 1.7 2 2.5.5.6 1.4-.3.9-.9-.6-.8-1.3-1.6-2-2.5zm-5.7-1.2c-.3-.7-1.5-.4-1.2.3.5 1.2 1.2 2.3 2.2 3.2.6.5 1.5-.4.9-.9-.8-.7-1.5-1.5-1.9-2.6zm-2.4 1.3c-.2-.8-1.4-.4-1.2.3.1.5.3 1 .4 1.5.2.8 1.4.4 1.2-.3-.2-.6-.3-1.1-.4-1.5zm-6.1 4.4c0-.8-1.2-.8-1.3 0 0 1.3.1 2.6.6 3.8.3.8 1.5.4 1.2-.3-.3-1.2-.5-2.3-.5-3.5zm-2.6 2.7c.1-.8-1.2-.8-1.3 0-.1 1.6.1 3.1.7 4.6.3.7 1.5.4 1.2-.3-.5-1.4-.7-2.8-.6-4.3zM62 48.6c.1-.8-1.1-1.1-1.2-.3-.3 1.9-.2 3.7.4 5.6.2.8 1.4.4 1.2-.3-.5-1.7-.6-3.4-.4-5zm-3 6.5c.1 1.4.3 2.8.4 4.2.1.8 1.3.8 1.3 0-.1-1.4-.3-2.8-.4-4.2-.1-.8-1.4-.8-1.3 0zm-.6 12c-.2-.8-1.4-.4-1.2.3.2.8.4 1.7.7 2.5.2.8 1.4.4 1.2-.3-.3-.8-.5-1.6-.7-2.5zm-.7 6.3c-.2-.8-1.4-.4-1.2.3.1.5.3 1 .4 1.5.2.8 1.4.4 1.2-.3-.1-.5-.2-1-.4-1.5zm.2-11.7c.1 1.1.3 2.2.4 3.3.1.8 1.3.8 1.3 0-.1-1.1-.3-2.2-.4-3.3-.1-.8-1.4-.8-1.3 0zm11.9-28.5c.1-.8-1.1-1.1-1.2-.3-.3 1.7-.2 3.4.1 5.2.2.8 1.4.5 1.2-.3-.3-1.6-.4-3.1-.1-4.6zm-3.6 5c-.1-.9.1-1.8.4-2.6s-.9-1.1-1.2-.3c-.3 1-.5 2-.4 3 0 .7 1.2.7 1.2-.1zm-5.1 7.4c-.3-1.1-.3-2.1-.2-3.2.1-.8-1.2-.8-1.3 0-.1 1.2 0 2.4.3 3.5.2.8 1.4.4 1.2-.3zm-1.6 5.6c0-1.2 0-2.5-.1-3.7 0-.8-1.3-.8-1.3 0 0 1.2 0 2.5.1 3.7 0 .8 1.3.8 1.3 0zm-2.2 4.7c0-1.2-.1-2.5-.1-3.7 0-.8-1.3-.8-1.3 0 0 1.2.1 2.5.1 3.7.1.8 1.3.8 1.3 0zm-.6 3.8c0-.8-1.3-.8-1.3 0v1.9c0 .8 1.3.8 1.3 0v-1.9zm18.6-31.1c.5-.7-.6-1.3-1.1-.6-.7 1-1 2.2-1 3.4 0 .8 1.2.8 1.3 0 0-1 .3-1.9.8-2.8zm2.4 1.5c-.1 1-.2 2-.2 2.9-.1.8 1.2.8 1.3 0 .1-1 .2-2 .2-2.9 0-.8-1.2-.8-1.3 0zm5.6.5c.1-.8-1.2-.8-1.3 0-.1 1 .1 1.9.5 2.7.3.7 1.4.1 1.1-.6-.3-.7-.3-1.4-.3-2.1zm-.6-2.8c0-.7.2-1.4.5-2.1s-.8-1.4-1.1-.6c-.4.9-.6 1.8-.6 2.7-.1.8 1.1.8 1.2 0zm5.7 8c-.3-.7-1.4-.1-1.1.6l.9 2.1c.3.7 1.4.1 1.1-.6l-.9-2.1zm10.8 7c-1-.4-1.9-1.1-2.6-1.9-.5-.6-1.4.3-.9.9.8.9 1.7 1.6 2.8 2.1.8.3 1.5-.8.7-1.1zm10.4-4.3c-.2 1.1-.7 2.1-1.5 2.9-.5.6.3 1.5.9.9.9-1 1.5-2.2 1.8-3.5.1-.8-1.1-1.1-1.2-.3zm4.7-1c-.7 1.2-1.5 2.2-2.5 3.2-.6.5.3 1.4.9.9 1.1-1 2-2.1 2.7-3.4.4-.7-.7-1.4-1.1-.7zm5.2-1.7c-.7 1.1-1.7 2.1-2.8 2.9-.7.5 0 1.5.6 1.1 1.3-.9 2.4-2 3.3-3.3.4-.8-.7-1.4-1.1-.7zm4.8-1.1c-.6.6-1.2 1.2-1.7 1.9-.5.6.3 1.5.9.9s1.2-1.2 1.7-1.9c.5-.6-.4-1.5-.9-.9zm-28.3 3c.3 1 .9 1.8 1.7 2.5.6.5 1.5-.4.9-.9s-1.1-1.1-1.4-1.9c-.2-.8-1.4-.4-1.2.3zm-3.8-2.6c.4 1 .9 2 1.3 2.9.3.7 1.4.1 1.1-.6-.4-1-.9-2-1.3-2.9-.4-.8-1.5-.1-1.1.6zm-3-4.2c-.1-.8-1.3-.8-1.3 0 .2 1.3.5 2.6 1.1 3.8.3.7 1.4.1 1.1-.6-.4-1-.7-2.1-.9-3.2zm-1.7-1.4c-.1-1.1 0-2.1.4-3 .3-.8-.9-1.1-1.2-.3-.4 1.1-.6 2.2-.4 3.4 0 .7 1.3.7 1.2-.1zm4.4-5.7c.1-.8-1.1-1.1-1.2-.3-.1.7-.3 1.4-.4 2.1-.1.8 1.1 1.1 1.2.3.1-.7.2-1.4.4-2.1zm1.7 8.1-.9-3c-.2-.8-1.4-.4-1.2.3l.9 3c.2.8 1.4.5 1.2-.3zm4.4 1.9c-.3-.7-1.5-.4-1.2.3.4 1.1 1 2 1.8 2.8.6.6 1.4-.3.9-.9-.7-.6-1.2-1.4-1.5-2.2zm4.4 1.1v2.8c0 .8 1.2.8 1.3 0v-2.8c-.1-.8-1.3-.8-1.3 0zm-3.5-5.1c.3.6.4 1.2.3 1.8-.2.8 1 1.1 1.2.3.2-1 .1-1.9-.4-2.8-.4-.6-1.5 0-1.1.7zm-2.9 0c.1-1.3.2-2.7.3-4 .1-.8-1.2-.8-1.3 0-.1 1.3-.2 2.7-.3 4 0 .8 1.2.8 1.3 0zm3-3.5c.3 0 .7-.3.6-.6l-.3-2.1c0-.3-.3-.6-.6-.6s-.7.3-.6.6l.3 2.1c0 .3.2.6.6.6zm5.1-.5v-2.1c0-.8-1.3-.8-1.3 0v2.1c0 .8 1.3.8 1.3 0zm4.2 1.1c.3-.9.2-1.8-.2-2.6-.3-.7-1.4-.1-1.1.6.2.5.2 1.1.1 1.7-.2.7 1 1 1.2.3zm4.6.9c0-.7.1-1.3.1-2 0-.8-1.2-.8-1.3 0 0 .7-.1 1.3-.1 2 0 .8 1.2.8 1.3 0zm4.3 1.2c0-.7.1-1.3.1-2 0-.8-1.2-.8-1.3 0 0 .7-.1 1.3-.1 2 0 .8 1.2.8 1.3 0zm3.8-1c-.2.8-.3 1.6-.5 2.4s1 1.1 1.2.3c.2-.8.3-1.6.5-2.4.2-.7-1-1.1-1.2-.3zm4.5 2.3c-.2.5-.4 1-.7 1.5-.3.7.7 1.4 1.1.6.2-.5.4-1 .7-1.5.3-.7-.7-1.3-1.1-.6zm4.3 6.5c-.8.5-1.6.7-2.5.7-.8 0-.8 1.3 0 1.3 1.1 0 2.2-.3 3.1-.9.7-.5.1-1.5-.6-1.1zm4.5 5.2c-.2.8-.6 1.4-1.2 1.9s0 1.6.6 1.1c.9-.7 1.5-1.6 1.8-2.7.2-.8-1-1.1-1.2-.3zm5.2 8.7c0 1.1-.4 2-1 2.9-.5.7.6 1.3 1.1.6.7-1 1.1-2.2 1.2-3.5 0-.8-1.2-.8-1.3 0zm1.6 8.9c.3-1.2.5-2.3.8-3.5.2-.8-1-1.1-1.2-.3-.3 1.2-.5 2.3-.8 3.5-.2.7 1 1.1 1.2.3zm.5 5.3c.7-1.2 1.1-2.4 1.2-3.8 0-.8-1.2-.8-1.3 0-.1 1.1-.4 2.2-1 3.2-.4.7.7 1.3 1.1.6zm.8 2.1-1.2 3.6c-.3.8 1 1.1 1.2.3l1.2-3.6c.2-.7-1-1.1-1.2-.3zm1.6-14.4c0-.8-1.2-.8-1.3 0 0 1.2-.1 2.3-.1 3.5 0 .8 1.2.8 1.3 0 0-1.2.1-2.4.1-3.5zm-4.1-5.1c-.1.8 1.1.8 1.3 0 .2-1.4-.1-2.7-.6-3.9-.3-.7-1.4-.1-1.1.6.4 1 .5 2.1.4 3.3zm-3.3-6.6c0 .7.1 1.3.1 2 .1.8 1.3.8 1.3 0 0-.7-.1-1.3-.1-2-.1-.8-1.4-.8-1.3 0zm-2.6-2.1c-.1.8 1.1.8 1.3 0 .1-1.1 0-2.1-.4-3.1-.3-.7-1.5-.4-1.2.3.3.9.4 1.8.3 2.8zm-3.2-4.8c.2.7.3 1.3.2 2-.1.8 1.2.8 1.3 0s0-1.6-.3-2.3c-.2-.8-1.4-.5-1.2.3zm-2.4-.7c.1-.6.3-1.2.4-1.7.2-.8-1-1.1-1.2-.3-.1.6-.3 1.2-.4 1.7-.2.8 1 1.1 1.2.3zm-20 3.6c.2-.6.4-1.2.5-1.9.2-.8-1-1.1-1.2-.3-.2.6-.4 1.2-.5 1.9-.3.8.9 1.1 1.2.3zm4.3-4.2c-.3.9-.5 1.8-.8 2.7-.2.8 1 1.1 1.2.3.3-.9.5-1.8.8-2.7.2-.7-1-1-1.2-.3zm4.1 1.4c.3-.8.5-1.6.8-2.4.3-.8-1-1.1-1.2-.3-.3.8-.5 1.6-.8 2.4-.3.7.9 1.1 1.2.3zm-13.2-4.6c0 .8-.1 1.6-.1 2.4 0 .8 1.2.8 1.3 0 0-.8.1-1.6.1-2.4s-1.2-.8-1.3 0zm5.7 3c.1-.9.2-1.8.4-2.7.1-.8-1.1-1.1-1.2-.3-.1.9-.2 1.8-.4 2.7-.1.8 1.1 1.1 1.2.3z" fill="#000000" stroke-width="none" opacity="1"></path></g><g id="svga-group-glasses-single-move" transform="matrix(1,0,0,1,0,0)"><g id="svga-group-glasses-single"></g></g></g></g></g><rect id="svga-credit-rect" width="200" height="15" x="0" y="185" fill="#ecf0f1" opacity="0.5" style="display: none;"></rect><text id="svga-credit-text" font-family="Avenir Next, Roboto, Helvetica, Arial, sans-serif" font-size="10px" text-anchor="start" font-weight="400" size="10px" anchor="start" weight="400" fill="#333333" x="33.40447998046875" y="182.60824704170227" style="display: none;"><tspan id="SvgjsTspan11318" dy="13" x="33.40447998046875">Created on AvatarMaker.com</tspan></text></g><defs id="SvgjsDefs11265"></defs></svg>